%TF.GenerationSoftware,KiCad,Pcbnew,10.0.1*%
%TF.CreationDate,2026-08-18T00:17:17+05:00*%
%TF.ProjectId,Master_Controller,4d617374-6572-45f4-936f-6e74726f6c6c,rev?*%
%TF.SameCoordinates,Original*%
%TF.FileFunction,Legend,Top*%
%TF.FilePolarity,Positive*%
%FSLAX46Y46*%
G04 Gerber Fmt 4.6, Leading zero omitted, Abs format (unit mm)*
G04 Created by KiCad (PCBNEW 10.0.1) date 2026-08-18 00:17:17*
%MOMM*%
%LPD*%
G01*
G04 APERTURE LIST*
%ADD10C,0.150000*%
%ADD11C,0.120000*%
G04 APERTURE END LIST*
D10*
X113408557Y-47042856D02*
X112508557Y-47042856D01*
X113365700Y-46657142D02*
X113408557Y-46528571D01*
X113408557Y-46528571D02*
X113408557Y-46314285D01*
X113408557Y-46314285D02*
X113365700Y-46228571D01*
X113365700Y-46228571D02*
X113322842Y-46185713D01*
X113322842Y-46185713D02*
X113237128Y-46142856D01*
X113237128Y-46142856D02*
X113151414Y-46142856D01*
X113151414Y-46142856D02*
X113065700Y-46185713D01*
X113065700Y-46185713D02*
X113022842Y-46228571D01*
X113022842Y-46228571D02*
X112979985Y-46314285D01*
X112979985Y-46314285D02*
X112937128Y-46485713D01*
X112937128Y-46485713D02*
X112894271Y-46571428D01*
X112894271Y-46571428D02*
X112851414Y-46614285D01*
X112851414Y-46614285D02*
X112765700Y-46657142D01*
X112765700Y-46657142D02*
X112679985Y-46657142D01*
X112679985Y-46657142D02*
X112594271Y-46614285D01*
X112594271Y-46614285D02*
X112551414Y-46571428D01*
X112551414Y-46571428D02*
X112508557Y-46485713D01*
X112508557Y-46485713D02*
X112508557Y-46271428D01*
X112508557Y-46271428D02*
X112551414Y-46142856D01*
X112508557Y-45585713D02*
X112508557Y-45414285D01*
X112508557Y-45414285D02*
X112551414Y-45328570D01*
X112551414Y-45328570D02*
X112637128Y-45242856D01*
X112637128Y-45242856D02*
X112808557Y-45199999D01*
X112808557Y-45199999D02*
X113108557Y-45199999D01*
X113108557Y-45199999D02*
X113279985Y-45242856D01*
X113279985Y-45242856D02*
X113365700Y-45328570D01*
X113365700Y-45328570D02*
X113408557Y-45414285D01*
X113408557Y-45414285D02*
X113408557Y-45585713D01*
X113408557Y-45585713D02*
X113365700Y-45671428D01*
X113365700Y-45671428D02*
X113279985Y-45757142D01*
X113279985Y-45757142D02*
X113108557Y-45799999D01*
X113108557Y-45799999D02*
X112808557Y-45799999D01*
X112808557Y-45799999D02*
X112637128Y-45757142D01*
X112637128Y-45757142D02*
X112551414Y-45671428D01*
X112551414Y-45671428D02*
X112508557Y-45585713D01*
X113408557Y-44385713D02*
X113408557Y-44814285D01*
X113408557Y-44814285D02*
X112508557Y-44814285D01*
X113151414Y-44128571D02*
X113151414Y-43700000D01*
X113408557Y-44214285D02*
X112508557Y-43914285D01*
X112508557Y-43914285D02*
X113408557Y-43614285D01*
X112508557Y-43442856D02*
X112508557Y-42928571D01*
X113408557Y-43185713D02*
X112508557Y-43185713D01*
X113408557Y-42628571D02*
X112508557Y-42628571D01*
X112508557Y-42028571D02*
X112508557Y-41857143D01*
X112508557Y-41857143D02*
X112551414Y-41771428D01*
X112551414Y-41771428D02*
X112637128Y-41685714D01*
X112637128Y-41685714D02*
X112808557Y-41642857D01*
X112808557Y-41642857D02*
X113108557Y-41642857D01*
X113108557Y-41642857D02*
X113279985Y-41685714D01*
X113279985Y-41685714D02*
X113365700Y-41771428D01*
X113365700Y-41771428D02*
X113408557Y-41857143D01*
X113408557Y-41857143D02*
X113408557Y-42028571D01*
X113408557Y-42028571D02*
X113365700Y-42114286D01*
X113365700Y-42114286D02*
X113279985Y-42200000D01*
X113279985Y-42200000D02*
X113108557Y-42242857D01*
X113108557Y-42242857D02*
X112808557Y-42242857D01*
X112808557Y-42242857D02*
X112637128Y-42200000D01*
X112637128Y-42200000D02*
X112551414Y-42114286D01*
X112551414Y-42114286D02*
X112508557Y-42028571D01*
X113408557Y-41257143D02*
X112508557Y-41257143D01*
X112508557Y-41257143D02*
X113408557Y-40742857D01*
X113408557Y-40742857D02*
X112508557Y-40742857D01*
X113408557Y-39628572D02*
X112508557Y-39628572D01*
X112508557Y-39628572D02*
X113151414Y-39328572D01*
X113151414Y-39328572D02*
X112508557Y-39028572D01*
X112508557Y-39028572D02*
X113408557Y-39028572D01*
X112508557Y-38428572D02*
X112508557Y-38257144D01*
X112508557Y-38257144D02*
X112551414Y-38171429D01*
X112551414Y-38171429D02*
X112637128Y-38085715D01*
X112637128Y-38085715D02*
X112808557Y-38042858D01*
X112808557Y-38042858D02*
X113108557Y-38042858D01*
X113108557Y-38042858D02*
X113279985Y-38085715D01*
X113279985Y-38085715D02*
X113365700Y-38171429D01*
X113365700Y-38171429D02*
X113408557Y-38257144D01*
X113408557Y-38257144D02*
X113408557Y-38428572D01*
X113408557Y-38428572D02*
X113365700Y-38514287D01*
X113365700Y-38514287D02*
X113279985Y-38600001D01*
X113279985Y-38600001D02*
X113108557Y-38642858D01*
X113108557Y-38642858D02*
X112808557Y-38642858D01*
X112808557Y-38642858D02*
X112637128Y-38600001D01*
X112637128Y-38600001D02*
X112551414Y-38514287D01*
X112551414Y-38514287D02*
X112508557Y-38428572D01*
X113151414Y-37700001D02*
X113151414Y-37271430D01*
X113408557Y-37785715D02*
X112508557Y-37485715D01*
X112508557Y-37485715D02*
X113408557Y-37185715D01*
X112508557Y-37014286D02*
X112508557Y-36500001D01*
X113408557Y-36757143D02*
X112508557Y-36757143D01*
X113751414Y-35257144D02*
X113708557Y-35300001D01*
X113708557Y-35300001D02*
X113579985Y-35385715D01*
X113579985Y-35385715D02*
X113494271Y-35428573D01*
X113494271Y-35428573D02*
X113365700Y-35471430D01*
X113365700Y-35471430D02*
X113151414Y-35514287D01*
X113151414Y-35514287D02*
X112979985Y-35514287D01*
X112979985Y-35514287D02*
X112765700Y-35471430D01*
X112765700Y-35471430D02*
X112637128Y-35428573D01*
X112637128Y-35428573D02*
X112551414Y-35385715D01*
X112551414Y-35385715D02*
X112422842Y-35300001D01*
X112422842Y-35300001D02*
X112379985Y-35257144D01*
X112808557Y-34528573D02*
X113408557Y-34528573D01*
X112465700Y-34742858D02*
X113108557Y-34957144D01*
X113108557Y-34957144D02*
X113108557Y-34400001D01*
X112508557Y-34142858D02*
X112508557Y-33585715D01*
X112508557Y-33585715D02*
X112851414Y-33885715D01*
X112851414Y-33885715D02*
X112851414Y-33757144D01*
X112851414Y-33757144D02*
X112894271Y-33671430D01*
X112894271Y-33671430D02*
X112937128Y-33628572D01*
X112937128Y-33628572D02*
X113022842Y-33585715D01*
X113022842Y-33585715D02*
X113237128Y-33585715D01*
X113237128Y-33585715D02*
X113322842Y-33628572D01*
X113322842Y-33628572D02*
X113365700Y-33671430D01*
X113365700Y-33671430D02*
X113408557Y-33757144D01*
X113408557Y-33757144D02*
X113408557Y-34014287D01*
X113408557Y-34014287D02*
X113365700Y-34100001D01*
X113365700Y-34100001D02*
X113322842Y-34142858D01*
X112508557Y-33028572D02*
X112508557Y-32942858D01*
X112508557Y-32942858D02*
X112551414Y-32857144D01*
X112551414Y-32857144D02*
X112594271Y-32814287D01*
X112594271Y-32814287D02*
X112679985Y-32771429D01*
X112679985Y-32771429D02*
X112851414Y-32728572D01*
X112851414Y-32728572D02*
X113065700Y-32728572D01*
X113065700Y-32728572D02*
X113237128Y-32771429D01*
X113237128Y-32771429D02*
X113322842Y-32814287D01*
X113322842Y-32814287D02*
X113365700Y-32857144D01*
X113365700Y-32857144D02*
X113408557Y-32942858D01*
X113408557Y-32942858D02*
X113408557Y-33028572D01*
X113408557Y-33028572D02*
X113365700Y-33114287D01*
X113365700Y-33114287D02*
X113322842Y-33157144D01*
X113322842Y-33157144D02*
X113237128Y-33200001D01*
X113237128Y-33200001D02*
X113065700Y-33242858D01*
X113065700Y-33242858D02*
X112851414Y-33242858D01*
X112851414Y-33242858D02*
X112679985Y-33200001D01*
X112679985Y-33200001D02*
X112594271Y-33157144D01*
X112594271Y-33157144D02*
X112551414Y-33114287D01*
X112551414Y-33114287D02*
X112508557Y-33028572D01*
X112508557Y-32171429D02*
X112508557Y-32085715D01*
X112508557Y-32085715D02*
X112551414Y-32000001D01*
X112551414Y-32000001D02*
X112594271Y-31957144D01*
X112594271Y-31957144D02*
X112679985Y-31914286D01*
X112679985Y-31914286D02*
X112851414Y-31871429D01*
X112851414Y-31871429D02*
X113065700Y-31871429D01*
X113065700Y-31871429D02*
X113237128Y-31914286D01*
X113237128Y-31914286D02*
X113322842Y-31957144D01*
X113322842Y-31957144D02*
X113365700Y-32000001D01*
X113365700Y-32000001D02*
X113408557Y-32085715D01*
X113408557Y-32085715D02*
X113408557Y-32171429D01*
X113408557Y-32171429D02*
X113365700Y-32257144D01*
X113365700Y-32257144D02*
X113322842Y-32300001D01*
X113322842Y-32300001D02*
X113237128Y-32342858D01*
X113237128Y-32342858D02*
X113065700Y-32385715D01*
X113065700Y-32385715D02*
X112851414Y-32385715D01*
X112851414Y-32385715D02*
X112679985Y-32342858D01*
X112679985Y-32342858D02*
X112594271Y-32300001D01*
X112594271Y-32300001D02*
X112551414Y-32257144D01*
X112551414Y-32257144D02*
X112508557Y-32171429D01*
X112508557Y-31614286D02*
X113408557Y-31314286D01*
X113408557Y-31314286D02*
X112508557Y-31014286D01*
X113408557Y-30328572D02*
X112508557Y-30328572D01*
X113365700Y-30328572D02*
X113408557Y-30414286D01*
X113408557Y-30414286D02*
X113408557Y-30585714D01*
X113408557Y-30585714D02*
X113365700Y-30671429D01*
X113365700Y-30671429D02*
X113322842Y-30714286D01*
X113322842Y-30714286D02*
X113237128Y-30757143D01*
X113237128Y-30757143D02*
X112979985Y-30757143D01*
X112979985Y-30757143D02*
X112894271Y-30714286D01*
X112894271Y-30714286D02*
X112851414Y-30671429D01*
X112851414Y-30671429D02*
X112808557Y-30585714D01*
X112808557Y-30585714D02*
X112808557Y-30414286D01*
X112808557Y-30414286D02*
X112851414Y-30328572D01*
X113365700Y-29514286D02*
X113408557Y-29600000D01*
X113408557Y-29600000D02*
X113408557Y-29771428D01*
X113408557Y-29771428D02*
X113365700Y-29857143D01*
X113365700Y-29857143D02*
X113322842Y-29900000D01*
X113322842Y-29900000D02*
X113237128Y-29942857D01*
X113237128Y-29942857D02*
X112979985Y-29942857D01*
X112979985Y-29942857D02*
X112894271Y-29900000D01*
X112894271Y-29900000D02*
X112851414Y-29857143D01*
X112851414Y-29857143D02*
X112808557Y-29771428D01*
X112808557Y-29771428D02*
X112808557Y-29600000D01*
X112808557Y-29600000D02*
X112851414Y-29514286D01*
X113751414Y-29214285D02*
X113708557Y-29171428D01*
X113708557Y-29171428D02*
X113579985Y-29085714D01*
X113579985Y-29085714D02*
X113494271Y-29042857D01*
X113494271Y-29042857D02*
X113365700Y-28999999D01*
X113365700Y-28999999D02*
X113151414Y-28957142D01*
X113151414Y-28957142D02*
X112979985Y-28957142D01*
X112979985Y-28957142D02*
X112765700Y-28999999D01*
X112765700Y-28999999D02*
X112637128Y-29042857D01*
X112637128Y-29042857D02*
X112551414Y-29085714D01*
X112551414Y-29085714D02*
X112422842Y-29171428D01*
X112422842Y-29171428D02*
X112379985Y-29214285D01*
X115952379Y-96359580D02*
X115904760Y-96407200D01*
X115904760Y-96407200D02*
X115761903Y-96454819D01*
X115761903Y-96454819D02*
X115666665Y-96454819D01*
X115666665Y-96454819D02*
X115523808Y-96407200D01*
X115523808Y-96407200D02*
X115428570Y-96311961D01*
X115428570Y-96311961D02*
X115380951Y-96216723D01*
X115380951Y-96216723D02*
X115333332Y-96026247D01*
X115333332Y-96026247D02*
X115333332Y-95883390D01*
X115333332Y-95883390D02*
X115380951Y-95692914D01*
X115380951Y-95692914D02*
X115428570Y-95597676D01*
X115428570Y-95597676D02*
X115523808Y-95502438D01*
X115523808Y-95502438D02*
X115666665Y-95454819D01*
X115666665Y-95454819D02*
X115761903Y-95454819D01*
X115761903Y-95454819D02*
X115904760Y-95502438D01*
X115904760Y-95502438D02*
X115952379Y-95550057D01*
X116571427Y-95454819D02*
X116761903Y-95454819D01*
X116761903Y-95454819D02*
X116857141Y-95502438D01*
X116857141Y-95502438D02*
X116952379Y-95597676D01*
X116952379Y-95597676D02*
X116999998Y-95788152D01*
X116999998Y-95788152D02*
X116999998Y-96121485D01*
X116999998Y-96121485D02*
X116952379Y-96311961D01*
X116952379Y-96311961D02*
X116857141Y-96407200D01*
X116857141Y-96407200D02*
X116761903Y-96454819D01*
X116761903Y-96454819D02*
X116571427Y-96454819D01*
X116571427Y-96454819D02*
X116476189Y-96407200D01*
X116476189Y-96407200D02*
X116380951Y-96311961D01*
X116380951Y-96311961D02*
X116333332Y-96121485D01*
X116333332Y-96121485D02*
X116333332Y-95788152D01*
X116333332Y-95788152D02*
X116380951Y-95597676D01*
X116380951Y-95597676D02*
X116476189Y-95502438D01*
X116476189Y-95502438D02*
X116571427Y-95454819D01*
X117428570Y-96454819D02*
X117428570Y-95454819D01*
X117428570Y-95454819D02*
X117999998Y-96454819D01*
X117999998Y-96454819D02*
X117999998Y-95454819D01*
X118333332Y-95454819D02*
X118904760Y-95454819D01*
X118619046Y-96454819D02*
X118619046Y-95454819D01*
X119190475Y-96169104D02*
X119666665Y-96169104D01*
X119095237Y-96454819D02*
X119428570Y-95454819D01*
X119428570Y-95454819D02*
X119761903Y-96454819D01*
X120666665Y-96359580D02*
X120619046Y-96407200D01*
X120619046Y-96407200D02*
X120476189Y-96454819D01*
X120476189Y-96454819D02*
X120380951Y-96454819D01*
X120380951Y-96454819D02*
X120238094Y-96407200D01*
X120238094Y-96407200D02*
X120142856Y-96311961D01*
X120142856Y-96311961D02*
X120095237Y-96216723D01*
X120095237Y-96216723D02*
X120047618Y-96026247D01*
X120047618Y-96026247D02*
X120047618Y-95883390D01*
X120047618Y-95883390D02*
X120095237Y-95692914D01*
X120095237Y-95692914D02*
X120142856Y-95597676D01*
X120142856Y-95597676D02*
X120238094Y-95502438D01*
X120238094Y-95502438D02*
X120380951Y-95454819D01*
X120380951Y-95454819D02*
X120476189Y-95454819D01*
X120476189Y-95454819D02*
X120619046Y-95502438D01*
X120619046Y-95502438D02*
X120666665Y-95550057D01*
X120952380Y-95454819D02*
X121523808Y-95454819D01*
X121238094Y-96454819D02*
X121238094Y-95454819D01*
X122047618Y-95454819D02*
X122238094Y-95454819D01*
X122238094Y-95454819D02*
X122333332Y-95502438D01*
X122333332Y-95502438D02*
X122428570Y-95597676D01*
X122428570Y-95597676D02*
X122476189Y-95788152D01*
X122476189Y-95788152D02*
X122476189Y-96121485D01*
X122476189Y-96121485D02*
X122428570Y-96311961D01*
X122428570Y-96311961D02*
X122333332Y-96407200D01*
X122333332Y-96407200D02*
X122238094Y-96454819D01*
X122238094Y-96454819D02*
X122047618Y-96454819D01*
X122047618Y-96454819D02*
X121952380Y-96407200D01*
X121952380Y-96407200D02*
X121857142Y-96311961D01*
X121857142Y-96311961D02*
X121809523Y-96121485D01*
X121809523Y-96121485D02*
X121809523Y-95788152D01*
X121809523Y-95788152D02*
X121857142Y-95597676D01*
X121857142Y-95597676D02*
X121952380Y-95502438D01*
X121952380Y-95502438D02*
X122047618Y-95454819D01*
X123476189Y-96454819D02*
X123142856Y-95978628D01*
X122904761Y-96454819D02*
X122904761Y-95454819D01*
X122904761Y-95454819D02*
X123285713Y-95454819D01*
X123285713Y-95454819D02*
X123380951Y-95502438D01*
X123380951Y-95502438D02*
X123428570Y-95550057D01*
X123428570Y-95550057D02*
X123476189Y-95645295D01*
X123476189Y-95645295D02*
X123476189Y-95788152D01*
X123476189Y-95788152D02*
X123428570Y-95883390D01*
X123428570Y-95883390D02*
X123380951Y-95931009D01*
X123380951Y-95931009D02*
X123285713Y-95978628D01*
X123285713Y-95978628D02*
X122904761Y-95978628D01*
X124857142Y-95454819D02*
X125047618Y-95454819D01*
X125047618Y-95454819D02*
X125142856Y-95502438D01*
X125142856Y-95502438D02*
X125238094Y-95597676D01*
X125238094Y-95597676D02*
X125285713Y-95788152D01*
X125285713Y-95788152D02*
X125285713Y-96121485D01*
X125285713Y-96121485D02*
X125238094Y-96311961D01*
X125238094Y-96311961D02*
X125142856Y-96407200D01*
X125142856Y-96407200D02*
X125047618Y-96454819D01*
X125047618Y-96454819D02*
X124857142Y-96454819D01*
X124857142Y-96454819D02*
X124761904Y-96407200D01*
X124761904Y-96407200D02*
X124666666Y-96311961D01*
X124666666Y-96311961D02*
X124619047Y-96121485D01*
X124619047Y-96121485D02*
X124619047Y-95788152D01*
X124619047Y-95788152D02*
X124666666Y-95597676D01*
X124666666Y-95597676D02*
X124761904Y-95502438D01*
X124761904Y-95502438D02*
X124857142Y-95454819D01*
X125714285Y-95454819D02*
X125714285Y-96264342D01*
X125714285Y-96264342D02*
X125761904Y-96359580D01*
X125761904Y-96359580D02*
X125809523Y-96407200D01*
X125809523Y-96407200D02*
X125904761Y-96454819D01*
X125904761Y-96454819D02*
X126095237Y-96454819D01*
X126095237Y-96454819D02*
X126190475Y-96407200D01*
X126190475Y-96407200D02*
X126238094Y-96359580D01*
X126238094Y-96359580D02*
X126285713Y-96264342D01*
X126285713Y-96264342D02*
X126285713Y-95454819D01*
X126619047Y-95454819D02*
X127190475Y-95454819D01*
X126904761Y-96454819D02*
X126904761Y-95454819D01*
X127523809Y-96454819D02*
X127523809Y-95454819D01*
X127523809Y-95454819D02*
X127904761Y-95454819D01*
X127904761Y-95454819D02*
X127999999Y-95502438D01*
X127999999Y-95502438D02*
X128047618Y-95550057D01*
X128047618Y-95550057D02*
X128095237Y-95645295D01*
X128095237Y-95645295D02*
X128095237Y-95788152D01*
X128095237Y-95788152D02*
X128047618Y-95883390D01*
X128047618Y-95883390D02*
X127999999Y-95931009D01*
X127999999Y-95931009D02*
X127904761Y-95978628D01*
X127904761Y-95978628D02*
X127523809Y-95978628D01*
X128523809Y-95454819D02*
X128523809Y-96264342D01*
X128523809Y-96264342D02*
X128571428Y-96359580D01*
X128571428Y-96359580D02*
X128619047Y-96407200D01*
X128619047Y-96407200D02*
X128714285Y-96454819D01*
X128714285Y-96454819D02*
X128904761Y-96454819D01*
X128904761Y-96454819D02*
X128999999Y-96407200D01*
X128999999Y-96407200D02*
X129047618Y-96359580D01*
X129047618Y-96359580D02*
X129095237Y-96264342D01*
X129095237Y-96264342D02*
X129095237Y-95454819D01*
X129428571Y-95454819D02*
X129999999Y-95454819D01*
X129714285Y-96454819D02*
X129714285Y-95454819D01*
X130285714Y-96407200D02*
X130428571Y-96454819D01*
X130428571Y-96454819D02*
X130666666Y-96454819D01*
X130666666Y-96454819D02*
X130761904Y-96407200D01*
X130761904Y-96407200D02*
X130809523Y-96359580D01*
X130809523Y-96359580D02*
X130857142Y-96264342D01*
X130857142Y-96264342D02*
X130857142Y-96169104D01*
X130857142Y-96169104D02*
X130809523Y-96073866D01*
X130809523Y-96073866D02*
X130761904Y-96026247D01*
X130761904Y-96026247D02*
X130666666Y-95978628D01*
X130666666Y-95978628D02*
X130476190Y-95931009D01*
X130476190Y-95931009D02*
X130380952Y-95883390D01*
X130380952Y-95883390D02*
X130333333Y-95835771D01*
X130333333Y-95835771D02*
X130285714Y-95740533D01*
X130285714Y-95740533D02*
X130285714Y-95645295D01*
X130285714Y-95645295D02*
X130333333Y-95550057D01*
X130333333Y-95550057D02*
X130380952Y-95502438D01*
X130380952Y-95502438D02*
X130476190Y-95454819D01*
X130476190Y-95454819D02*
X130714285Y-95454819D01*
X130714285Y-95454819D02*
X130857142Y-95502438D01*
X132333333Y-96835771D02*
X132285714Y-96788152D01*
X132285714Y-96788152D02*
X132190476Y-96645295D01*
X132190476Y-96645295D02*
X132142857Y-96550057D01*
X132142857Y-96550057D02*
X132095238Y-96407200D01*
X132095238Y-96407200D02*
X132047619Y-96169104D01*
X132047619Y-96169104D02*
X132047619Y-95978628D01*
X132047619Y-95978628D02*
X132095238Y-95740533D01*
X132095238Y-95740533D02*
X132142857Y-95597676D01*
X132142857Y-95597676D02*
X132190476Y-95502438D01*
X132190476Y-95502438D02*
X132285714Y-95359580D01*
X132285714Y-95359580D02*
X132333333Y-95311961D01*
X133000000Y-95454819D02*
X133000000Y-96169104D01*
X133000000Y-96169104D02*
X132952381Y-96311961D01*
X132952381Y-96311961D02*
X132857143Y-96407200D01*
X132857143Y-96407200D02*
X132714286Y-96454819D01*
X132714286Y-96454819D02*
X132619048Y-96454819D01*
X134000000Y-96454819D02*
X133428572Y-96454819D01*
X133714286Y-96454819D02*
X133714286Y-95454819D01*
X133714286Y-95454819D02*
X133619048Y-95597676D01*
X133619048Y-95597676D02*
X133523810Y-95692914D01*
X133523810Y-95692914D02*
X133428572Y-95740533D01*
X134333334Y-96835771D02*
X134380953Y-96788152D01*
X134380953Y-96788152D02*
X134476191Y-96645295D01*
X134476191Y-96645295D02*
X134523810Y-96550057D01*
X134523810Y-96550057D02*
X134571429Y-96407200D01*
X134571429Y-96407200D02*
X134619048Y-96169104D01*
X134619048Y-96169104D02*
X134619048Y-95978628D01*
X134619048Y-95978628D02*
X134571429Y-95740533D01*
X134571429Y-95740533D02*
X134523810Y-95597676D01*
X134523810Y-95597676D02*
X134476191Y-95502438D01*
X134476191Y-95502438D02*
X134380953Y-95359580D01*
X134380953Y-95359580D02*
X134333334Y-95311961D01*
X149119048Y-24454819D02*
X149119048Y-23788152D01*
X149119048Y-23454819D02*
X149071429Y-23502438D01*
X149071429Y-23502438D02*
X149119048Y-23550057D01*
X149119048Y-23550057D02*
X149166667Y-23502438D01*
X149166667Y-23502438D02*
X149119048Y-23454819D01*
X149119048Y-23454819D02*
X149119048Y-23550057D01*
X149547619Y-24407200D02*
X149642857Y-24454819D01*
X149642857Y-24454819D02*
X149833333Y-24454819D01*
X149833333Y-24454819D02*
X149928571Y-24407200D01*
X149928571Y-24407200D02*
X149976190Y-24311961D01*
X149976190Y-24311961D02*
X149976190Y-24264342D01*
X149976190Y-24264342D02*
X149928571Y-24169104D01*
X149928571Y-24169104D02*
X149833333Y-24121485D01*
X149833333Y-24121485D02*
X149690476Y-24121485D01*
X149690476Y-24121485D02*
X149595238Y-24073866D01*
X149595238Y-24073866D02*
X149547619Y-23978628D01*
X149547619Y-23978628D02*
X149547619Y-23931009D01*
X149547619Y-23931009D02*
X149595238Y-23835771D01*
X149595238Y-23835771D02*
X149690476Y-23788152D01*
X149690476Y-23788152D02*
X149833333Y-23788152D01*
X149833333Y-23788152D02*
X149928571Y-23835771D01*
X150547619Y-24454819D02*
X150452381Y-24407200D01*
X150452381Y-24407200D02*
X150404762Y-24359580D01*
X150404762Y-24359580D02*
X150357143Y-24264342D01*
X150357143Y-24264342D02*
X150357143Y-23978628D01*
X150357143Y-23978628D02*
X150404762Y-23883390D01*
X150404762Y-23883390D02*
X150452381Y-23835771D01*
X150452381Y-23835771D02*
X150547619Y-23788152D01*
X150547619Y-23788152D02*
X150690476Y-23788152D01*
X150690476Y-23788152D02*
X150785714Y-23835771D01*
X150785714Y-23835771D02*
X150833333Y-23883390D01*
X150833333Y-23883390D02*
X150880952Y-23978628D01*
X150880952Y-23978628D02*
X150880952Y-24264342D01*
X150880952Y-24264342D02*
X150833333Y-24359580D01*
X150833333Y-24359580D02*
X150785714Y-24407200D01*
X150785714Y-24407200D02*
X150690476Y-24454819D01*
X150690476Y-24454819D02*
X150547619Y-24454819D01*
X151261905Y-24407200D02*
X151404762Y-24454819D01*
X151404762Y-24454819D02*
X151642857Y-24454819D01*
X151642857Y-24454819D02*
X151738095Y-24407200D01*
X151738095Y-24407200D02*
X151785714Y-24359580D01*
X151785714Y-24359580D02*
X151833333Y-24264342D01*
X151833333Y-24264342D02*
X151833333Y-24169104D01*
X151833333Y-24169104D02*
X151785714Y-24073866D01*
X151785714Y-24073866D02*
X151738095Y-24026247D01*
X151738095Y-24026247D02*
X151642857Y-23978628D01*
X151642857Y-23978628D02*
X151452381Y-23931009D01*
X151452381Y-23931009D02*
X151357143Y-23883390D01*
X151357143Y-23883390D02*
X151309524Y-23835771D01*
X151309524Y-23835771D02*
X151261905Y-23740533D01*
X151261905Y-23740533D02*
X151261905Y-23645295D01*
X151261905Y-23645295D02*
X151309524Y-23550057D01*
X151309524Y-23550057D02*
X151357143Y-23502438D01*
X151357143Y-23502438D02*
X151452381Y-23454819D01*
X151452381Y-23454819D02*
X151690476Y-23454819D01*
X151690476Y-23454819D02*
X151833333Y-23502438D01*
X152261905Y-24454819D02*
X152261905Y-23454819D01*
X152261905Y-23454819D02*
X152642857Y-23454819D01*
X152642857Y-23454819D02*
X152738095Y-23502438D01*
X152738095Y-23502438D02*
X152785714Y-23550057D01*
X152785714Y-23550057D02*
X152833333Y-23645295D01*
X152833333Y-23645295D02*
X152833333Y-23788152D01*
X152833333Y-23788152D02*
X152785714Y-23883390D01*
X152785714Y-23883390D02*
X152738095Y-23931009D01*
X152738095Y-23931009D02*
X152642857Y-23978628D01*
X152642857Y-23978628D02*
X152261905Y-23978628D01*
X153261905Y-24454819D02*
X153261905Y-23454819D01*
X154452381Y-24169104D02*
X154928571Y-24169104D01*
X154357143Y-24454819D02*
X154690476Y-23454819D01*
X154690476Y-23454819D02*
X155023809Y-24454819D01*
X149047619Y-44454819D02*
X149047619Y-43788152D01*
X149047619Y-43454819D02*
X149000000Y-43502438D01*
X149000000Y-43502438D02*
X149047619Y-43550057D01*
X149047619Y-43550057D02*
X149095238Y-43502438D01*
X149095238Y-43502438D02*
X149047619Y-43454819D01*
X149047619Y-43454819D02*
X149047619Y-43550057D01*
X149476190Y-44407200D02*
X149571428Y-44454819D01*
X149571428Y-44454819D02*
X149761904Y-44454819D01*
X149761904Y-44454819D02*
X149857142Y-44407200D01*
X149857142Y-44407200D02*
X149904761Y-44311961D01*
X149904761Y-44311961D02*
X149904761Y-44264342D01*
X149904761Y-44264342D02*
X149857142Y-44169104D01*
X149857142Y-44169104D02*
X149761904Y-44121485D01*
X149761904Y-44121485D02*
X149619047Y-44121485D01*
X149619047Y-44121485D02*
X149523809Y-44073866D01*
X149523809Y-44073866D02*
X149476190Y-43978628D01*
X149476190Y-43978628D02*
X149476190Y-43931009D01*
X149476190Y-43931009D02*
X149523809Y-43835771D01*
X149523809Y-43835771D02*
X149619047Y-43788152D01*
X149619047Y-43788152D02*
X149761904Y-43788152D01*
X149761904Y-43788152D02*
X149857142Y-43835771D01*
X150476190Y-44454819D02*
X150380952Y-44407200D01*
X150380952Y-44407200D02*
X150333333Y-44359580D01*
X150333333Y-44359580D02*
X150285714Y-44264342D01*
X150285714Y-44264342D02*
X150285714Y-43978628D01*
X150285714Y-43978628D02*
X150333333Y-43883390D01*
X150333333Y-43883390D02*
X150380952Y-43835771D01*
X150380952Y-43835771D02*
X150476190Y-43788152D01*
X150476190Y-43788152D02*
X150619047Y-43788152D01*
X150619047Y-43788152D02*
X150714285Y-43835771D01*
X150714285Y-43835771D02*
X150761904Y-43883390D01*
X150761904Y-43883390D02*
X150809523Y-43978628D01*
X150809523Y-43978628D02*
X150809523Y-44264342D01*
X150809523Y-44264342D02*
X150761904Y-44359580D01*
X150761904Y-44359580D02*
X150714285Y-44407200D01*
X150714285Y-44407200D02*
X150619047Y-44454819D01*
X150619047Y-44454819D02*
X150476190Y-44454819D01*
X151190476Y-44407200D02*
X151333333Y-44454819D01*
X151333333Y-44454819D02*
X151571428Y-44454819D01*
X151571428Y-44454819D02*
X151666666Y-44407200D01*
X151666666Y-44407200D02*
X151714285Y-44359580D01*
X151714285Y-44359580D02*
X151761904Y-44264342D01*
X151761904Y-44264342D02*
X151761904Y-44169104D01*
X151761904Y-44169104D02*
X151714285Y-44073866D01*
X151714285Y-44073866D02*
X151666666Y-44026247D01*
X151666666Y-44026247D02*
X151571428Y-43978628D01*
X151571428Y-43978628D02*
X151380952Y-43931009D01*
X151380952Y-43931009D02*
X151285714Y-43883390D01*
X151285714Y-43883390D02*
X151238095Y-43835771D01*
X151238095Y-43835771D02*
X151190476Y-43740533D01*
X151190476Y-43740533D02*
X151190476Y-43645295D01*
X151190476Y-43645295D02*
X151238095Y-43550057D01*
X151238095Y-43550057D02*
X151285714Y-43502438D01*
X151285714Y-43502438D02*
X151380952Y-43454819D01*
X151380952Y-43454819D02*
X151619047Y-43454819D01*
X151619047Y-43454819D02*
X151761904Y-43502438D01*
X152190476Y-44454819D02*
X152190476Y-43454819D01*
X152190476Y-43454819D02*
X152571428Y-43454819D01*
X152571428Y-43454819D02*
X152666666Y-43502438D01*
X152666666Y-43502438D02*
X152714285Y-43550057D01*
X152714285Y-43550057D02*
X152761904Y-43645295D01*
X152761904Y-43645295D02*
X152761904Y-43788152D01*
X152761904Y-43788152D02*
X152714285Y-43883390D01*
X152714285Y-43883390D02*
X152666666Y-43931009D01*
X152666666Y-43931009D02*
X152571428Y-43978628D01*
X152571428Y-43978628D02*
X152190476Y-43978628D01*
X153190476Y-44454819D02*
X153190476Y-43454819D01*
X154761904Y-43931009D02*
X154904761Y-43978628D01*
X154904761Y-43978628D02*
X154952380Y-44026247D01*
X154952380Y-44026247D02*
X154999999Y-44121485D01*
X154999999Y-44121485D02*
X154999999Y-44264342D01*
X154999999Y-44264342D02*
X154952380Y-44359580D01*
X154952380Y-44359580D02*
X154904761Y-44407200D01*
X154904761Y-44407200D02*
X154809523Y-44454819D01*
X154809523Y-44454819D02*
X154428571Y-44454819D01*
X154428571Y-44454819D02*
X154428571Y-43454819D01*
X154428571Y-43454819D02*
X154761904Y-43454819D01*
X154761904Y-43454819D02*
X154857142Y-43502438D01*
X154857142Y-43502438D02*
X154904761Y-43550057D01*
X154904761Y-43550057D02*
X154952380Y-43645295D01*
X154952380Y-43645295D02*
X154952380Y-43740533D01*
X154952380Y-43740533D02*
X154904761Y-43835771D01*
X154904761Y-43835771D02*
X154857142Y-43883390D01*
X154857142Y-43883390D02*
X154761904Y-43931009D01*
X154761904Y-43931009D02*
X154428571Y-43931009D01*
X20359580Y-54309524D02*
X20407200Y-54357143D01*
X20407200Y-54357143D02*
X20454819Y-54500000D01*
X20454819Y-54500000D02*
X20454819Y-54595238D01*
X20454819Y-54595238D02*
X20407200Y-54738095D01*
X20407200Y-54738095D02*
X20311961Y-54833333D01*
X20311961Y-54833333D02*
X20216723Y-54880952D01*
X20216723Y-54880952D02*
X20026247Y-54928571D01*
X20026247Y-54928571D02*
X19883390Y-54928571D01*
X19883390Y-54928571D02*
X19692914Y-54880952D01*
X19692914Y-54880952D02*
X19597676Y-54833333D01*
X19597676Y-54833333D02*
X19502438Y-54738095D01*
X19502438Y-54738095D02*
X19454819Y-54595238D01*
X19454819Y-54595238D02*
X19454819Y-54500000D01*
X19454819Y-54500000D02*
X19502438Y-54357143D01*
X19502438Y-54357143D02*
X19550057Y-54309524D01*
X20169104Y-53928571D02*
X20169104Y-53452381D01*
X20454819Y-54023809D02*
X19454819Y-53690476D01*
X19454819Y-53690476D02*
X20454819Y-53357143D01*
X20454819Y-53023809D02*
X19454819Y-53023809D01*
X19454819Y-53023809D02*
X20454819Y-52452381D01*
X20454819Y-52452381D02*
X19454819Y-52452381D01*
X20454819Y-51214285D02*
X19454819Y-51214285D01*
X19931009Y-51214285D02*
X19931009Y-50642857D01*
X20454819Y-50642857D02*
X19454819Y-50642857D01*
X20169104Y-50214285D02*
X20169104Y-49738095D01*
X20454819Y-50309523D02*
X19454819Y-49976190D01*
X19454819Y-49976190D02*
X20454819Y-49642857D01*
X20454819Y-48738095D02*
X19978628Y-49071428D01*
X20454819Y-49309523D02*
X19454819Y-49309523D01*
X19454819Y-49309523D02*
X19454819Y-48928571D01*
X19454819Y-48928571D02*
X19502438Y-48833333D01*
X19502438Y-48833333D02*
X19550057Y-48785714D01*
X19550057Y-48785714D02*
X19645295Y-48738095D01*
X19645295Y-48738095D02*
X19788152Y-48738095D01*
X19788152Y-48738095D02*
X19883390Y-48785714D01*
X19883390Y-48785714D02*
X19931009Y-48833333D01*
X19931009Y-48833333D02*
X19978628Y-48928571D01*
X19978628Y-48928571D02*
X19978628Y-49309523D01*
X20454819Y-48309523D02*
X19454819Y-48309523D01*
X19454819Y-48309523D02*
X20454819Y-47738095D01*
X20454819Y-47738095D02*
X19454819Y-47738095D01*
X19931009Y-47261904D02*
X19931009Y-46928571D01*
X20454819Y-46785714D02*
X20454819Y-47261904D01*
X20454819Y-47261904D02*
X19454819Y-47261904D01*
X19454819Y-47261904D02*
X19454819Y-46785714D01*
X20407200Y-46404761D02*
X20454819Y-46261904D01*
X20454819Y-46261904D02*
X20454819Y-46023809D01*
X20454819Y-46023809D02*
X20407200Y-45928571D01*
X20407200Y-45928571D02*
X20359580Y-45880952D01*
X20359580Y-45880952D02*
X20264342Y-45833333D01*
X20264342Y-45833333D02*
X20169104Y-45833333D01*
X20169104Y-45833333D02*
X20073866Y-45880952D01*
X20073866Y-45880952D02*
X20026247Y-45928571D01*
X20026247Y-45928571D02*
X19978628Y-46023809D01*
X19978628Y-46023809D02*
X19931009Y-46214285D01*
X19931009Y-46214285D02*
X19883390Y-46309523D01*
X19883390Y-46309523D02*
X19835771Y-46357142D01*
X19835771Y-46357142D02*
X19740533Y-46404761D01*
X19740533Y-46404761D02*
X19645295Y-46404761D01*
X19645295Y-46404761D02*
X19550057Y-46357142D01*
X19550057Y-46357142D02*
X19502438Y-46309523D01*
X19502438Y-46309523D02*
X19454819Y-46214285D01*
X19454819Y-46214285D02*
X19454819Y-45976190D01*
X19454819Y-45976190D02*
X19502438Y-45833333D01*
X20407200Y-45452380D02*
X20454819Y-45309523D01*
X20454819Y-45309523D02*
X20454819Y-45071428D01*
X20454819Y-45071428D02*
X20407200Y-44976190D01*
X20407200Y-44976190D02*
X20359580Y-44928571D01*
X20359580Y-44928571D02*
X20264342Y-44880952D01*
X20264342Y-44880952D02*
X20169104Y-44880952D01*
X20169104Y-44880952D02*
X20073866Y-44928571D01*
X20073866Y-44928571D02*
X20026247Y-44976190D01*
X20026247Y-44976190D02*
X19978628Y-45071428D01*
X19978628Y-45071428D02*
X19931009Y-45261904D01*
X19931009Y-45261904D02*
X19883390Y-45357142D01*
X19883390Y-45357142D02*
X19835771Y-45404761D01*
X19835771Y-45404761D02*
X19740533Y-45452380D01*
X19740533Y-45452380D02*
X19645295Y-45452380D01*
X19645295Y-45452380D02*
X19550057Y-45404761D01*
X19550057Y-45404761D02*
X19502438Y-45357142D01*
X19502438Y-45357142D02*
X19454819Y-45261904D01*
X19454819Y-45261904D02*
X19454819Y-45023809D01*
X19454819Y-45023809D02*
X19502438Y-44880952D01*
X20835771Y-43404761D02*
X20788152Y-43452380D01*
X20788152Y-43452380D02*
X20645295Y-43547618D01*
X20645295Y-43547618D02*
X20550057Y-43595237D01*
X20550057Y-43595237D02*
X20407200Y-43642856D01*
X20407200Y-43642856D02*
X20169104Y-43690475D01*
X20169104Y-43690475D02*
X19978628Y-43690475D01*
X19978628Y-43690475D02*
X19740533Y-43642856D01*
X19740533Y-43642856D02*
X19597676Y-43595237D01*
X19597676Y-43595237D02*
X19502438Y-43547618D01*
X19502438Y-43547618D02*
X19359580Y-43452380D01*
X19359580Y-43452380D02*
X19311961Y-43404761D01*
X19454819Y-42738094D02*
X20169104Y-42738094D01*
X20169104Y-42738094D02*
X20311961Y-42785713D01*
X20311961Y-42785713D02*
X20407200Y-42880951D01*
X20407200Y-42880951D02*
X20454819Y-43023808D01*
X20454819Y-43023808D02*
X20454819Y-43119046D01*
X19550057Y-42309522D02*
X19502438Y-42261903D01*
X19502438Y-42261903D02*
X19454819Y-42166665D01*
X19454819Y-42166665D02*
X19454819Y-41928570D01*
X19454819Y-41928570D02*
X19502438Y-41833332D01*
X19502438Y-41833332D02*
X19550057Y-41785713D01*
X19550057Y-41785713D02*
X19645295Y-41738094D01*
X19645295Y-41738094D02*
X19740533Y-41738094D01*
X19740533Y-41738094D02*
X19883390Y-41785713D01*
X19883390Y-41785713D02*
X20454819Y-42357141D01*
X20454819Y-42357141D02*
X20454819Y-41738094D01*
X20835771Y-41404760D02*
X20788152Y-41357141D01*
X20788152Y-41357141D02*
X20645295Y-41261903D01*
X20645295Y-41261903D02*
X20550057Y-41214284D01*
X20550057Y-41214284D02*
X20407200Y-41166665D01*
X20407200Y-41166665D02*
X20169104Y-41119046D01*
X20169104Y-41119046D02*
X19978628Y-41119046D01*
X19978628Y-41119046D02*
X19740533Y-41166665D01*
X19740533Y-41166665D02*
X19597676Y-41214284D01*
X19597676Y-41214284D02*
X19502438Y-41261903D01*
X19502438Y-41261903D02*
X19359580Y-41357141D01*
X19359580Y-41357141D02*
X19311961Y-41404760D01*
X66257142Y-22490200D02*
X66428571Y-22547342D01*
X66428571Y-22547342D02*
X66714285Y-22547342D01*
X66714285Y-22547342D02*
X66828571Y-22490200D01*
X66828571Y-22490200D02*
X66885713Y-22433057D01*
X66885713Y-22433057D02*
X66942856Y-22318771D01*
X66942856Y-22318771D02*
X66942856Y-22204485D01*
X66942856Y-22204485D02*
X66885713Y-22090200D01*
X66885713Y-22090200D02*
X66828571Y-22033057D01*
X66828571Y-22033057D02*
X66714285Y-21975914D01*
X66714285Y-21975914D02*
X66485713Y-21918771D01*
X66485713Y-21918771D02*
X66371428Y-21861628D01*
X66371428Y-21861628D02*
X66314285Y-21804485D01*
X66314285Y-21804485D02*
X66257142Y-21690200D01*
X66257142Y-21690200D02*
X66257142Y-21575914D01*
X66257142Y-21575914D02*
X66314285Y-21461628D01*
X66314285Y-21461628D02*
X66371428Y-21404485D01*
X66371428Y-21404485D02*
X66485713Y-21347342D01*
X66485713Y-21347342D02*
X66771428Y-21347342D01*
X66771428Y-21347342D02*
X66942856Y-21404485D01*
X67285713Y-21347342D02*
X67971428Y-21347342D01*
X67628570Y-22547342D02*
X67628570Y-21347342D01*
X68371428Y-22547342D02*
X68371428Y-21347342D01*
X68371428Y-21347342D02*
X68771428Y-22204485D01*
X68771428Y-22204485D02*
X69171428Y-21347342D01*
X69171428Y-21347342D02*
X69171428Y-22547342D01*
X69628571Y-21347342D02*
X70371428Y-21347342D01*
X70371428Y-21347342D02*
X69971428Y-21804485D01*
X69971428Y-21804485D02*
X70142857Y-21804485D01*
X70142857Y-21804485D02*
X70257143Y-21861628D01*
X70257143Y-21861628D02*
X70314285Y-21918771D01*
X70314285Y-21918771D02*
X70371428Y-22033057D01*
X70371428Y-22033057D02*
X70371428Y-22318771D01*
X70371428Y-22318771D02*
X70314285Y-22433057D01*
X70314285Y-22433057D02*
X70257143Y-22490200D01*
X70257143Y-22490200D02*
X70142857Y-22547342D01*
X70142857Y-22547342D02*
X69800000Y-22547342D01*
X69800000Y-22547342D02*
X69685714Y-22490200D01*
X69685714Y-22490200D02*
X69628571Y-22433057D01*
X70828571Y-21461628D02*
X70885714Y-21404485D01*
X70885714Y-21404485D02*
X71000000Y-21347342D01*
X71000000Y-21347342D02*
X71285714Y-21347342D01*
X71285714Y-21347342D02*
X71400000Y-21404485D01*
X71400000Y-21404485D02*
X71457142Y-21461628D01*
X71457142Y-21461628D02*
X71514285Y-21575914D01*
X71514285Y-21575914D02*
X71514285Y-21690200D01*
X71514285Y-21690200D02*
X71457142Y-21861628D01*
X71457142Y-21861628D02*
X70771428Y-22547342D01*
X70771428Y-22547342D02*
X71514285Y-22547342D01*
X72657142Y-21404485D02*
X72542857Y-21347342D01*
X72542857Y-21347342D02*
X72371428Y-21347342D01*
X72371428Y-21347342D02*
X72199999Y-21404485D01*
X72199999Y-21404485D02*
X72085714Y-21518771D01*
X72085714Y-21518771D02*
X72028571Y-21633057D01*
X72028571Y-21633057D02*
X71971428Y-21861628D01*
X71971428Y-21861628D02*
X71971428Y-22033057D01*
X71971428Y-22033057D02*
X72028571Y-22261628D01*
X72028571Y-22261628D02*
X72085714Y-22375914D01*
X72085714Y-22375914D02*
X72199999Y-22490200D01*
X72199999Y-22490200D02*
X72371428Y-22547342D01*
X72371428Y-22547342D02*
X72485714Y-22547342D01*
X72485714Y-22547342D02*
X72657142Y-22490200D01*
X72657142Y-22490200D02*
X72714285Y-22433057D01*
X72714285Y-22433057D02*
X72714285Y-22033057D01*
X72714285Y-22033057D02*
X72485714Y-22033057D01*
X73742857Y-21747342D02*
X73742857Y-22547342D01*
X73457142Y-21290200D02*
X73171428Y-22147342D01*
X73171428Y-22147342D02*
X73914285Y-22147342D01*
X74257142Y-21347342D02*
X75057142Y-21347342D01*
X75057142Y-21347342D02*
X74542856Y-22547342D01*
X76028571Y-21747342D02*
X76028571Y-22547342D01*
X75742856Y-21290200D02*
X75457142Y-22147342D01*
X75457142Y-22147342D02*
X76199999Y-22147342D01*
X77571428Y-22090200D02*
X78485714Y-22090200D01*
X78028571Y-22547342D02*
X78028571Y-21633057D01*
X79799999Y-21347342D02*
X80485714Y-21347342D01*
X80142856Y-22547342D02*
X80142856Y-21347342D01*
X80885714Y-22547342D02*
X80885714Y-21747342D01*
X80885714Y-21975914D02*
X80942857Y-21861628D01*
X80942857Y-21861628D02*
X81000000Y-21804485D01*
X81000000Y-21804485D02*
X81114285Y-21747342D01*
X81114285Y-21747342D02*
X81228571Y-21747342D01*
X81628571Y-22547342D02*
X81628571Y-21747342D01*
X81628571Y-21347342D02*
X81571428Y-21404485D01*
X81571428Y-21404485D02*
X81628571Y-21461628D01*
X81628571Y-21461628D02*
X81685714Y-21404485D01*
X81685714Y-21404485D02*
X81628571Y-21347342D01*
X81628571Y-21347342D02*
X81628571Y-21461628D01*
X82200000Y-21747342D02*
X82200000Y-22947342D01*
X82200000Y-21804485D02*
X82314286Y-21747342D01*
X82314286Y-21747342D02*
X82542857Y-21747342D01*
X82542857Y-21747342D02*
X82657143Y-21804485D01*
X82657143Y-21804485D02*
X82714286Y-21861628D01*
X82714286Y-21861628D02*
X82771428Y-21975914D01*
X82771428Y-21975914D02*
X82771428Y-22318771D01*
X82771428Y-22318771D02*
X82714286Y-22433057D01*
X82714286Y-22433057D02*
X82657143Y-22490200D01*
X82657143Y-22490200D02*
X82542857Y-22547342D01*
X82542857Y-22547342D02*
X82314286Y-22547342D01*
X82314286Y-22547342D02*
X82200000Y-22490200D01*
X83457142Y-22547342D02*
X83342857Y-22490200D01*
X83342857Y-22490200D02*
X83285714Y-22375914D01*
X83285714Y-22375914D02*
X83285714Y-21347342D01*
X84371428Y-22490200D02*
X84257142Y-22547342D01*
X84257142Y-22547342D02*
X84028571Y-22547342D01*
X84028571Y-22547342D02*
X83914285Y-22490200D01*
X83914285Y-22490200D02*
X83857142Y-22375914D01*
X83857142Y-22375914D02*
X83857142Y-21918771D01*
X83857142Y-21918771D02*
X83914285Y-21804485D01*
X83914285Y-21804485D02*
X84028571Y-21747342D01*
X84028571Y-21747342D02*
X84257142Y-21747342D01*
X84257142Y-21747342D02*
X84371428Y-21804485D01*
X84371428Y-21804485D02*
X84428571Y-21918771D01*
X84428571Y-21918771D02*
X84428571Y-22033057D01*
X84428571Y-22033057D02*
X83857142Y-22147342D01*
X86542856Y-22433057D02*
X86485713Y-22490200D01*
X86485713Y-22490200D02*
X86314285Y-22547342D01*
X86314285Y-22547342D02*
X86199999Y-22547342D01*
X86199999Y-22547342D02*
X86028570Y-22490200D01*
X86028570Y-22490200D02*
X85914285Y-22375914D01*
X85914285Y-22375914D02*
X85857142Y-22261628D01*
X85857142Y-22261628D02*
X85799999Y-22033057D01*
X85799999Y-22033057D02*
X85799999Y-21861628D01*
X85799999Y-21861628D02*
X85857142Y-21633057D01*
X85857142Y-21633057D02*
X85914285Y-21518771D01*
X85914285Y-21518771D02*
X86028570Y-21404485D01*
X86028570Y-21404485D02*
X86199999Y-21347342D01*
X86199999Y-21347342D02*
X86314285Y-21347342D01*
X86314285Y-21347342D02*
X86485713Y-21404485D01*
X86485713Y-21404485D02*
X86542856Y-21461628D01*
X86999999Y-22204485D02*
X87571428Y-22204485D01*
X86885713Y-22547342D02*
X87285713Y-21347342D01*
X87285713Y-21347342D02*
X87685713Y-22547342D01*
X88085713Y-22547342D02*
X88085713Y-21347342D01*
X88085713Y-21347342D02*
X88771427Y-22547342D01*
X88771427Y-22547342D02*
X88771427Y-21347342D01*
X90257142Y-22090200D02*
X91171428Y-22090200D01*
X90714285Y-22547342D02*
X90714285Y-21633057D01*
X92657142Y-22547342D02*
X92657142Y-21347342D01*
X93057142Y-21347342D02*
X93457142Y-22547342D01*
X93457142Y-22547342D02*
X93857142Y-21347342D01*
X94085713Y-21347342D02*
X94771428Y-21347342D01*
X94428570Y-22547342D02*
X94428570Y-21347342D01*
X95171428Y-22090200D02*
X96085714Y-22090200D01*
X96599999Y-22490200D02*
X96771428Y-22547342D01*
X96771428Y-22547342D02*
X97057142Y-22547342D01*
X97057142Y-22547342D02*
X97171428Y-22490200D01*
X97171428Y-22490200D02*
X97228570Y-22433057D01*
X97228570Y-22433057D02*
X97285713Y-22318771D01*
X97285713Y-22318771D02*
X97285713Y-22204485D01*
X97285713Y-22204485D02*
X97228570Y-22090200D01*
X97228570Y-22090200D02*
X97171428Y-22033057D01*
X97171428Y-22033057D02*
X97057142Y-21975914D01*
X97057142Y-21975914D02*
X96828570Y-21918771D01*
X96828570Y-21918771D02*
X96714285Y-21861628D01*
X96714285Y-21861628D02*
X96657142Y-21804485D01*
X96657142Y-21804485D02*
X96599999Y-21690200D01*
X96599999Y-21690200D02*
X96599999Y-21575914D01*
X96599999Y-21575914D02*
X96657142Y-21461628D01*
X96657142Y-21461628D02*
X96714285Y-21404485D01*
X96714285Y-21404485D02*
X96828570Y-21347342D01*
X96828570Y-21347342D02*
X97114285Y-21347342D01*
X97114285Y-21347342D02*
X97285713Y-21404485D01*
X98714285Y-22090200D02*
X99628571Y-22090200D01*
X99171428Y-22547342D02*
X99171428Y-21633057D01*
X101114285Y-22547342D02*
X101114285Y-21347342D01*
X101685714Y-22547342D02*
X101685714Y-21347342D01*
X101685714Y-21347342D02*
X102085714Y-22204485D01*
X102085714Y-22204485D02*
X102485714Y-21347342D01*
X102485714Y-21347342D02*
X102485714Y-22547342D01*
X103057143Y-22547342D02*
X103057143Y-21347342D01*
X103057143Y-21347342D02*
X103342857Y-21347342D01*
X103342857Y-21347342D02*
X103514286Y-21404485D01*
X103514286Y-21404485D02*
X103628571Y-21518771D01*
X103628571Y-21518771D02*
X103685714Y-21633057D01*
X103685714Y-21633057D02*
X103742857Y-21861628D01*
X103742857Y-21861628D02*
X103742857Y-22033057D01*
X103742857Y-22033057D02*
X103685714Y-22261628D01*
X103685714Y-22261628D02*
X103628571Y-22375914D01*
X103628571Y-22375914D02*
X103514286Y-22490200D01*
X103514286Y-22490200D02*
X103342857Y-22547342D01*
X103342857Y-22547342D02*
X103057143Y-22547342D01*
X61457142Y-17132390D02*
X61761904Y-17132390D01*
X61761904Y-17132390D02*
X61914285Y-17208580D01*
X61914285Y-17208580D02*
X62066666Y-17360961D01*
X62066666Y-17360961D02*
X62142856Y-17665723D01*
X62142856Y-17665723D02*
X62142856Y-18199057D01*
X62142856Y-18199057D02*
X62066666Y-18503819D01*
X62066666Y-18503819D02*
X61914285Y-18656200D01*
X61914285Y-18656200D02*
X61761904Y-18732390D01*
X61761904Y-18732390D02*
X61457142Y-18732390D01*
X61457142Y-18732390D02*
X61304761Y-18656200D01*
X61304761Y-18656200D02*
X61152380Y-18503819D01*
X61152380Y-18503819D02*
X61076189Y-18199057D01*
X61076189Y-18199057D02*
X61076189Y-17665723D01*
X61076189Y-17665723D02*
X61152380Y-17360961D01*
X61152380Y-17360961D02*
X61304761Y-17208580D01*
X61304761Y-17208580D02*
X61457142Y-17132390D01*
X62828570Y-17665723D02*
X62828570Y-19265723D01*
X62828570Y-17741914D02*
X62980951Y-17665723D01*
X62980951Y-17665723D02*
X63285713Y-17665723D01*
X63285713Y-17665723D02*
X63438094Y-17741914D01*
X63438094Y-17741914D02*
X63514284Y-17818104D01*
X63514284Y-17818104D02*
X63590475Y-17970485D01*
X63590475Y-17970485D02*
X63590475Y-18427628D01*
X63590475Y-18427628D02*
X63514284Y-18580009D01*
X63514284Y-18580009D02*
X63438094Y-18656200D01*
X63438094Y-18656200D02*
X63285713Y-18732390D01*
X63285713Y-18732390D02*
X62980951Y-18732390D01*
X62980951Y-18732390D02*
X62828570Y-18656200D01*
X64885713Y-18656200D02*
X64733332Y-18732390D01*
X64733332Y-18732390D02*
X64428570Y-18732390D01*
X64428570Y-18732390D02*
X64276189Y-18656200D01*
X64276189Y-18656200D02*
X64199998Y-18503819D01*
X64199998Y-18503819D02*
X64199998Y-17894295D01*
X64199998Y-17894295D02*
X64276189Y-17741914D01*
X64276189Y-17741914D02*
X64428570Y-17665723D01*
X64428570Y-17665723D02*
X64733332Y-17665723D01*
X64733332Y-17665723D02*
X64885713Y-17741914D01*
X64885713Y-17741914D02*
X64961903Y-17894295D01*
X64961903Y-17894295D02*
X64961903Y-18046676D01*
X64961903Y-18046676D02*
X64199998Y-18199057D01*
X65647618Y-17665723D02*
X65647618Y-18732390D01*
X65647618Y-17818104D02*
X65723808Y-17741914D01*
X65723808Y-17741914D02*
X65876189Y-17665723D01*
X65876189Y-17665723D02*
X66104761Y-17665723D01*
X66104761Y-17665723D02*
X66257142Y-17741914D01*
X66257142Y-17741914D02*
X66333332Y-17894295D01*
X66333332Y-17894295D02*
X66333332Y-18732390D01*
X67095237Y-17894295D02*
X67628570Y-17894295D01*
X67857142Y-18732390D02*
X67095237Y-18732390D01*
X67095237Y-18732390D02*
X67095237Y-17132390D01*
X67095237Y-17132390D02*
X67857142Y-17132390D01*
X68314284Y-17132390D02*
X68847618Y-18732390D01*
X68847618Y-18732390D02*
X69380951Y-17132390D01*
X69914285Y-18122866D02*
X71133333Y-18122866D01*
X72428570Y-17894295D02*
X72657142Y-17970485D01*
X72657142Y-17970485D02*
X72733332Y-18046676D01*
X72733332Y-18046676D02*
X72809523Y-18199057D01*
X72809523Y-18199057D02*
X72809523Y-18427628D01*
X72809523Y-18427628D02*
X72733332Y-18580009D01*
X72733332Y-18580009D02*
X72657142Y-18656200D01*
X72657142Y-18656200D02*
X72504761Y-18732390D01*
X72504761Y-18732390D02*
X71895237Y-18732390D01*
X71895237Y-18732390D02*
X71895237Y-17132390D01*
X71895237Y-17132390D02*
X72428570Y-17132390D01*
X72428570Y-17132390D02*
X72580951Y-17208580D01*
X72580951Y-17208580D02*
X72657142Y-17284771D01*
X72657142Y-17284771D02*
X72733332Y-17437152D01*
X72733332Y-17437152D02*
X72733332Y-17589533D01*
X72733332Y-17589533D02*
X72657142Y-17741914D01*
X72657142Y-17741914D02*
X72580951Y-17818104D01*
X72580951Y-17818104D02*
X72428570Y-17894295D01*
X72428570Y-17894295D02*
X71895237Y-17894295D01*
X73495237Y-18732390D02*
X73495237Y-17132390D01*
X73495237Y-17132390D02*
X74028570Y-18275247D01*
X74028570Y-18275247D02*
X74561904Y-17132390D01*
X74561904Y-17132390D02*
X74561904Y-18732390D01*
X75247617Y-18656200D02*
X75476189Y-18732390D01*
X75476189Y-18732390D02*
X75857141Y-18732390D01*
X75857141Y-18732390D02*
X76009522Y-18656200D01*
X76009522Y-18656200D02*
X76085713Y-18580009D01*
X76085713Y-18580009D02*
X76161903Y-18427628D01*
X76161903Y-18427628D02*
X76161903Y-18275247D01*
X76161903Y-18275247D02*
X76085713Y-18122866D01*
X76085713Y-18122866D02*
X76009522Y-18046676D01*
X76009522Y-18046676D02*
X75857141Y-17970485D01*
X75857141Y-17970485D02*
X75552379Y-17894295D01*
X75552379Y-17894295D02*
X75399998Y-17818104D01*
X75399998Y-17818104D02*
X75323808Y-17741914D01*
X75323808Y-17741914D02*
X75247617Y-17589533D01*
X75247617Y-17589533D02*
X75247617Y-17437152D01*
X75247617Y-17437152D02*
X75323808Y-17284771D01*
X75323808Y-17284771D02*
X75399998Y-17208580D01*
X75399998Y-17208580D02*
X75552379Y-17132390D01*
X75552379Y-17132390D02*
X75933332Y-17132390D01*
X75933332Y-17132390D02*
X76161903Y-17208580D01*
X78066666Y-18732390D02*
X78066666Y-17132390D01*
X78066666Y-17132390D02*
X78599999Y-18275247D01*
X78599999Y-18275247D02*
X79133333Y-17132390D01*
X79133333Y-17132390D02*
X79133333Y-18732390D01*
X79819046Y-18275247D02*
X80580951Y-18275247D01*
X79666665Y-18732390D02*
X80199999Y-17132390D01*
X80199999Y-17132390D02*
X80733332Y-18732390D01*
X81190475Y-18656200D02*
X81419047Y-18732390D01*
X81419047Y-18732390D02*
X81799999Y-18732390D01*
X81799999Y-18732390D02*
X81952380Y-18656200D01*
X81952380Y-18656200D02*
X82028571Y-18580009D01*
X82028571Y-18580009D02*
X82104761Y-18427628D01*
X82104761Y-18427628D02*
X82104761Y-18275247D01*
X82104761Y-18275247D02*
X82028571Y-18122866D01*
X82028571Y-18122866D02*
X81952380Y-18046676D01*
X81952380Y-18046676D02*
X81799999Y-17970485D01*
X81799999Y-17970485D02*
X81495237Y-17894295D01*
X81495237Y-17894295D02*
X81342856Y-17818104D01*
X81342856Y-17818104D02*
X81266666Y-17741914D01*
X81266666Y-17741914D02*
X81190475Y-17589533D01*
X81190475Y-17589533D02*
X81190475Y-17437152D01*
X81190475Y-17437152D02*
X81266666Y-17284771D01*
X81266666Y-17284771D02*
X81342856Y-17208580D01*
X81342856Y-17208580D02*
X81495237Y-17132390D01*
X81495237Y-17132390D02*
X81876190Y-17132390D01*
X81876190Y-17132390D02*
X82104761Y-17208580D01*
X82561904Y-17132390D02*
X83476190Y-17132390D01*
X83019047Y-18732390D02*
X83019047Y-17132390D01*
X84009524Y-17894295D02*
X84542857Y-17894295D01*
X84771429Y-18732390D02*
X84009524Y-18732390D01*
X84009524Y-18732390D02*
X84009524Y-17132390D01*
X84009524Y-17132390D02*
X84771429Y-17132390D01*
X86371429Y-18732390D02*
X85838095Y-17970485D01*
X85457143Y-18732390D02*
X85457143Y-17132390D01*
X85457143Y-17132390D02*
X86066667Y-17132390D01*
X86066667Y-17132390D02*
X86219048Y-17208580D01*
X86219048Y-17208580D02*
X86295238Y-17284771D01*
X86295238Y-17284771D02*
X86371429Y-17437152D01*
X86371429Y-17437152D02*
X86371429Y-17665723D01*
X86371429Y-17665723D02*
X86295238Y-17818104D01*
X86295238Y-17818104D02*
X86219048Y-17894295D01*
X86219048Y-17894295D02*
X86066667Y-17970485D01*
X86066667Y-17970485D02*
X85457143Y-17970485D01*
X89190477Y-18580009D02*
X89114286Y-18656200D01*
X89114286Y-18656200D02*
X88885715Y-18732390D01*
X88885715Y-18732390D02*
X88733334Y-18732390D01*
X88733334Y-18732390D02*
X88504762Y-18656200D01*
X88504762Y-18656200D02*
X88352381Y-18503819D01*
X88352381Y-18503819D02*
X88276191Y-18351438D01*
X88276191Y-18351438D02*
X88200000Y-18046676D01*
X88200000Y-18046676D02*
X88200000Y-17818104D01*
X88200000Y-17818104D02*
X88276191Y-17513342D01*
X88276191Y-17513342D02*
X88352381Y-17360961D01*
X88352381Y-17360961D02*
X88504762Y-17208580D01*
X88504762Y-17208580D02*
X88733334Y-17132390D01*
X88733334Y-17132390D02*
X88885715Y-17132390D01*
X88885715Y-17132390D02*
X89114286Y-17208580D01*
X89114286Y-17208580D02*
X89190477Y-17284771D01*
X90180953Y-17132390D02*
X90485715Y-17132390D01*
X90485715Y-17132390D02*
X90638096Y-17208580D01*
X90638096Y-17208580D02*
X90790477Y-17360961D01*
X90790477Y-17360961D02*
X90866667Y-17665723D01*
X90866667Y-17665723D02*
X90866667Y-18199057D01*
X90866667Y-18199057D02*
X90790477Y-18503819D01*
X90790477Y-18503819D02*
X90638096Y-18656200D01*
X90638096Y-18656200D02*
X90485715Y-18732390D01*
X90485715Y-18732390D02*
X90180953Y-18732390D01*
X90180953Y-18732390D02*
X90028572Y-18656200D01*
X90028572Y-18656200D02*
X89876191Y-18503819D01*
X89876191Y-18503819D02*
X89800000Y-18199057D01*
X89800000Y-18199057D02*
X89800000Y-17665723D01*
X89800000Y-17665723D02*
X89876191Y-17360961D01*
X89876191Y-17360961D02*
X90028572Y-17208580D01*
X90028572Y-17208580D02*
X90180953Y-17132390D01*
X91552381Y-18732390D02*
X91552381Y-17132390D01*
X91552381Y-17132390D02*
X92466667Y-18732390D01*
X92466667Y-18732390D02*
X92466667Y-17132390D01*
X92999999Y-17132390D02*
X93914285Y-17132390D01*
X93457142Y-18732390D02*
X93457142Y-17132390D01*
X95361905Y-18732390D02*
X94828571Y-17970485D01*
X94447619Y-18732390D02*
X94447619Y-17132390D01*
X94447619Y-17132390D02*
X95057143Y-17132390D01*
X95057143Y-17132390D02*
X95209524Y-17208580D01*
X95209524Y-17208580D02*
X95285714Y-17284771D01*
X95285714Y-17284771D02*
X95361905Y-17437152D01*
X95361905Y-17437152D02*
X95361905Y-17665723D01*
X95361905Y-17665723D02*
X95285714Y-17818104D01*
X95285714Y-17818104D02*
X95209524Y-17894295D01*
X95209524Y-17894295D02*
X95057143Y-17970485D01*
X95057143Y-17970485D02*
X94447619Y-17970485D01*
X96352381Y-17132390D02*
X96657143Y-17132390D01*
X96657143Y-17132390D02*
X96809524Y-17208580D01*
X96809524Y-17208580D02*
X96961905Y-17360961D01*
X96961905Y-17360961D02*
X97038095Y-17665723D01*
X97038095Y-17665723D02*
X97038095Y-18199057D01*
X97038095Y-18199057D02*
X96961905Y-18503819D01*
X96961905Y-18503819D02*
X96809524Y-18656200D01*
X96809524Y-18656200D02*
X96657143Y-18732390D01*
X96657143Y-18732390D02*
X96352381Y-18732390D01*
X96352381Y-18732390D02*
X96200000Y-18656200D01*
X96200000Y-18656200D02*
X96047619Y-18503819D01*
X96047619Y-18503819D02*
X95971428Y-18199057D01*
X95971428Y-18199057D02*
X95971428Y-17665723D01*
X95971428Y-17665723D02*
X96047619Y-17360961D01*
X96047619Y-17360961D02*
X96200000Y-17208580D01*
X96200000Y-17208580D02*
X96352381Y-17132390D01*
X98485714Y-18732390D02*
X97723809Y-18732390D01*
X97723809Y-18732390D02*
X97723809Y-17132390D01*
X99780952Y-18732390D02*
X99019047Y-18732390D01*
X99019047Y-18732390D02*
X99019047Y-17132390D01*
X100314285Y-17894295D02*
X100847618Y-17894295D01*
X101076190Y-18732390D02*
X100314285Y-18732390D01*
X100314285Y-18732390D02*
X100314285Y-17132390D01*
X100314285Y-17132390D02*
X101076190Y-17132390D01*
X102676190Y-18732390D02*
X102142856Y-17970485D01*
X101761904Y-18732390D02*
X101761904Y-17132390D01*
X101761904Y-17132390D02*
X102371428Y-17132390D01*
X102371428Y-17132390D02*
X102523809Y-17208580D01*
X102523809Y-17208580D02*
X102599999Y-17284771D01*
X102599999Y-17284771D02*
X102676190Y-17437152D01*
X102676190Y-17437152D02*
X102676190Y-17665723D01*
X102676190Y-17665723D02*
X102599999Y-17818104D01*
X102599999Y-17818104D02*
X102523809Y-17894295D01*
X102523809Y-17894295D02*
X102371428Y-17970485D01*
X102371428Y-17970485D02*
X101761904Y-17970485D01*
X104428571Y-17665723D02*
X104809523Y-18732390D01*
X104809523Y-18732390D02*
X105190476Y-17665723D01*
X106638095Y-18732390D02*
X105723809Y-18732390D01*
X106180952Y-18732390D02*
X106180952Y-17132390D01*
X106180952Y-17132390D02*
X106028571Y-17360961D01*
X106028571Y-17360961D02*
X105876190Y-17513342D01*
X105876190Y-17513342D02*
X105723809Y-17589533D01*
X107323810Y-18580009D02*
X107400000Y-18656200D01*
X107400000Y-18656200D02*
X107323810Y-18732390D01*
X107323810Y-18732390D02*
X107247619Y-18656200D01*
X107247619Y-18656200D02*
X107323810Y-18580009D01*
X107323810Y-18580009D02*
X107323810Y-18732390D01*
X108390477Y-17132390D02*
X108542858Y-17132390D01*
X108542858Y-17132390D02*
X108695239Y-17208580D01*
X108695239Y-17208580D02*
X108771429Y-17284771D01*
X108771429Y-17284771D02*
X108847620Y-17437152D01*
X108847620Y-17437152D02*
X108923810Y-17741914D01*
X108923810Y-17741914D02*
X108923810Y-18122866D01*
X108923810Y-18122866D02*
X108847620Y-18427628D01*
X108847620Y-18427628D02*
X108771429Y-18580009D01*
X108771429Y-18580009D02*
X108695239Y-18656200D01*
X108695239Y-18656200D02*
X108542858Y-18732390D01*
X108542858Y-18732390D02*
X108390477Y-18732390D01*
X108390477Y-18732390D02*
X108238096Y-18656200D01*
X108238096Y-18656200D02*
X108161905Y-18580009D01*
X108161905Y-18580009D02*
X108085715Y-18427628D01*
X108085715Y-18427628D02*
X108009524Y-18122866D01*
X108009524Y-18122866D02*
X108009524Y-17741914D01*
X108009524Y-17741914D02*
X108085715Y-17437152D01*
X108085715Y-17437152D02*
X108161905Y-17284771D01*
X108161905Y-17284771D02*
X108238096Y-17208580D01*
X108238096Y-17208580D02*
X108390477Y-17132390D01*
X77833333Y-98624819D02*
X77500000Y-98148628D01*
X77261905Y-98624819D02*
X77261905Y-97624819D01*
X77261905Y-97624819D02*
X77642857Y-97624819D01*
X77642857Y-97624819D02*
X77738095Y-97672438D01*
X77738095Y-97672438D02*
X77785714Y-97720057D01*
X77785714Y-97720057D02*
X77833333Y-97815295D01*
X77833333Y-97815295D02*
X77833333Y-97958152D01*
X77833333Y-97958152D02*
X77785714Y-98053390D01*
X77785714Y-98053390D02*
X77738095Y-98101009D01*
X77738095Y-98101009D02*
X77642857Y-98148628D01*
X77642857Y-98148628D02*
X77261905Y-98148628D01*
X78690476Y-97958152D02*
X78690476Y-98624819D01*
X78452381Y-97577200D02*
X78214286Y-98291485D01*
X78214286Y-98291485D02*
X78833333Y-98291485D01*
X114261905Y-87954819D02*
X114261905Y-86954819D01*
X114261905Y-86954819D02*
X114500000Y-86954819D01*
X114500000Y-86954819D02*
X114642857Y-87002438D01*
X114642857Y-87002438D02*
X114738095Y-87097676D01*
X114738095Y-87097676D02*
X114785714Y-87192914D01*
X114785714Y-87192914D02*
X114833333Y-87383390D01*
X114833333Y-87383390D02*
X114833333Y-87526247D01*
X114833333Y-87526247D02*
X114785714Y-87716723D01*
X114785714Y-87716723D02*
X114738095Y-87811961D01*
X114738095Y-87811961D02*
X114642857Y-87907200D01*
X114642857Y-87907200D02*
X114500000Y-87954819D01*
X114500000Y-87954819D02*
X114261905Y-87954819D01*
X115166667Y-86954819D02*
X115785714Y-86954819D01*
X115785714Y-86954819D02*
X115452381Y-87335771D01*
X115452381Y-87335771D02*
X115595238Y-87335771D01*
X115595238Y-87335771D02*
X115690476Y-87383390D01*
X115690476Y-87383390D02*
X115738095Y-87431009D01*
X115738095Y-87431009D02*
X115785714Y-87526247D01*
X115785714Y-87526247D02*
X115785714Y-87764342D01*
X115785714Y-87764342D02*
X115738095Y-87859580D01*
X115738095Y-87859580D02*
X115690476Y-87907200D01*
X115690476Y-87907200D02*
X115595238Y-87954819D01*
X115595238Y-87954819D02*
X115309524Y-87954819D01*
X115309524Y-87954819D02*
X115214286Y-87907200D01*
X115214286Y-87907200D02*
X115166667Y-87859580D01*
X153238095Y-100304819D02*
X153238095Y-99304819D01*
X153238095Y-99781009D02*
X153809523Y-99781009D01*
X153809523Y-100304819D02*
X153809523Y-99304819D01*
X154714285Y-99638152D02*
X154714285Y-100304819D01*
X154476190Y-99257200D02*
X154238095Y-99971485D01*
X154238095Y-99971485D02*
X154857142Y-99971485D01*
X29238095Y-31054819D02*
X29238095Y-31864342D01*
X29238095Y-31864342D02*
X29285714Y-31959580D01*
X29285714Y-31959580D02*
X29333333Y-32007200D01*
X29333333Y-32007200D02*
X29428571Y-32054819D01*
X29428571Y-32054819D02*
X29619047Y-32054819D01*
X29619047Y-32054819D02*
X29714285Y-32007200D01*
X29714285Y-32007200D02*
X29761904Y-31959580D01*
X29761904Y-31959580D02*
X29809523Y-31864342D01*
X29809523Y-31864342D02*
X29809523Y-31054819D01*
X30714285Y-31388152D02*
X30714285Y-32054819D01*
X30476190Y-31007200D02*
X30238095Y-31721485D01*
X30238095Y-31721485D02*
X30857142Y-31721485D01*
X24261905Y-63954819D02*
X24261905Y-62954819D01*
X24261905Y-62954819D02*
X24500000Y-62954819D01*
X24500000Y-62954819D02*
X24642857Y-63002438D01*
X24642857Y-63002438D02*
X24738095Y-63097676D01*
X24738095Y-63097676D02*
X24785714Y-63192914D01*
X24785714Y-63192914D02*
X24833333Y-63383390D01*
X24833333Y-63383390D02*
X24833333Y-63526247D01*
X24833333Y-63526247D02*
X24785714Y-63716723D01*
X24785714Y-63716723D02*
X24738095Y-63811961D01*
X24738095Y-63811961D02*
X24642857Y-63907200D01*
X24642857Y-63907200D02*
X24500000Y-63954819D01*
X24500000Y-63954819D02*
X24261905Y-63954819D01*
X25166667Y-62954819D02*
X25833333Y-62954819D01*
X25833333Y-62954819D02*
X25404762Y-63954819D01*
X74833333Y-46679580D02*
X74785714Y-46727200D01*
X74785714Y-46727200D02*
X74642857Y-46774819D01*
X74642857Y-46774819D02*
X74547619Y-46774819D01*
X74547619Y-46774819D02*
X74404762Y-46727200D01*
X74404762Y-46727200D02*
X74309524Y-46631961D01*
X74309524Y-46631961D02*
X74261905Y-46536723D01*
X74261905Y-46536723D02*
X74214286Y-46346247D01*
X74214286Y-46346247D02*
X74214286Y-46203390D01*
X74214286Y-46203390D02*
X74261905Y-46012914D01*
X74261905Y-46012914D02*
X74309524Y-45917676D01*
X74309524Y-45917676D02*
X74404762Y-45822438D01*
X74404762Y-45822438D02*
X74547619Y-45774819D01*
X74547619Y-45774819D02*
X74642857Y-45774819D01*
X74642857Y-45774819D02*
X74785714Y-45822438D01*
X74785714Y-45822438D02*
X74833333Y-45870057D01*
X75738095Y-45774819D02*
X75261905Y-45774819D01*
X75261905Y-45774819D02*
X75214286Y-46251009D01*
X75214286Y-46251009D02*
X75261905Y-46203390D01*
X75261905Y-46203390D02*
X75357143Y-46155771D01*
X75357143Y-46155771D02*
X75595238Y-46155771D01*
X75595238Y-46155771D02*
X75690476Y-46203390D01*
X75690476Y-46203390D02*
X75738095Y-46251009D01*
X75738095Y-46251009D02*
X75785714Y-46346247D01*
X75785714Y-46346247D02*
X75785714Y-46584342D01*
X75785714Y-46584342D02*
X75738095Y-46679580D01*
X75738095Y-46679580D02*
X75690476Y-46727200D01*
X75690476Y-46727200D02*
X75595238Y-46774819D01*
X75595238Y-46774819D02*
X75357143Y-46774819D01*
X75357143Y-46774819D02*
X75261905Y-46727200D01*
X75261905Y-46727200D02*
X75214286Y-46679580D01*
X63761905Y-27054819D02*
X63761905Y-27864342D01*
X63761905Y-27864342D02*
X63809524Y-27959580D01*
X63809524Y-27959580D02*
X63857143Y-28007200D01*
X63857143Y-28007200D02*
X63952381Y-28054819D01*
X63952381Y-28054819D02*
X64142857Y-28054819D01*
X64142857Y-28054819D02*
X64238095Y-28007200D01*
X64238095Y-28007200D02*
X64285714Y-27959580D01*
X64285714Y-27959580D02*
X64333333Y-27864342D01*
X64333333Y-27864342D02*
X64333333Y-27054819D01*
X65333333Y-28054819D02*
X64761905Y-28054819D01*
X65047619Y-28054819D02*
X65047619Y-27054819D01*
X65047619Y-27054819D02*
X64952381Y-27197676D01*
X64952381Y-27197676D02*
X64857143Y-27292914D01*
X64857143Y-27292914D02*
X64761905Y-27340533D01*
X66190476Y-27388152D02*
X66190476Y-28054819D01*
X65952381Y-27007200D02*
X65714286Y-27721485D01*
X65714286Y-27721485D02*
X66333333Y-27721485D01*
X161574819Y-51833333D02*
X162289104Y-51833333D01*
X162289104Y-51833333D02*
X162431961Y-51880952D01*
X162431961Y-51880952D02*
X162527200Y-51976190D01*
X162527200Y-51976190D02*
X162574819Y-52119047D01*
X162574819Y-52119047D02*
X162574819Y-52214285D01*
X161908152Y-50928571D02*
X162574819Y-50928571D01*
X161527200Y-51166666D02*
X162241485Y-51404761D01*
X162241485Y-51404761D02*
X162241485Y-50785714D01*
X99238095Y-23554819D02*
X99238095Y-24364342D01*
X99238095Y-24364342D02*
X99285714Y-24459580D01*
X99285714Y-24459580D02*
X99333333Y-24507200D01*
X99333333Y-24507200D02*
X99428571Y-24554819D01*
X99428571Y-24554819D02*
X99619047Y-24554819D01*
X99619047Y-24554819D02*
X99714285Y-24507200D01*
X99714285Y-24507200D02*
X99761904Y-24459580D01*
X99761904Y-24459580D02*
X99809523Y-24364342D01*
X99809523Y-24364342D02*
X99809523Y-23554819D01*
X100238095Y-23650057D02*
X100285714Y-23602438D01*
X100285714Y-23602438D02*
X100380952Y-23554819D01*
X100380952Y-23554819D02*
X100619047Y-23554819D01*
X100619047Y-23554819D02*
X100714285Y-23602438D01*
X100714285Y-23602438D02*
X100761904Y-23650057D01*
X100761904Y-23650057D02*
X100809523Y-23745295D01*
X100809523Y-23745295D02*
X100809523Y-23840533D01*
X100809523Y-23840533D02*
X100761904Y-23983390D01*
X100761904Y-23983390D02*
X100190476Y-24554819D01*
X100190476Y-24554819D02*
X100809523Y-24554819D01*
X5334819Y-52833333D02*
X6049104Y-52833333D01*
X6049104Y-52833333D02*
X6191961Y-52880952D01*
X6191961Y-52880952D02*
X6287200Y-52976190D01*
X6287200Y-52976190D02*
X6334819Y-53119047D01*
X6334819Y-53119047D02*
X6334819Y-53214285D01*
X5430057Y-52404761D02*
X5382438Y-52357142D01*
X5382438Y-52357142D02*
X5334819Y-52261904D01*
X5334819Y-52261904D02*
X5334819Y-52023809D01*
X5334819Y-52023809D02*
X5382438Y-51928571D01*
X5382438Y-51928571D02*
X5430057Y-51880952D01*
X5430057Y-51880952D02*
X5525295Y-51833333D01*
X5525295Y-51833333D02*
X5620533Y-51833333D01*
X5620533Y-51833333D02*
X5763390Y-51880952D01*
X5763390Y-51880952D02*
X6334819Y-52452380D01*
X6334819Y-52452380D02*
X6334819Y-51833333D01*
X129261905Y-87954819D02*
X129261905Y-86954819D01*
X129261905Y-86954819D02*
X129500000Y-86954819D01*
X129500000Y-86954819D02*
X129642857Y-87002438D01*
X129642857Y-87002438D02*
X129738095Y-87097676D01*
X129738095Y-87097676D02*
X129785714Y-87192914D01*
X129785714Y-87192914D02*
X129833333Y-87383390D01*
X129833333Y-87383390D02*
X129833333Y-87526247D01*
X129833333Y-87526247D02*
X129785714Y-87716723D01*
X129785714Y-87716723D02*
X129738095Y-87811961D01*
X129738095Y-87811961D02*
X129642857Y-87907200D01*
X129642857Y-87907200D02*
X129500000Y-87954819D01*
X129500000Y-87954819D02*
X129261905Y-87954819D01*
X130690476Y-87288152D02*
X130690476Y-87954819D01*
X130452381Y-86907200D02*
X130214286Y-87621485D01*
X130214286Y-87621485D02*
X130833333Y-87621485D01*
X15238095Y-100304819D02*
X15238095Y-99304819D01*
X15238095Y-99781009D02*
X15809523Y-99781009D01*
X15809523Y-100304819D02*
X15809523Y-99304819D01*
X16190476Y-99304819D02*
X16809523Y-99304819D01*
X16809523Y-99304819D02*
X16476190Y-99685771D01*
X16476190Y-99685771D02*
X16619047Y-99685771D01*
X16619047Y-99685771D02*
X16714285Y-99733390D01*
X16714285Y-99733390D02*
X16761904Y-99781009D01*
X16761904Y-99781009D02*
X16809523Y-99876247D01*
X16809523Y-99876247D02*
X16809523Y-100114342D01*
X16809523Y-100114342D02*
X16761904Y-100209580D01*
X16761904Y-100209580D02*
X16714285Y-100257200D01*
X16714285Y-100257200D02*
X16619047Y-100304819D01*
X16619047Y-100304819D02*
X16333333Y-100304819D01*
X16333333Y-100304819D02*
X16238095Y-100257200D01*
X16238095Y-100257200D02*
X16190476Y-100209580D01*
X29238095Y-56054819D02*
X29238095Y-56864342D01*
X29238095Y-56864342D02*
X29285714Y-56959580D01*
X29285714Y-56959580D02*
X29333333Y-57007200D01*
X29333333Y-57007200D02*
X29428571Y-57054819D01*
X29428571Y-57054819D02*
X29619047Y-57054819D01*
X29619047Y-57054819D02*
X29714285Y-57007200D01*
X29714285Y-57007200D02*
X29761904Y-56959580D01*
X29761904Y-56959580D02*
X29809523Y-56864342D01*
X29809523Y-56864342D02*
X29809523Y-56054819D01*
X30761904Y-56054819D02*
X30285714Y-56054819D01*
X30285714Y-56054819D02*
X30238095Y-56531009D01*
X30238095Y-56531009D02*
X30285714Y-56483390D01*
X30285714Y-56483390D02*
X30380952Y-56435771D01*
X30380952Y-56435771D02*
X30619047Y-56435771D01*
X30619047Y-56435771D02*
X30714285Y-56483390D01*
X30714285Y-56483390D02*
X30761904Y-56531009D01*
X30761904Y-56531009D02*
X30809523Y-56626247D01*
X30809523Y-56626247D02*
X30809523Y-56864342D01*
X30809523Y-56864342D02*
X30761904Y-56959580D01*
X30761904Y-56959580D02*
X30714285Y-57007200D01*
X30714285Y-57007200D02*
X30619047Y-57054819D01*
X30619047Y-57054819D02*
X30380952Y-57054819D01*
X30380952Y-57054819D02*
X30285714Y-57007200D01*
X30285714Y-57007200D02*
X30238095Y-56959580D01*
X74238095Y-52054819D02*
X74238095Y-52864342D01*
X74238095Y-52864342D02*
X74285714Y-52959580D01*
X74285714Y-52959580D02*
X74333333Y-53007200D01*
X74333333Y-53007200D02*
X74428571Y-53054819D01*
X74428571Y-53054819D02*
X74619047Y-53054819D01*
X74619047Y-53054819D02*
X74714285Y-53007200D01*
X74714285Y-53007200D02*
X74761904Y-52959580D01*
X74761904Y-52959580D02*
X74809523Y-52864342D01*
X74809523Y-52864342D02*
X74809523Y-52054819D01*
X75809523Y-53054819D02*
X75238095Y-53054819D01*
X75523809Y-53054819D02*
X75523809Y-52054819D01*
X75523809Y-52054819D02*
X75428571Y-52197676D01*
X75428571Y-52197676D02*
X75333333Y-52292914D01*
X75333333Y-52292914D02*
X75238095Y-52340533D01*
X99238095Y-43554819D02*
X99238095Y-44364342D01*
X99238095Y-44364342D02*
X99285714Y-44459580D01*
X99285714Y-44459580D02*
X99333333Y-44507200D01*
X99333333Y-44507200D02*
X99428571Y-44554819D01*
X99428571Y-44554819D02*
X99619047Y-44554819D01*
X99619047Y-44554819D02*
X99714285Y-44507200D01*
X99714285Y-44507200D02*
X99761904Y-44459580D01*
X99761904Y-44459580D02*
X99809523Y-44364342D01*
X99809523Y-44364342D02*
X99809523Y-43554819D01*
X100190476Y-43554819D02*
X100809523Y-43554819D01*
X100809523Y-43554819D02*
X100476190Y-43935771D01*
X100476190Y-43935771D02*
X100619047Y-43935771D01*
X100619047Y-43935771D02*
X100714285Y-43983390D01*
X100714285Y-43983390D02*
X100761904Y-44031009D01*
X100761904Y-44031009D02*
X100809523Y-44126247D01*
X100809523Y-44126247D02*
X100809523Y-44364342D01*
X100809523Y-44364342D02*
X100761904Y-44459580D01*
X100761904Y-44459580D02*
X100714285Y-44507200D01*
X100714285Y-44507200D02*
X100619047Y-44554819D01*
X100619047Y-44554819D02*
X100333333Y-44554819D01*
X100333333Y-44554819D02*
X100238095Y-44507200D01*
X100238095Y-44507200D02*
X100190476Y-44459580D01*
X73761905Y-86054819D02*
X73761905Y-86864342D01*
X73761905Y-86864342D02*
X73809524Y-86959580D01*
X73809524Y-86959580D02*
X73857143Y-87007200D01*
X73857143Y-87007200D02*
X73952381Y-87054819D01*
X73952381Y-87054819D02*
X74142857Y-87054819D01*
X74142857Y-87054819D02*
X74238095Y-87007200D01*
X74238095Y-87007200D02*
X74285714Y-86959580D01*
X74285714Y-86959580D02*
X74333333Y-86864342D01*
X74333333Y-86864342D02*
X74333333Y-86054819D01*
X75333333Y-87054819D02*
X74761905Y-87054819D01*
X75047619Y-87054819D02*
X75047619Y-86054819D01*
X75047619Y-86054819D02*
X74952381Y-86197676D01*
X74952381Y-86197676D02*
X74857143Y-86292914D01*
X74857143Y-86292914D02*
X74761905Y-86340533D01*
X75714286Y-86150057D02*
X75761905Y-86102438D01*
X75761905Y-86102438D02*
X75857143Y-86054819D01*
X75857143Y-86054819D02*
X76095238Y-86054819D01*
X76095238Y-86054819D02*
X76190476Y-86102438D01*
X76190476Y-86102438D02*
X76238095Y-86150057D01*
X76238095Y-86150057D02*
X76285714Y-86245295D01*
X76285714Y-86245295D02*
X76285714Y-86340533D01*
X76285714Y-86340533D02*
X76238095Y-86483390D01*
X76238095Y-86483390D02*
X75666667Y-87054819D01*
X75666667Y-87054819D02*
X76285714Y-87054819D01*
X74833333Y-70679580D02*
X74785714Y-70727200D01*
X74785714Y-70727200D02*
X74642857Y-70774819D01*
X74642857Y-70774819D02*
X74547619Y-70774819D01*
X74547619Y-70774819D02*
X74404762Y-70727200D01*
X74404762Y-70727200D02*
X74309524Y-70631961D01*
X74309524Y-70631961D02*
X74261905Y-70536723D01*
X74261905Y-70536723D02*
X74214286Y-70346247D01*
X74214286Y-70346247D02*
X74214286Y-70203390D01*
X74214286Y-70203390D02*
X74261905Y-70012914D01*
X74261905Y-70012914D02*
X74309524Y-69917676D01*
X74309524Y-69917676D02*
X74404762Y-69822438D01*
X74404762Y-69822438D02*
X74547619Y-69774819D01*
X74547619Y-69774819D02*
X74642857Y-69774819D01*
X74642857Y-69774819D02*
X74785714Y-69822438D01*
X74785714Y-69822438D02*
X74833333Y-69870057D01*
X75690476Y-69774819D02*
X75500000Y-69774819D01*
X75500000Y-69774819D02*
X75404762Y-69822438D01*
X75404762Y-69822438D02*
X75357143Y-69870057D01*
X75357143Y-69870057D02*
X75261905Y-70012914D01*
X75261905Y-70012914D02*
X75214286Y-70203390D01*
X75214286Y-70203390D02*
X75214286Y-70584342D01*
X75214286Y-70584342D02*
X75261905Y-70679580D01*
X75261905Y-70679580D02*
X75309524Y-70727200D01*
X75309524Y-70727200D02*
X75404762Y-70774819D01*
X75404762Y-70774819D02*
X75595238Y-70774819D01*
X75595238Y-70774819D02*
X75690476Y-70727200D01*
X75690476Y-70727200D02*
X75738095Y-70679580D01*
X75738095Y-70679580D02*
X75785714Y-70584342D01*
X75785714Y-70584342D02*
X75785714Y-70346247D01*
X75785714Y-70346247D02*
X75738095Y-70251009D01*
X75738095Y-70251009D02*
X75690476Y-70203390D01*
X75690476Y-70203390D02*
X75595238Y-70155771D01*
X75595238Y-70155771D02*
X75404762Y-70155771D01*
X75404762Y-70155771D02*
X75309524Y-70203390D01*
X75309524Y-70203390D02*
X75261905Y-70251009D01*
X75261905Y-70251009D02*
X75214286Y-70346247D01*
X24261905Y-88954819D02*
X24261905Y-87954819D01*
X24261905Y-87954819D02*
X24500000Y-87954819D01*
X24500000Y-87954819D02*
X24642857Y-88002438D01*
X24642857Y-88002438D02*
X24738095Y-88097676D01*
X24738095Y-88097676D02*
X24785714Y-88192914D01*
X24785714Y-88192914D02*
X24833333Y-88383390D01*
X24833333Y-88383390D02*
X24833333Y-88526247D01*
X24833333Y-88526247D02*
X24785714Y-88716723D01*
X24785714Y-88716723D02*
X24738095Y-88811961D01*
X24738095Y-88811961D02*
X24642857Y-88907200D01*
X24642857Y-88907200D02*
X24500000Y-88954819D01*
X24500000Y-88954819D02*
X24261905Y-88954819D01*
X25404762Y-88383390D02*
X25309524Y-88335771D01*
X25309524Y-88335771D02*
X25261905Y-88288152D01*
X25261905Y-88288152D02*
X25214286Y-88192914D01*
X25214286Y-88192914D02*
X25214286Y-88145295D01*
X25214286Y-88145295D02*
X25261905Y-88050057D01*
X25261905Y-88050057D02*
X25309524Y-88002438D01*
X25309524Y-88002438D02*
X25404762Y-87954819D01*
X25404762Y-87954819D02*
X25595238Y-87954819D01*
X25595238Y-87954819D02*
X25690476Y-88002438D01*
X25690476Y-88002438D02*
X25738095Y-88050057D01*
X25738095Y-88050057D02*
X25785714Y-88145295D01*
X25785714Y-88145295D02*
X25785714Y-88192914D01*
X25785714Y-88192914D02*
X25738095Y-88288152D01*
X25738095Y-88288152D02*
X25690476Y-88335771D01*
X25690476Y-88335771D02*
X25595238Y-88383390D01*
X25595238Y-88383390D02*
X25404762Y-88383390D01*
X25404762Y-88383390D02*
X25309524Y-88431009D01*
X25309524Y-88431009D02*
X25261905Y-88478628D01*
X25261905Y-88478628D02*
X25214286Y-88573866D01*
X25214286Y-88573866D02*
X25214286Y-88764342D01*
X25214286Y-88764342D02*
X25261905Y-88859580D01*
X25261905Y-88859580D02*
X25309524Y-88907200D01*
X25309524Y-88907200D02*
X25404762Y-88954819D01*
X25404762Y-88954819D02*
X25595238Y-88954819D01*
X25595238Y-88954819D02*
X25690476Y-88907200D01*
X25690476Y-88907200D02*
X25738095Y-88859580D01*
X25738095Y-88859580D02*
X25785714Y-88764342D01*
X25785714Y-88764342D02*
X25785714Y-88573866D01*
X25785714Y-88573866D02*
X25738095Y-88478628D01*
X25738095Y-88478628D02*
X25690476Y-88431009D01*
X25690476Y-88431009D02*
X25595238Y-88383390D01*
X48761905Y-26054819D02*
X48761905Y-26864342D01*
X48761905Y-26864342D02*
X48809524Y-26959580D01*
X48809524Y-26959580D02*
X48857143Y-27007200D01*
X48857143Y-27007200D02*
X48952381Y-27054819D01*
X48952381Y-27054819D02*
X49142857Y-27054819D01*
X49142857Y-27054819D02*
X49238095Y-27007200D01*
X49238095Y-27007200D02*
X49285714Y-26959580D01*
X49285714Y-26959580D02*
X49333333Y-26864342D01*
X49333333Y-26864342D02*
X49333333Y-26054819D01*
X50333333Y-27054819D02*
X49761905Y-27054819D01*
X50047619Y-27054819D02*
X50047619Y-26054819D01*
X50047619Y-26054819D02*
X49952381Y-26197676D01*
X49952381Y-26197676D02*
X49857143Y-26292914D01*
X49857143Y-26292914D02*
X49761905Y-26340533D01*
X50666667Y-26054819D02*
X51285714Y-26054819D01*
X51285714Y-26054819D02*
X50952381Y-26435771D01*
X50952381Y-26435771D02*
X51095238Y-26435771D01*
X51095238Y-26435771D02*
X51190476Y-26483390D01*
X51190476Y-26483390D02*
X51238095Y-26531009D01*
X51238095Y-26531009D02*
X51285714Y-26626247D01*
X51285714Y-26626247D02*
X51285714Y-26864342D01*
X51285714Y-26864342D02*
X51238095Y-26959580D01*
X51238095Y-26959580D02*
X51190476Y-27007200D01*
X51190476Y-27007200D02*
X51095238Y-27054819D01*
X51095238Y-27054819D02*
X50809524Y-27054819D01*
X50809524Y-27054819D02*
X50714286Y-27007200D01*
X50714286Y-27007200D02*
X50666667Y-26959580D01*
X49833333Y-98624819D02*
X49500000Y-98148628D01*
X49261905Y-98624819D02*
X49261905Y-97624819D01*
X49261905Y-97624819D02*
X49642857Y-97624819D01*
X49642857Y-97624819D02*
X49738095Y-97672438D01*
X49738095Y-97672438D02*
X49785714Y-97720057D01*
X49785714Y-97720057D02*
X49833333Y-97815295D01*
X49833333Y-97815295D02*
X49833333Y-97958152D01*
X49833333Y-97958152D02*
X49785714Y-98053390D01*
X49785714Y-98053390D02*
X49738095Y-98101009D01*
X49738095Y-98101009D02*
X49642857Y-98148628D01*
X49642857Y-98148628D02*
X49261905Y-98148628D01*
X50785714Y-98624819D02*
X50214286Y-98624819D01*
X50500000Y-98624819D02*
X50500000Y-97624819D01*
X50500000Y-97624819D02*
X50404762Y-97767676D01*
X50404762Y-97767676D02*
X50309524Y-97862914D01*
X50309524Y-97862914D02*
X50214286Y-97910533D01*
X69833333Y-98624819D02*
X69500000Y-98148628D01*
X69261905Y-98624819D02*
X69261905Y-97624819D01*
X69261905Y-97624819D02*
X69642857Y-97624819D01*
X69642857Y-97624819D02*
X69738095Y-97672438D01*
X69738095Y-97672438D02*
X69785714Y-97720057D01*
X69785714Y-97720057D02*
X69833333Y-97815295D01*
X69833333Y-97815295D02*
X69833333Y-97958152D01*
X69833333Y-97958152D02*
X69785714Y-98053390D01*
X69785714Y-98053390D02*
X69738095Y-98101009D01*
X69738095Y-98101009D02*
X69642857Y-98148628D01*
X69642857Y-98148628D02*
X69261905Y-98148628D01*
X70166667Y-97624819D02*
X70785714Y-97624819D01*
X70785714Y-97624819D02*
X70452381Y-98005771D01*
X70452381Y-98005771D02*
X70595238Y-98005771D01*
X70595238Y-98005771D02*
X70690476Y-98053390D01*
X70690476Y-98053390D02*
X70738095Y-98101009D01*
X70738095Y-98101009D02*
X70785714Y-98196247D01*
X70785714Y-98196247D02*
X70785714Y-98434342D01*
X70785714Y-98434342D02*
X70738095Y-98529580D01*
X70738095Y-98529580D02*
X70690476Y-98577200D01*
X70690476Y-98577200D02*
X70595238Y-98624819D01*
X70595238Y-98624819D02*
X70309524Y-98624819D01*
X70309524Y-98624819D02*
X70214286Y-98577200D01*
X70214286Y-98577200D02*
X70166667Y-98529580D01*
X161574819Y-31833333D02*
X162289104Y-31833333D01*
X162289104Y-31833333D02*
X162431961Y-31880952D01*
X162431961Y-31880952D02*
X162527200Y-31976190D01*
X162527200Y-31976190D02*
X162574819Y-32119047D01*
X162574819Y-32119047D02*
X162574819Y-32214285D01*
X161574819Y-31452380D02*
X161574819Y-30833333D01*
X161574819Y-30833333D02*
X161955771Y-31166666D01*
X161955771Y-31166666D02*
X161955771Y-31023809D01*
X161955771Y-31023809D02*
X162003390Y-30928571D01*
X162003390Y-30928571D02*
X162051009Y-30880952D01*
X162051009Y-30880952D02*
X162146247Y-30833333D01*
X162146247Y-30833333D02*
X162384342Y-30833333D01*
X162384342Y-30833333D02*
X162479580Y-30880952D01*
X162479580Y-30880952D02*
X162527200Y-30928571D01*
X162527200Y-30928571D02*
X162574819Y-31023809D01*
X162574819Y-31023809D02*
X162574819Y-31309523D01*
X162574819Y-31309523D02*
X162527200Y-31404761D01*
X162527200Y-31404761D02*
X162479580Y-31452380D01*
X59833333Y-56929580D02*
X59785714Y-56977200D01*
X59785714Y-56977200D02*
X59642857Y-57024819D01*
X59642857Y-57024819D02*
X59547619Y-57024819D01*
X59547619Y-57024819D02*
X59404762Y-56977200D01*
X59404762Y-56977200D02*
X59309524Y-56881961D01*
X59309524Y-56881961D02*
X59261905Y-56786723D01*
X59261905Y-56786723D02*
X59214286Y-56596247D01*
X59214286Y-56596247D02*
X59214286Y-56453390D01*
X59214286Y-56453390D02*
X59261905Y-56262914D01*
X59261905Y-56262914D02*
X59309524Y-56167676D01*
X59309524Y-56167676D02*
X59404762Y-56072438D01*
X59404762Y-56072438D02*
X59547619Y-56024819D01*
X59547619Y-56024819D02*
X59642857Y-56024819D01*
X59642857Y-56024819D02*
X59785714Y-56072438D01*
X59785714Y-56072438D02*
X59833333Y-56120057D01*
X60309524Y-57024819D02*
X60500000Y-57024819D01*
X60500000Y-57024819D02*
X60595238Y-56977200D01*
X60595238Y-56977200D02*
X60642857Y-56929580D01*
X60642857Y-56929580D02*
X60738095Y-56786723D01*
X60738095Y-56786723D02*
X60785714Y-56596247D01*
X60785714Y-56596247D02*
X60785714Y-56215295D01*
X60785714Y-56215295D02*
X60738095Y-56120057D01*
X60738095Y-56120057D02*
X60690476Y-56072438D01*
X60690476Y-56072438D02*
X60595238Y-56024819D01*
X60595238Y-56024819D02*
X60404762Y-56024819D01*
X60404762Y-56024819D02*
X60309524Y-56072438D01*
X60309524Y-56072438D02*
X60261905Y-56120057D01*
X60261905Y-56120057D02*
X60214286Y-56215295D01*
X60214286Y-56215295D02*
X60214286Y-56453390D01*
X60214286Y-56453390D02*
X60261905Y-56548628D01*
X60261905Y-56548628D02*
X60309524Y-56596247D01*
X60309524Y-56596247D02*
X60404762Y-56643866D01*
X60404762Y-56643866D02*
X60595238Y-56643866D01*
X60595238Y-56643866D02*
X60690476Y-56596247D01*
X60690476Y-56596247D02*
X60738095Y-56548628D01*
X60738095Y-56548628D02*
X60785714Y-56453390D01*
X37357142Y-52679580D02*
X37309523Y-52727200D01*
X37309523Y-52727200D02*
X37166666Y-52774819D01*
X37166666Y-52774819D02*
X37071428Y-52774819D01*
X37071428Y-52774819D02*
X36928571Y-52727200D01*
X36928571Y-52727200D02*
X36833333Y-52631961D01*
X36833333Y-52631961D02*
X36785714Y-52536723D01*
X36785714Y-52536723D02*
X36738095Y-52346247D01*
X36738095Y-52346247D02*
X36738095Y-52203390D01*
X36738095Y-52203390D02*
X36785714Y-52012914D01*
X36785714Y-52012914D02*
X36833333Y-51917676D01*
X36833333Y-51917676D02*
X36928571Y-51822438D01*
X36928571Y-51822438D02*
X37071428Y-51774819D01*
X37071428Y-51774819D02*
X37166666Y-51774819D01*
X37166666Y-51774819D02*
X37309523Y-51822438D01*
X37309523Y-51822438D02*
X37357142Y-51870057D01*
X38309523Y-52774819D02*
X37738095Y-52774819D01*
X38023809Y-52774819D02*
X38023809Y-51774819D01*
X38023809Y-51774819D02*
X37928571Y-51917676D01*
X37928571Y-51917676D02*
X37833333Y-52012914D01*
X37833333Y-52012914D02*
X37738095Y-52060533D01*
X38690476Y-51870057D02*
X38738095Y-51822438D01*
X38738095Y-51822438D02*
X38833333Y-51774819D01*
X38833333Y-51774819D02*
X39071428Y-51774819D01*
X39071428Y-51774819D02*
X39166666Y-51822438D01*
X39166666Y-51822438D02*
X39214285Y-51870057D01*
X39214285Y-51870057D02*
X39261904Y-51965295D01*
X39261904Y-51965295D02*
X39261904Y-52060533D01*
X39261904Y-52060533D02*
X39214285Y-52203390D01*
X39214285Y-52203390D02*
X38642857Y-52774819D01*
X38642857Y-52774819D02*
X39261904Y-52774819D01*
X99261905Y-87954819D02*
X99261905Y-86954819D01*
X99261905Y-86954819D02*
X99500000Y-86954819D01*
X99500000Y-86954819D02*
X99642857Y-87002438D01*
X99642857Y-87002438D02*
X99738095Y-87097676D01*
X99738095Y-87097676D02*
X99785714Y-87192914D01*
X99785714Y-87192914D02*
X99833333Y-87383390D01*
X99833333Y-87383390D02*
X99833333Y-87526247D01*
X99833333Y-87526247D02*
X99785714Y-87716723D01*
X99785714Y-87716723D02*
X99738095Y-87811961D01*
X99738095Y-87811961D02*
X99642857Y-87907200D01*
X99642857Y-87907200D02*
X99500000Y-87954819D01*
X99500000Y-87954819D02*
X99261905Y-87954819D01*
X100214286Y-87050057D02*
X100261905Y-87002438D01*
X100261905Y-87002438D02*
X100357143Y-86954819D01*
X100357143Y-86954819D02*
X100595238Y-86954819D01*
X100595238Y-86954819D02*
X100690476Y-87002438D01*
X100690476Y-87002438D02*
X100738095Y-87050057D01*
X100738095Y-87050057D02*
X100785714Y-87145295D01*
X100785714Y-87145295D02*
X100785714Y-87240533D01*
X100785714Y-87240533D02*
X100738095Y-87383390D01*
X100738095Y-87383390D02*
X100166667Y-87954819D01*
X100166667Y-87954819D02*
X100785714Y-87954819D01*
X143761905Y-76054819D02*
X143761905Y-76864342D01*
X143761905Y-76864342D02*
X143809524Y-76959580D01*
X143809524Y-76959580D02*
X143857143Y-77007200D01*
X143857143Y-77007200D02*
X143952381Y-77054819D01*
X143952381Y-77054819D02*
X144142857Y-77054819D01*
X144142857Y-77054819D02*
X144238095Y-77007200D01*
X144238095Y-77007200D02*
X144285714Y-76959580D01*
X144285714Y-76959580D02*
X144333333Y-76864342D01*
X144333333Y-76864342D02*
X144333333Y-76054819D01*
X145333333Y-77054819D02*
X144761905Y-77054819D01*
X145047619Y-77054819D02*
X145047619Y-76054819D01*
X145047619Y-76054819D02*
X144952381Y-76197676D01*
X144952381Y-76197676D02*
X144857143Y-76292914D01*
X144857143Y-76292914D02*
X144761905Y-76340533D01*
X145952381Y-76054819D02*
X146047619Y-76054819D01*
X146047619Y-76054819D02*
X146142857Y-76102438D01*
X146142857Y-76102438D02*
X146190476Y-76150057D01*
X146190476Y-76150057D02*
X146238095Y-76245295D01*
X146238095Y-76245295D02*
X146285714Y-76435771D01*
X146285714Y-76435771D02*
X146285714Y-76673866D01*
X146285714Y-76673866D02*
X146238095Y-76864342D01*
X146238095Y-76864342D02*
X146190476Y-76959580D01*
X146190476Y-76959580D02*
X146142857Y-77007200D01*
X146142857Y-77007200D02*
X146047619Y-77054819D01*
X146047619Y-77054819D02*
X145952381Y-77054819D01*
X145952381Y-77054819D02*
X145857143Y-77007200D01*
X145857143Y-77007200D02*
X145809524Y-76959580D01*
X145809524Y-76959580D02*
X145761905Y-76864342D01*
X145761905Y-76864342D02*
X145714286Y-76673866D01*
X145714286Y-76673866D02*
X145714286Y-76435771D01*
X145714286Y-76435771D02*
X145761905Y-76245295D01*
X145761905Y-76245295D02*
X145809524Y-76150057D01*
X145809524Y-76150057D02*
X145857143Y-76102438D01*
X145857143Y-76102438D02*
X145952381Y-76054819D01*
X124238095Y-43554819D02*
X124809523Y-43554819D01*
X124523809Y-44554819D02*
X124523809Y-43554819D01*
X125095238Y-43650057D02*
X125142857Y-43602438D01*
X125142857Y-43602438D02*
X125238095Y-43554819D01*
X125238095Y-43554819D02*
X125476190Y-43554819D01*
X125476190Y-43554819D02*
X125571428Y-43602438D01*
X125571428Y-43602438D02*
X125619047Y-43650057D01*
X125619047Y-43650057D02*
X125666666Y-43745295D01*
X125666666Y-43745295D02*
X125666666Y-43840533D01*
X125666666Y-43840533D02*
X125619047Y-43983390D01*
X125619047Y-43983390D02*
X125047619Y-44554819D01*
X125047619Y-44554819D02*
X125666666Y-44554819D01*
X21833333Y-58804819D02*
X21500000Y-58328628D01*
X21261905Y-58804819D02*
X21261905Y-57804819D01*
X21261905Y-57804819D02*
X21642857Y-57804819D01*
X21642857Y-57804819D02*
X21738095Y-57852438D01*
X21738095Y-57852438D02*
X21785714Y-57900057D01*
X21785714Y-57900057D02*
X21833333Y-57995295D01*
X21833333Y-57995295D02*
X21833333Y-58138152D01*
X21833333Y-58138152D02*
X21785714Y-58233390D01*
X21785714Y-58233390D02*
X21738095Y-58281009D01*
X21738095Y-58281009D02*
X21642857Y-58328628D01*
X21642857Y-58328628D02*
X21261905Y-58328628D01*
X22690476Y-57804819D02*
X22500000Y-57804819D01*
X22500000Y-57804819D02*
X22404762Y-57852438D01*
X22404762Y-57852438D02*
X22357143Y-57900057D01*
X22357143Y-57900057D02*
X22261905Y-58042914D01*
X22261905Y-58042914D02*
X22214286Y-58233390D01*
X22214286Y-58233390D02*
X22214286Y-58614342D01*
X22214286Y-58614342D02*
X22261905Y-58709580D01*
X22261905Y-58709580D02*
X22309524Y-58757200D01*
X22309524Y-58757200D02*
X22404762Y-58804819D01*
X22404762Y-58804819D02*
X22595238Y-58804819D01*
X22595238Y-58804819D02*
X22690476Y-58757200D01*
X22690476Y-58757200D02*
X22738095Y-58709580D01*
X22738095Y-58709580D02*
X22785714Y-58614342D01*
X22785714Y-58614342D02*
X22785714Y-58376247D01*
X22785714Y-58376247D02*
X22738095Y-58281009D01*
X22738095Y-58281009D02*
X22690476Y-58233390D01*
X22690476Y-58233390D02*
X22595238Y-58185771D01*
X22595238Y-58185771D02*
X22404762Y-58185771D01*
X22404762Y-58185771D02*
X22309524Y-58233390D01*
X22309524Y-58233390D02*
X22261905Y-58281009D01*
X22261905Y-58281009D02*
X22214286Y-58376247D01*
X153238095Y-12304819D02*
X153238095Y-11304819D01*
X153238095Y-11781009D02*
X153809523Y-11781009D01*
X153809523Y-12304819D02*
X153809523Y-11304819D01*
X154238095Y-11400057D02*
X154285714Y-11352438D01*
X154285714Y-11352438D02*
X154380952Y-11304819D01*
X154380952Y-11304819D02*
X154619047Y-11304819D01*
X154619047Y-11304819D02*
X154714285Y-11352438D01*
X154714285Y-11352438D02*
X154761904Y-11400057D01*
X154761904Y-11400057D02*
X154809523Y-11495295D01*
X154809523Y-11495295D02*
X154809523Y-11590533D01*
X154809523Y-11590533D02*
X154761904Y-11733390D01*
X154761904Y-11733390D02*
X154190476Y-12304819D01*
X154190476Y-12304819D02*
X154809523Y-12304819D01*
X129238095Y-76054819D02*
X129238095Y-76864342D01*
X129238095Y-76864342D02*
X129285714Y-76959580D01*
X129285714Y-76959580D02*
X129333333Y-77007200D01*
X129333333Y-77007200D02*
X129428571Y-77054819D01*
X129428571Y-77054819D02*
X129619047Y-77054819D01*
X129619047Y-77054819D02*
X129714285Y-77007200D01*
X129714285Y-77007200D02*
X129761904Y-76959580D01*
X129761904Y-76959580D02*
X129809523Y-76864342D01*
X129809523Y-76864342D02*
X129809523Y-76054819D01*
X130333333Y-77054819D02*
X130523809Y-77054819D01*
X130523809Y-77054819D02*
X130619047Y-77007200D01*
X130619047Y-77007200D02*
X130666666Y-76959580D01*
X130666666Y-76959580D02*
X130761904Y-76816723D01*
X130761904Y-76816723D02*
X130809523Y-76626247D01*
X130809523Y-76626247D02*
X130809523Y-76245295D01*
X130809523Y-76245295D02*
X130761904Y-76150057D01*
X130761904Y-76150057D02*
X130714285Y-76102438D01*
X130714285Y-76102438D02*
X130619047Y-76054819D01*
X130619047Y-76054819D02*
X130428571Y-76054819D01*
X130428571Y-76054819D02*
X130333333Y-76102438D01*
X130333333Y-76102438D02*
X130285714Y-76150057D01*
X130285714Y-76150057D02*
X130238095Y-76245295D01*
X130238095Y-76245295D02*
X130238095Y-76483390D01*
X130238095Y-76483390D02*
X130285714Y-76578628D01*
X130285714Y-76578628D02*
X130333333Y-76626247D01*
X130333333Y-76626247D02*
X130428571Y-76673866D01*
X130428571Y-76673866D02*
X130619047Y-76673866D01*
X130619047Y-76673866D02*
X130714285Y-76626247D01*
X130714285Y-76626247D02*
X130761904Y-76578628D01*
X130761904Y-76578628D02*
X130809523Y-76483390D01*
X29238095Y-81054819D02*
X29238095Y-81864342D01*
X29238095Y-81864342D02*
X29285714Y-81959580D01*
X29285714Y-81959580D02*
X29333333Y-82007200D01*
X29333333Y-82007200D02*
X29428571Y-82054819D01*
X29428571Y-82054819D02*
X29619047Y-82054819D01*
X29619047Y-82054819D02*
X29714285Y-82007200D01*
X29714285Y-82007200D02*
X29761904Y-81959580D01*
X29761904Y-81959580D02*
X29809523Y-81864342D01*
X29809523Y-81864342D02*
X29809523Y-81054819D01*
X30714285Y-81054819D02*
X30523809Y-81054819D01*
X30523809Y-81054819D02*
X30428571Y-81102438D01*
X30428571Y-81102438D02*
X30380952Y-81150057D01*
X30380952Y-81150057D02*
X30285714Y-81292914D01*
X30285714Y-81292914D02*
X30238095Y-81483390D01*
X30238095Y-81483390D02*
X30238095Y-81864342D01*
X30238095Y-81864342D02*
X30285714Y-81959580D01*
X30285714Y-81959580D02*
X30333333Y-82007200D01*
X30333333Y-82007200D02*
X30428571Y-82054819D01*
X30428571Y-82054819D02*
X30619047Y-82054819D01*
X30619047Y-82054819D02*
X30714285Y-82007200D01*
X30714285Y-82007200D02*
X30761904Y-81959580D01*
X30761904Y-81959580D02*
X30809523Y-81864342D01*
X30809523Y-81864342D02*
X30809523Y-81626247D01*
X30809523Y-81626247D02*
X30761904Y-81531009D01*
X30761904Y-81531009D02*
X30714285Y-81483390D01*
X30714285Y-81483390D02*
X30619047Y-81435771D01*
X30619047Y-81435771D02*
X30428571Y-81435771D01*
X30428571Y-81435771D02*
X30333333Y-81483390D01*
X30333333Y-81483390D02*
X30285714Y-81531009D01*
X30285714Y-81531009D02*
X30238095Y-81626247D01*
X124238095Y-23554819D02*
X124809523Y-23554819D01*
X124523809Y-24554819D02*
X124523809Y-23554819D01*
X125666666Y-24554819D02*
X125095238Y-24554819D01*
X125380952Y-24554819D02*
X125380952Y-23554819D01*
X125380952Y-23554819D02*
X125285714Y-23697676D01*
X125285714Y-23697676D02*
X125190476Y-23792914D01*
X125190476Y-23792914D02*
X125095238Y-23840533D01*
X39261905Y-17454819D02*
X39261905Y-16454819D01*
X39261905Y-16454819D02*
X39500000Y-16454819D01*
X39500000Y-16454819D02*
X39642857Y-16502438D01*
X39642857Y-16502438D02*
X39738095Y-16597676D01*
X39738095Y-16597676D02*
X39785714Y-16692914D01*
X39785714Y-16692914D02*
X39833333Y-16883390D01*
X39833333Y-16883390D02*
X39833333Y-17026247D01*
X39833333Y-17026247D02*
X39785714Y-17216723D01*
X39785714Y-17216723D02*
X39738095Y-17311961D01*
X39738095Y-17311961D02*
X39642857Y-17407200D01*
X39642857Y-17407200D02*
X39500000Y-17454819D01*
X39500000Y-17454819D02*
X39261905Y-17454819D01*
X40785714Y-17454819D02*
X40214286Y-17454819D01*
X40500000Y-17454819D02*
X40500000Y-16454819D01*
X40500000Y-16454819D02*
X40404762Y-16597676D01*
X40404762Y-16597676D02*
X40309524Y-16692914D01*
X40309524Y-16692914D02*
X40214286Y-16740533D01*
X24261905Y-38954819D02*
X24261905Y-37954819D01*
X24261905Y-37954819D02*
X24500000Y-37954819D01*
X24500000Y-37954819D02*
X24642857Y-38002438D01*
X24642857Y-38002438D02*
X24738095Y-38097676D01*
X24738095Y-38097676D02*
X24785714Y-38192914D01*
X24785714Y-38192914D02*
X24833333Y-38383390D01*
X24833333Y-38383390D02*
X24833333Y-38526247D01*
X24833333Y-38526247D02*
X24785714Y-38716723D01*
X24785714Y-38716723D02*
X24738095Y-38811961D01*
X24738095Y-38811961D02*
X24642857Y-38907200D01*
X24642857Y-38907200D02*
X24500000Y-38954819D01*
X24500000Y-38954819D02*
X24261905Y-38954819D01*
X25690476Y-37954819D02*
X25500000Y-37954819D01*
X25500000Y-37954819D02*
X25404762Y-38002438D01*
X25404762Y-38002438D02*
X25357143Y-38050057D01*
X25357143Y-38050057D02*
X25261905Y-38192914D01*
X25261905Y-38192914D02*
X25214286Y-38383390D01*
X25214286Y-38383390D02*
X25214286Y-38764342D01*
X25214286Y-38764342D02*
X25261905Y-38859580D01*
X25261905Y-38859580D02*
X25309524Y-38907200D01*
X25309524Y-38907200D02*
X25404762Y-38954819D01*
X25404762Y-38954819D02*
X25595238Y-38954819D01*
X25595238Y-38954819D02*
X25690476Y-38907200D01*
X25690476Y-38907200D02*
X25738095Y-38859580D01*
X25738095Y-38859580D02*
X25785714Y-38764342D01*
X25785714Y-38764342D02*
X25785714Y-38526247D01*
X25785714Y-38526247D02*
X25738095Y-38431009D01*
X25738095Y-38431009D02*
X25690476Y-38383390D01*
X25690476Y-38383390D02*
X25595238Y-38335771D01*
X25595238Y-38335771D02*
X25404762Y-38335771D01*
X25404762Y-38335771D02*
X25309524Y-38383390D01*
X25309524Y-38383390D02*
X25261905Y-38431009D01*
X25261905Y-38431009D02*
X25214286Y-38526247D01*
X64833333Y-50679580D02*
X64785714Y-50727200D01*
X64785714Y-50727200D02*
X64642857Y-50774819D01*
X64642857Y-50774819D02*
X64547619Y-50774819D01*
X64547619Y-50774819D02*
X64404762Y-50727200D01*
X64404762Y-50727200D02*
X64309524Y-50631961D01*
X64309524Y-50631961D02*
X64261905Y-50536723D01*
X64261905Y-50536723D02*
X64214286Y-50346247D01*
X64214286Y-50346247D02*
X64214286Y-50203390D01*
X64214286Y-50203390D02*
X64261905Y-50012914D01*
X64261905Y-50012914D02*
X64309524Y-49917676D01*
X64309524Y-49917676D02*
X64404762Y-49822438D01*
X64404762Y-49822438D02*
X64547619Y-49774819D01*
X64547619Y-49774819D02*
X64642857Y-49774819D01*
X64642857Y-49774819D02*
X64785714Y-49822438D01*
X64785714Y-49822438D02*
X64833333Y-49870057D01*
X65785714Y-50774819D02*
X65214286Y-50774819D01*
X65500000Y-50774819D02*
X65500000Y-49774819D01*
X65500000Y-49774819D02*
X65404762Y-49917676D01*
X65404762Y-49917676D02*
X65309524Y-50012914D01*
X65309524Y-50012914D02*
X65214286Y-50060533D01*
X130966666Y-98004819D02*
X130966666Y-98719104D01*
X130966666Y-98719104D02*
X130919047Y-98861961D01*
X130919047Y-98861961D02*
X130823809Y-98957200D01*
X130823809Y-98957200D02*
X130680952Y-99004819D01*
X130680952Y-99004819D02*
X130585714Y-99004819D01*
X131966666Y-99004819D02*
X131395238Y-99004819D01*
X131680952Y-99004819D02*
X131680952Y-98004819D01*
X131680952Y-98004819D02*
X131585714Y-98147676D01*
X131585714Y-98147676D02*
X131490476Y-98242914D01*
X131490476Y-98242914D02*
X131395238Y-98290533D01*
X21833333Y-33804819D02*
X21500000Y-33328628D01*
X21261905Y-33804819D02*
X21261905Y-32804819D01*
X21261905Y-32804819D02*
X21642857Y-32804819D01*
X21642857Y-32804819D02*
X21738095Y-32852438D01*
X21738095Y-32852438D02*
X21785714Y-32900057D01*
X21785714Y-32900057D02*
X21833333Y-32995295D01*
X21833333Y-32995295D02*
X21833333Y-33138152D01*
X21833333Y-33138152D02*
X21785714Y-33233390D01*
X21785714Y-33233390D02*
X21738095Y-33281009D01*
X21738095Y-33281009D02*
X21642857Y-33328628D01*
X21642857Y-33328628D02*
X21261905Y-33328628D01*
X22738095Y-32804819D02*
X22261905Y-32804819D01*
X22261905Y-32804819D02*
X22214286Y-33281009D01*
X22214286Y-33281009D02*
X22261905Y-33233390D01*
X22261905Y-33233390D02*
X22357143Y-33185771D01*
X22357143Y-33185771D02*
X22595238Y-33185771D01*
X22595238Y-33185771D02*
X22690476Y-33233390D01*
X22690476Y-33233390D02*
X22738095Y-33281009D01*
X22738095Y-33281009D02*
X22785714Y-33376247D01*
X22785714Y-33376247D02*
X22785714Y-33614342D01*
X22785714Y-33614342D02*
X22738095Y-33709580D01*
X22738095Y-33709580D02*
X22690476Y-33757200D01*
X22690476Y-33757200D02*
X22595238Y-33804819D01*
X22595238Y-33804819D02*
X22357143Y-33804819D01*
X22357143Y-33804819D02*
X22261905Y-33757200D01*
X22261905Y-33757200D02*
X22214286Y-33709580D01*
X64833333Y-66679580D02*
X64785714Y-66727200D01*
X64785714Y-66727200D02*
X64642857Y-66774819D01*
X64642857Y-66774819D02*
X64547619Y-66774819D01*
X64547619Y-66774819D02*
X64404762Y-66727200D01*
X64404762Y-66727200D02*
X64309524Y-66631961D01*
X64309524Y-66631961D02*
X64261905Y-66536723D01*
X64261905Y-66536723D02*
X64214286Y-66346247D01*
X64214286Y-66346247D02*
X64214286Y-66203390D01*
X64214286Y-66203390D02*
X64261905Y-66012914D01*
X64261905Y-66012914D02*
X64309524Y-65917676D01*
X64309524Y-65917676D02*
X64404762Y-65822438D01*
X64404762Y-65822438D02*
X64547619Y-65774819D01*
X64547619Y-65774819D02*
X64642857Y-65774819D01*
X64642857Y-65774819D02*
X64785714Y-65822438D01*
X64785714Y-65822438D02*
X64833333Y-65870057D01*
X65166667Y-65774819D02*
X65785714Y-65774819D01*
X65785714Y-65774819D02*
X65452381Y-66155771D01*
X65452381Y-66155771D02*
X65595238Y-66155771D01*
X65595238Y-66155771D02*
X65690476Y-66203390D01*
X65690476Y-66203390D02*
X65738095Y-66251009D01*
X65738095Y-66251009D02*
X65785714Y-66346247D01*
X65785714Y-66346247D02*
X65785714Y-66584342D01*
X65785714Y-66584342D02*
X65738095Y-66679580D01*
X65738095Y-66679580D02*
X65690476Y-66727200D01*
X65690476Y-66727200D02*
X65595238Y-66774819D01*
X65595238Y-66774819D02*
X65309524Y-66774819D01*
X65309524Y-66774819D02*
X65214286Y-66727200D01*
X65214286Y-66727200D02*
X65166667Y-66679580D01*
X15238095Y-12304819D02*
X15238095Y-11304819D01*
X15238095Y-11781009D02*
X15809523Y-11781009D01*
X15809523Y-12304819D02*
X15809523Y-11304819D01*
X16809523Y-12304819D02*
X16238095Y-12304819D01*
X16523809Y-12304819D02*
X16523809Y-11304819D01*
X16523809Y-11304819D02*
X16428571Y-11447676D01*
X16428571Y-11447676D02*
X16333333Y-11542914D01*
X16333333Y-11542914D02*
X16238095Y-11590533D01*
X114238095Y-76054819D02*
X114238095Y-76864342D01*
X114238095Y-76864342D02*
X114285714Y-76959580D01*
X114285714Y-76959580D02*
X114333333Y-77007200D01*
X114333333Y-77007200D02*
X114428571Y-77054819D01*
X114428571Y-77054819D02*
X114619047Y-77054819D01*
X114619047Y-77054819D02*
X114714285Y-77007200D01*
X114714285Y-77007200D02*
X114761904Y-76959580D01*
X114761904Y-76959580D02*
X114809523Y-76864342D01*
X114809523Y-76864342D02*
X114809523Y-76054819D01*
X115428571Y-76483390D02*
X115333333Y-76435771D01*
X115333333Y-76435771D02*
X115285714Y-76388152D01*
X115285714Y-76388152D02*
X115238095Y-76292914D01*
X115238095Y-76292914D02*
X115238095Y-76245295D01*
X115238095Y-76245295D02*
X115285714Y-76150057D01*
X115285714Y-76150057D02*
X115333333Y-76102438D01*
X115333333Y-76102438D02*
X115428571Y-76054819D01*
X115428571Y-76054819D02*
X115619047Y-76054819D01*
X115619047Y-76054819D02*
X115714285Y-76102438D01*
X115714285Y-76102438D02*
X115761904Y-76150057D01*
X115761904Y-76150057D02*
X115809523Y-76245295D01*
X115809523Y-76245295D02*
X115809523Y-76292914D01*
X115809523Y-76292914D02*
X115761904Y-76388152D01*
X115761904Y-76388152D02*
X115714285Y-76435771D01*
X115714285Y-76435771D02*
X115619047Y-76483390D01*
X115619047Y-76483390D02*
X115428571Y-76483390D01*
X115428571Y-76483390D02*
X115333333Y-76531009D01*
X115333333Y-76531009D02*
X115285714Y-76578628D01*
X115285714Y-76578628D02*
X115238095Y-76673866D01*
X115238095Y-76673866D02*
X115238095Y-76864342D01*
X115238095Y-76864342D02*
X115285714Y-76959580D01*
X115285714Y-76959580D02*
X115333333Y-77007200D01*
X115333333Y-77007200D02*
X115428571Y-77054819D01*
X115428571Y-77054819D02*
X115619047Y-77054819D01*
X115619047Y-77054819D02*
X115714285Y-77007200D01*
X115714285Y-77007200D02*
X115761904Y-76959580D01*
X115761904Y-76959580D02*
X115809523Y-76864342D01*
X115809523Y-76864342D02*
X115809523Y-76673866D01*
X115809523Y-76673866D02*
X115761904Y-76578628D01*
X115761904Y-76578628D02*
X115714285Y-76531009D01*
X115714285Y-76531009D02*
X115619047Y-76483390D01*
X37357142Y-77679580D02*
X37309523Y-77727200D01*
X37309523Y-77727200D02*
X37166666Y-77774819D01*
X37166666Y-77774819D02*
X37071428Y-77774819D01*
X37071428Y-77774819D02*
X36928571Y-77727200D01*
X36928571Y-77727200D02*
X36833333Y-77631961D01*
X36833333Y-77631961D02*
X36785714Y-77536723D01*
X36785714Y-77536723D02*
X36738095Y-77346247D01*
X36738095Y-77346247D02*
X36738095Y-77203390D01*
X36738095Y-77203390D02*
X36785714Y-77012914D01*
X36785714Y-77012914D02*
X36833333Y-76917676D01*
X36833333Y-76917676D02*
X36928571Y-76822438D01*
X36928571Y-76822438D02*
X37071428Y-76774819D01*
X37071428Y-76774819D02*
X37166666Y-76774819D01*
X37166666Y-76774819D02*
X37309523Y-76822438D01*
X37309523Y-76822438D02*
X37357142Y-76870057D01*
X38309523Y-77774819D02*
X37738095Y-77774819D01*
X38023809Y-77774819D02*
X38023809Y-76774819D01*
X38023809Y-76774819D02*
X37928571Y-76917676D01*
X37928571Y-76917676D02*
X37833333Y-77012914D01*
X37833333Y-77012914D02*
X37738095Y-77060533D01*
X38642857Y-76774819D02*
X39261904Y-76774819D01*
X39261904Y-76774819D02*
X38928571Y-77155771D01*
X38928571Y-77155771D02*
X39071428Y-77155771D01*
X39071428Y-77155771D02*
X39166666Y-77203390D01*
X39166666Y-77203390D02*
X39214285Y-77251009D01*
X39214285Y-77251009D02*
X39261904Y-77346247D01*
X39261904Y-77346247D02*
X39261904Y-77584342D01*
X39261904Y-77584342D02*
X39214285Y-77679580D01*
X39214285Y-77679580D02*
X39166666Y-77727200D01*
X39166666Y-77727200D02*
X39071428Y-77774819D01*
X39071428Y-77774819D02*
X38785714Y-77774819D01*
X38785714Y-77774819D02*
X38690476Y-77727200D01*
X38690476Y-77727200D02*
X38642857Y-77679580D01*
X21833333Y-83804819D02*
X21500000Y-83328628D01*
X21261905Y-83804819D02*
X21261905Y-82804819D01*
X21261905Y-82804819D02*
X21642857Y-82804819D01*
X21642857Y-82804819D02*
X21738095Y-82852438D01*
X21738095Y-82852438D02*
X21785714Y-82900057D01*
X21785714Y-82900057D02*
X21833333Y-82995295D01*
X21833333Y-82995295D02*
X21833333Y-83138152D01*
X21833333Y-83138152D02*
X21785714Y-83233390D01*
X21785714Y-83233390D02*
X21738095Y-83281009D01*
X21738095Y-83281009D02*
X21642857Y-83328628D01*
X21642857Y-83328628D02*
X21261905Y-83328628D01*
X22166667Y-82804819D02*
X22833333Y-82804819D01*
X22833333Y-82804819D02*
X22404762Y-83804819D01*
X57833333Y-98624819D02*
X57500000Y-98148628D01*
X57261905Y-98624819D02*
X57261905Y-97624819D01*
X57261905Y-97624819D02*
X57642857Y-97624819D01*
X57642857Y-97624819D02*
X57738095Y-97672438D01*
X57738095Y-97672438D02*
X57785714Y-97720057D01*
X57785714Y-97720057D02*
X57833333Y-97815295D01*
X57833333Y-97815295D02*
X57833333Y-97958152D01*
X57833333Y-97958152D02*
X57785714Y-98053390D01*
X57785714Y-98053390D02*
X57738095Y-98101009D01*
X57738095Y-98101009D02*
X57642857Y-98148628D01*
X57642857Y-98148628D02*
X57261905Y-98148628D01*
X58214286Y-97720057D02*
X58261905Y-97672438D01*
X58261905Y-97672438D02*
X58357143Y-97624819D01*
X58357143Y-97624819D02*
X58595238Y-97624819D01*
X58595238Y-97624819D02*
X58690476Y-97672438D01*
X58690476Y-97672438D02*
X58738095Y-97720057D01*
X58738095Y-97720057D02*
X58785714Y-97815295D01*
X58785714Y-97815295D02*
X58785714Y-97910533D01*
X58785714Y-97910533D02*
X58738095Y-98053390D01*
X58738095Y-98053390D02*
X58166667Y-98624819D01*
X58166667Y-98624819D02*
X58785714Y-98624819D01*
X84833333Y-50679580D02*
X84785714Y-50727200D01*
X84785714Y-50727200D02*
X84642857Y-50774819D01*
X84642857Y-50774819D02*
X84547619Y-50774819D01*
X84547619Y-50774819D02*
X84404762Y-50727200D01*
X84404762Y-50727200D02*
X84309524Y-50631961D01*
X84309524Y-50631961D02*
X84261905Y-50536723D01*
X84261905Y-50536723D02*
X84214286Y-50346247D01*
X84214286Y-50346247D02*
X84214286Y-50203390D01*
X84214286Y-50203390D02*
X84261905Y-50012914D01*
X84261905Y-50012914D02*
X84309524Y-49917676D01*
X84309524Y-49917676D02*
X84404762Y-49822438D01*
X84404762Y-49822438D02*
X84547619Y-49774819D01*
X84547619Y-49774819D02*
X84642857Y-49774819D01*
X84642857Y-49774819D02*
X84785714Y-49822438D01*
X84785714Y-49822438D02*
X84833333Y-49870057D01*
X85214286Y-49870057D02*
X85261905Y-49822438D01*
X85261905Y-49822438D02*
X85357143Y-49774819D01*
X85357143Y-49774819D02*
X85595238Y-49774819D01*
X85595238Y-49774819D02*
X85690476Y-49822438D01*
X85690476Y-49822438D02*
X85738095Y-49870057D01*
X85738095Y-49870057D02*
X85785714Y-49965295D01*
X85785714Y-49965295D02*
X85785714Y-50060533D01*
X85785714Y-50060533D02*
X85738095Y-50203390D01*
X85738095Y-50203390D02*
X85166667Y-50774819D01*
X85166667Y-50774819D02*
X85785714Y-50774819D01*
X37357142Y-27679580D02*
X37309523Y-27727200D01*
X37309523Y-27727200D02*
X37166666Y-27774819D01*
X37166666Y-27774819D02*
X37071428Y-27774819D01*
X37071428Y-27774819D02*
X36928571Y-27727200D01*
X36928571Y-27727200D02*
X36833333Y-27631961D01*
X36833333Y-27631961D02*
X36785714Y-27536723D01*
X36785714Y-27536723D02*
X36738095Y-27346247D01*
X36738095Y-27346247D02*
X36738095Y-27203390D01*
X36738095Y-27203390D02*
X36785714Y-27012914D01*
X36785714Y-27012914D02*
X36833333Y-26917676D01*
X36833333Y-26917676D02*
X36928571Y-26822438D01*
X36928571Y-26822438D02*
X37071428Y-26774819D01*
X37071428Y-26774819D02*
X37166666Y-26774819D01*
X37166666Y-26774819D02*
X37309523Y-26822438D01*
X37309523Y-26822438D02*
X37357142Y-26870057D01*
X38309523Y-27774819D02*
X37738095Y-27774819D01*
X38023809Y-27774819D02*
X38023809Y-26774819D01*
X38023809Y-26774819D02*
X37928571Y-26917676D01*
X37928571Y-26917676D02*
X37833333Y-27012914D01*
X37833333Y-27012914D02*
X37738095Y-27060533D01*
X39261904Y-27774819D02*
X38690476Y-27774819D01*
X38976190Y-27774819D02*
X38976190Y-26774819D01*
X38976190Y-26774819D02*
X38880952Y-26917676D01*
X38880952Y-26917676D02*
X38785714Y-27012914D01*
X38785714Y-27012914D02*
X38690476Y-27060533D01*
X59357142Y-60929580D02*
X59309523Y-60977200D01*
X59309523Y-60977200D02*
X59166666Y-61024819D01*
X59166666Y-61024819D02*
X59071428Y-61024819D01*
X59071428Y-61024819D02*
X58928571Y-60977200D01*
X58928571Y-60977200D02*
X58833333Y-60881961D01*
X58833333Y-60881961D02*
X58785714Y-60786723D01*
X58785714Y-60786723D02*
X58738095Y-60596247D01*
X58738095Y-60596247D02*
X58738095Y-60453390D01*
X58738095Y-60453390D02*
X58785714Y-60262914D01*
X58785714Y-60262914D02*
X58833333Y-60167676D01*
X58833333Y-60167676D02*
X58928571Y-60072438D01*
X58928571Y-60072438D02*
X59071428Y-60024819D01*
X59071428Y-60024819D02*
X59166666Y-60024819D01*
X59166666Y-60024819D02*
X59309523Y-60072438D01*
X59309523Y-60072438D02*
X59357142Y-60120057D01*
X60309523Y-61024819D02*
X59738095Y-61024819D01*
X60023809Y-61024819D02*
X60023809Y-60024819D01*
X60023809Y-60024819D02*
X59928571Y-60167676D01*
X59928571Y-60167676D02*
X59833333Y-60262914D01*
X59833333Y-60262914D02*
X59738095Y-60310533D01*
X60928571Y-60024819D02*
X61023809Y-60024819D01*
X61023809Y-60024819D02*
X61119047Y-60072438D01*
X61119047Y-60072438D02*
X61166666Y-60120057D01*
X61166666Y-60120057D02*
X61214285Y-60215295D01*
X61214285Y-60215295D02*
X61261904Y-60405771D01*
X61261904Y-60405771D02*
X61261904Y-60643866D01*
X61261904Y-60643866D02*
X61214285Y-60834342D01*
X61214285Y-60834342D02*
X61166666Y-60929580D01*
X61166666Y-60929580D02*
X61119047Y-60977200D01*
X61119047Y-60977200D02*
X61023809Y-61024819D01*
X61023809Y-61024819D02*
X60928571Y-61024819D01*
X60928571Y-61024819D02*
X60833333Y-60977200D01*
X60833333Y-60977200D02*
X60785714Y-60929580D01*
X60785714Y-60929580D02*
X60738095Y-60834342D01*
X60738095Y-60834342D02*
X60690476Y-60643866D01*
X60690476Y-60643866D02*
X60690476Y-60405771D01*
X60690476Y-60405771D02*
X60738095Y-60215295D01*
X60738095Y-60215295D02*
X60785714Y-60120057D01*
X60785714Y-60120057D02*
X60833333Y-60072438D01*
X60833333Y-60072438D02*
X60928571Y-60024819D01*
X64523809Y-57528628D02*
X64523809Y-58004819D01*
X64190476Y-57004819D02*
X64523809Y-57528628D01*
X64523809Y-57528628D02*
X64857142Y-57004819D01*
X65714285Y-58004819D02*
X65142857Y-58004819D01*
X65428571Y-58004819D02*
X65428571Y-57004819D01*
X65428571Y-57004819D02*
X65333333Y-57147676D01*
X65333333Y-57147676D02*
X65238095Y-57242914D01*
X65238095Y-57242914D02*
X65142857Y-57290533D01*
X99238095Y-76054819D02*
X99238095Y-76864342D01*
X99238095Y-76864342D02*
X99285714Y-76959580D01*
X99285714Y-76959580D02*
X99333333Y-77007200D01*
X99333333Y-77007200D02*
X99428571Y-77054819D01*
X99428571Y-77054819D02*
X99619047Y-77054819D01*
X99619047Y-77054819D02*
X99714285Y-77007200D01*
X99714285Y-77007200D02*
X99761904Y-76959580D01*
X99761904Y-76959580D02*
X99809523Y-76864342D01*
X99809523Y-76864342D02*
X99809523Y-76054819D01*
X100190476Y-76054819D02*
X100857142Y-76054819D01*
X100857142Y-76054819D02*
X100428571Y-77054819D01*
X144261905Y-87954819D02*
X144261905Y-86954819D01*
X144261905Y-86954819D02*
X144500000Y-86954819D01*
X144500000Y-86954819D02*
X144642857Y-87002438D01*
X144642857Y-87002438D02*
X144738095Y-87097676D01*
X144738095Y-87097676D02*
X144785714Y-87192914D01*
X144785714Y-87192914D02*
X144833333Y-87383390D01*
X144833333Y-87383390D02*
X144833333Y-87526247D01*
X144833333Y-87526247D02*
X144785714Y-87716723D01*
X144785714Y-87716723D02*
X144738095Y-87811961D01*
X144738095Y-87811961D02*
X144642857Y-87907200D01*
X144642857Y-87907200D02*
X144500000Y-87954819D01*
X144500000Y-87954819D02*
X144261905Y-87954819D01*
X145738095Y-86954819D02*
X145261905Y-86954819D01*
X145261905Y-86954819D02*
X145214286Y-87431009D01*
X145214286Y-87431009D02*
X145261905Y-87383390D01*
X145261905Y-87383390D02*
X145357143Y-87335771D01*
X145357143Y-87335771D02*
X145595238Y-87335771D01*
X145595238Y-87335771D02*
X145690476Y-87383390D01*
X145690476Y-87383390D02*
X145738095Y-87431009D01*
X145738095Y-87431009D02*
X145785714Y-87526247D01*
X145785714Y-87526247D02*
X145785714Y-87764342D01*
X145785714Y-87764342D02*
X145738095Y-87859580D01*
X145738095Y-87859580D02*
X145690476Y-87907200D01*
X145690476Y-87907200D02*
X145595238Y-87954819D01*
X145595238Y-87954819D02*
X145357143Y-87954819D01*
X145357143Y-87954819D02*
X145261905Y-87907200D01*
X145261905Y-87907200D02*
X145214286Y-87859580D01*
X84833333Y-66679580D02*
X84785714Y-66727200D01*
X84785714Y-66727200D02*
X84642857Y-66774819D01*
X84642857Y-66774819D02*
X84547619Y-66774819D01*
X84547619Y-66774819D02*
X84404762Y-66727200D01*
X84404762Y-66727200D02*
X84309524Y-66631961D01*
X84309524Y-66631961D02*
X84261905Y-66536723D01*
X84261905Y-66536723D02*
X84214286Y-66346247D01*
X84214286Y-66346247D02*
X84214286Y-66203390D01*
X84214286Y-66203390D02*
X84261905Y-66012914D01*
X84261905Y-66012914D02*
X84309524Y-65917676D01*
X84309524Y-65917676D02*
X84404762Y-65822438D01*
X84404762Y-65822438D02*
X84547619Y-65774819D01*
X84547619Y-65774819D02*
X84642857Y-65774819D01*
X84642857Y-65774819D02*
X84785714Y-65822438D01*
X84785714Y-65822438D02*
X84833333Y-65870057D01*
X85690476Y-66108152D02*
X85690476Y-66774819D01*
X85452381Y-65727200D02*
X85214286Y-66441485D01*
X85214286Y-66441485D02*
X85833333Y-66441485D01*
X53761905Y-86054819D02*
X53761905Y-86864342D01*
X53761905Y-86864342D02*
X53809524Y-86959580D01*
X53809524Y-86959580D02*
X53857143Y-87007200D01*
X53857143Y-87007200D02*
X53952381Y-87054819D01*
X53952381Y-87054819D02*
X54142857Y-87054819D01*
X54142857Y-87054819D02*
X54238095Y-87007200D01*
X54238095Y-87007200D02*
X54285714Y-86959580D01*
X54285714Y-86959580D02*
X54333333Y-86864342D01*
X54333333Y-86864342D02*
X54333333Y-86054819D01*
X55333333Y-87054819D02*
X54761905Y-87054819D01*
X55047619Y-87054819D02*
X55047619Y-86054819D01*
X55047619Y-86054819D02*
X54952381Y-86197676D01*
X54952381Y-86197676D02*
X54857143Y-86292914D01*
X54857143Y-86292914D02*
X54761905Y-86340533D01*
X56285714Y-87054819D02*
X55714286Y-87054819D01*
X56000000Y-87054819D02*
X56000000Y-86054819D01*
X56000000Y-86054819D02*
X55904762Y-86197676D01*
X55904762Y-86197676D02*
X55809524Y-86292914D01*
X55809524Y-86292914D02*
X55714286Y-86340533D01*
%TO.C,R4*%
D11*
X77272936Y-99090000D02*
X78727064Y-99090000D01*
X77272936Y-100910000D02*
X78727064Y-100910000D01*
%TO.C,D3*%
X111490000Y-88350000D02*
X111490000Y-91650000D01*
X111490000Y-88350000D02*
X117000000Y-88350000D01*
X111490000Y-91650000D02*
X117000000Y-91650000D01*
%TO.C,U4*%
X27940000Y-32440000D02*
X32060000Y-32440000D01*
X27940000Y-32535000D02*
X27940000Y-32440000D01*
X27940000Y-37560000D02*
X27940000Y-37465000D01*
X32060000Y-32440000D02*
X32060000Y-32535000D01*
X32060000Y-37465000D02*
X32060000Y-37560000D01*
X32060000Y-37560000D02*
X27940000Y-37560000D01*
X27400000Y-32530000D02*
X27160000Y-32200000D01*
X27640000Y-32200000D01*
X27400000Y-32530000D01*
G36*
X27400000Y-32530000D02*
G01*
X27160000Y-32200000D01*
X27640000Y-32200000D01*
X27400000Y-32530000D01*
G37*
%TO.C,D7*%
X21490000Y-64350000D02*
X21490000Y-67650000D01*
X21490000Y-64350000D02*
X27000000Y-64350000D01*
X21490000Y-67650000D02*
X27000000Y-67650000D01*
%TO.C,C5*%
X74738748Y-47265000D02*
X75261252Y-47265000D01*
X74738748Y-48735000D02*
X75261252Y-48735000D01*
%TO.C,U14*%
X64240000Y-28440000D02*
X65760000Y-28440000D01*
X64240000Y-28490000D02*
X64240000Y-28440000D01*
X64240000Y-30390000D02*
X64240000Y-29610000D01*
X64240000Y-31560000D02*
X64240000Y-31510000D01*
X65760000Y-28440000D02*
X65760000Y-29440000D01*
X65760000Y-30560000D02*
X65760000Y-31560000D01*
X65760000Y-31560000D02*
X64240000Y-31560000D01*
X63940000Y-29950000D02*
X63460000Y-29950000D01*
X63700000Y-29620000D01*
X63940000Y-29950000D01*
G36*
X63940000Y-29950000D02*
G01*
X63460000Y-29950000D01*
X63700000Y-29620000D01*
X63940000Y-29950000D01*
G37*
%TO.C,J4*%
X150900000Y-46315000D02*
X160030000Y-46315000D01*
X150900000Y-56685000D02*
X150900000Y-46315000D01*
X160030000Y-46315000D02*
X161030000Y-47315000D01*
X160030000Y-56685000D02*
X150900000Y-56685000D01*
X161030000Y-47315000D02*
X161030000Y-55685000D01*
X161030000Y-55685000D02*
X160030000Y-56685000D01*
%TO.C,U2*%
X97940000Y-24940000D02*
X102060000Y-24940000D01*
X97940000Y-24995000D02*
X97940000Y-24940000D01*
X97940000Y-35060000D02*
X97940000Y-35005000D01*
X102060000Y-24940000D02*
X102060000Y-24995000D01*
X102060000Y-35005000D02*
X102060000Y-35060000D01*
X102060000Y-35060000D02*
X97940000Y-35060000D01*
X97400000Y-24990000D02*
X97160000Y-24660000D01*
X97640000Y-24660000D01*
X97400000Y-24990000D01*
G36*
X97400000Y-24990000D02*
G01*
X97160000Y-24660000D01*
X97640000Y-24660000D01*
X97400000Y-24990000D01*
G37*
%TO.C,J2*%
X6970000Y-42315000D02*
X7970000Y-41315000D01*
X6970000Y-62685000D02*
X6970000Y-42315000D01*
X7970000Y-41315000D02*
X17100000Y-41315000D01*
X7970000Y-63685000D02*
X6970000Y-62685000D01*
X17100000Y-41315000D02*
X17100000Y-63685000D01*
X17100000Y-63685000D02*
X7970000Y-63685000D01*
%TO.C,D4*%
X126490000Y-88350000D02*
X126490000Y-91650000D01*
X126490000Y-88350000D02*
X132000000Y-88350000D01*
X126490000Y-91650000D02*
X132000000Y-91650000D01*
%TO.C,U5*%
X27940000Y-57440000D02*
X32060000Y-57440000D01*
X27940000Y-57535000D02*
X27940000Y-57440000D01*
X27940000Y-62560000D02*
X27940000Y-62465000D01*
X32060000Y-57440000D02*
X32060000Y-57535000D01*
X32060000Y-62465000D02*
X32060000Y-62560000D01*
X32060000Y-62560000D02*
X27940000Y-62560000D01*
X27400000Y-57530000D02*
X27160000Y-57200000D01*
X27640000Y-57200000D01*
X27400000Y-57530000D01*
G36*
X27400000Y-57530000D02*
G01*
X27160000Y-57200000D01*
X27640000Y-57200000D01*
X27400000Y-57530000D01*
G37*
%TO.C,U1*%
X69890000Y-54890000D02*
X70840000Y-54890000D01*
X69890000Y-55840000D02*
X69890000Y-54890000D01*
X69890000Y-65110000D02*
X69890000Y-64160000D01*
X70840000Y-65110000D02*
X69890000Y-65110000D01*
X79160000Y-54890000D02*
X80110000Y-54890000D01*
X80110000Y-54890000D02*
X80110000Y-55840000D01*
X80110000Y-64160000D02*
X80110000Y-65110000D01*
X80110000Y-65110000D02*
X79160000Y-65110000D01*
X69250000Y-55840000D02*
X68910000Y-55370000D01*
X69590000Y-55370000D01*
X69250000Y-55840000D01*
G36*
X69250000Y-55840000D02*
G01*
X68910000Y-55370000D01*
X69590000Y-55370000D01*
X69250000Y-55840000D01*
G37*
%TO.C,U3*%
X97940000Y-44940000D02*
X102060000Y-44940000D01*
X97940000Y-44995000D02*
X97940000Y-44940000D01*
X97940000Y-55060000D02*
X97940000Y-55005000D01*
X102060000Y-44940000D02*
X102060000Y-44995000D01*
X102060000Y-55005000D02*
X102060000Y-55060000D01*
X102060000Y-55060000D02*
X97940000Y-55060000D01*
X97400000Y-44990000D02*
X97160000Y-44660000D01*
X97640000Y-44660000D01*
X97400000Y-44990000D01*
G36*
X97400000Y-44990000D02*
G01*
X97160000Y-44660000D01*
X97640000Y-44660000D01*
X97400000Y-44990000D01*
G37*
%TO.C,U12*%
X72940000Y-87440000D02*
X77060000Y-87440000D01*
X72940000Y-87535000D02*
X72940000Y-87440000D01*
X72940000Y-92560000D02*
X72940000Y-92465000D01*
X77060000Y-87440000D02*
X77060000Y-87535000D01*
X77060000Y-92465000D02*
X77060000Y-92560000D01*
X77060000Y-92560000D02*
X72940000Y-92560000D01*
X72400000Y-87530000D02*
X72160000Y-87200000D01*
X72640000Y-87200000D01*
X72400000Y-87530000D01*
G36*
X72400000Y-87530000D02*
G01*
X72160000Y-87200000D01*
X72640000Y-87200000D01*
X72400000Y-87530000D01*
G37*
%TO.C,C6*%
X74738748Y-71265000D02*
X75261252Y-71265000D01*
X74738748Y-72735000D02*
X75261252Y-72735000D01*
%TO.C,D8*%
X21490000Y-89350000D02*
X21490000Y-92650000D01*
X21490000Y-89350000D02*
X27000000Y-89350000D01*
X21490000Y-92650000D02*
X27000000Y-92650000D01*
%TO.C,U13*%
X47940000Y-27440000D02*
X52060000Y-27440000D01*
X47940000Y-27535000D02*
X47940000Y-27440000D01*
X47940000Y-32560000D02*
X47940000Y-32465000D01*
X52060000Y-27440000D02*
X52060000Y-27535000D01*
X52060000Y-32465000D02*
X52060000Y-32560000D01*
X52060000Y-32560000D02*
X47940000Y-32560000D01*
X47400000Y-27530000D02*
X47160000Y-27200000D01*
X47640000Y-27200000D01*
X47400000Y-27530000D01*
G36*
X47400000Y-27530000D02*
G01*
X47160000Y-27200000D01*
X47640000Y-27200000D01*
X47400000Y-27530000D01*
G37*
%TO.C,R1*%
X49272936Y-99090000D02*
X50727064Y-99090000D01*
X49272936Y-100910000D02*
X50727064Y-100910000D01*
%TO.C,R3*%
X69272936Y-99090000D02*
X70727064Y-99090000D01*
X69272936Y-100910000D02*
X70727064Y-100910000D01*
%TO.C,J3*%
X150900000Y-26315000D02*
X160030000Y-26315000D01*
X150900000Y-36685000D02*
X150900000Y-26315000D01*
X160030000Y-26315000D02*
X161030000Y-27315000D01*
X160030000Y-36685000D02*
X150900000Y-36685000D01*
X161030000Y-27315000D02*
X161030000Y-35685000D01*
X161030000Y-35685000D02*
X160030000Y-36685000D01*
%TO.C,C9*%
X59859420Y-57490000D02*
X60140580Y-57490000D01*
X59859420Y-58510000D02*
X60140580Y-58510000D01*
%TO.C,C12*%
X37738748Y-53265000D02*
X38261252Y-53265000D01*
X37738748Y-54735000D02*
X38261252Y-54735000D01*
%TO.C,D2*%
X96490000Y-88350000D02*
X96490000Y-91650000D01*
X96490000Y-88350000D02*
X102000000Y-88350000D01*
X96490000Y-91650000D02*
X102000000Y-91650000D01*
%TO.C,U10*%
X142940000Y-77440000D02*
X147060000Y-77440000D01*
X142940000Y-77535000D02*
X142940000Y-77440000D01*
X142940000Y-82560000D02*
X142940000Y-82465000D01*
X147060000Y-77440000D02*
X147060000Y-77535000D01*
X147060000Y-82465000D02*
X147060000Y-82560000D01*
X147060000Y-82560000D02*
X142940000Y-82560000D01*
X142400000Y-77530000D02*
X142160000Y-77200000D01*
X142640000Y-77200000D01*
X142400000Y-77530000D01*
G36*
X142400000Y-77530000D02*
G01*
X142160000Y-77200000D01*
X142640000Y-77200000D01*
X142400000Y-77530000D01*
G37*
%TO.C,T2*%
X122940000Y-44940000D02*
X127060000Y-44940000D01*
X122940000Y-44995000D02*
X122940000Y-44940000D01*
X122940000Y-55060000D02*
X122940000Y-55005000D01*
X127060000Y-44940000D02*
X127060000Y-44995000D01*
X127060000Y-55005000D02*
X127060000Y-55060000D01*
X127060000Y-55060000D02*
X122940000Y-55060000D01*
X122400000Y-44990000D02*
X122160000Y-44660000D01*
X122640000Y-44660000D01*
X122400000Y-44990000D01*
G36*
X122400000Y-44990000D02*
G01*
X122160000Y-44660000D01*
X122640000Y-44660000D01*
X122400000Y-44990000D01*
G37*
%TO.C,R6*%
X21772936Y-59265000D02*
X22227064Y-59265000D01*
X21772936Y-60735000D02*
X22227064Y-60735000D01*
%TO.C,U9*%
X127940000Y-77440000D02*
X132060000Y-77440000D01*
X127940000Y-77535000D02*
X127940000Y-77440000D01*
X127940000Y-82560000D02*
X127940000Y-82465000D01*
X132060000Y-77440000D02*
X132060000Y-77535000D01*
X132060000Y-82465000D02*
X132060000Y-82560000D01*
X132060000Y-82560000D02*
X127940000Y-82560000D01*
X127400000Y-77530000D02*
X127160000Y-77200000D01*
X127640000Y-77200000D01*
X127400000Y-77530000D01*
G36*
X127400000Y-77530000D02*
G01*
X127160000Y-77200000D01*
X127640000Y-77200000D01*
X127400000Y-77530000D01*
G37*
%TO.C,U6*%
X27940000Y-82440000D02*
X32060000Y-82440000D01*
X27940000Y-82535000D02*
X27940000Y-82440000D01*
X27940000Y-87560000D02*
X27940000Y-87465000D01*
X32060000Y-82440000D02*
X32060000Y-82535000D01*
X32060000Y-87465000D02*
X32060000Y-87560000D01*
X32060000Y-87560000D02*
X27940000Y-87560000D01*
X27400000Y-82530000D02*
X27160000Y-82200000D01*
X27640000Y-82200000D01*
X27400000Y-82530000D01*
G36*
X27400000Y-82530000D02*
G01*
X27160000Y-82200000D01*
X27640000Y-82200000D01*
X27400000Y-82530000D01*
G37*
%TO.C,T1*%
X122940000Y-24940000D02*
X127060000Y-24940000D01*
X122940000Y-24995000D02*
X122940000Y-24940000D01*
X122940000Y-35060000D02*
X122940000Y-35005000D01*
X127060000Y-24940000D02*
X127060000Y-24995000D01*
X127060000Y-35005000D02*
X127060000Y-35060000D01*
X127060000Y-35060000D02*
X122940000Y-35060000D01*
X122400000Y-24990000D02*
X122160000Y-24660000D01*
X122640000Y-24660000D01*
X122400000Y-24990000D01*
G36*
X122400000Y-24990000D02*
G01*
X122160000Y-24660000D01*
X122640000Y-24660000D01*
X122400000Y-24990000D01*
G37*
%TO.C,D1*%
X36340000Y-17850000D02*
X36340000Y-22150000D01*
X36340000Y-17850000D02*
X42150000Y-17850000D01*
X36340000Y-22150000D02*
X42150000Y-22150000D01*
%TO.C,D6*%
X21490000Y-39350000D02*
X21490000Y-42650000D01*
X21490000Y-39350000D02*
X27000000Y-39350000D01*
X21490000Y-42650000D02*
X27000000Y-42650000D01*
%TO.C,C1*%
X64738748Y-51265000D02*
X65261252Y-51265000D01*
X64738748Y-52735000D02*
X65261252Y-52735000D01*
%TO.C,J1*%
X121950000Y-99400000D02*
X121950000Y-102250000D01*
X122190000Y-99640000D02*
X122190000Y-109460000D01*
X122190000Y-109460000D02*
X129490000Y-109460000D01*
X124800000Y-99400000D02*
X121950000Y-99400000D01*
X129490000Y-109460000D02*
X129490000Y-110860000D01*
X129490000Y-110860000D02*
X131300000Y-110860000D01*
X131300000Y-99640000D02*
X122190000Y-99640000D01*
X131300000Y-99640000D02*
X140410000Y-99640000D01*
X133110000Y-109460000D02*
X133110000Y-110860000D01*
X133110000Y-110860000D02*
X131300000Y-110860000D01*
X140410000Y-99640000D02*
X140410000Y-109460000D01*
X140410000Y-109460000D02*
X133110000Y-109460000D01*
%TO.C,R5*%
X21772936Y-34265000D02*
X22227064Y-34265000D01*
X21772936Y-35735000D02*
X22227064Y-35735000D01*
%TO.C,C3*%
X64738748Y-67265000D02*
X65261252Y-67265000D01*
X64738748Y-68735000D02*
X65261252Y-68735000D01*
%TO.C,U8*%
X112940000Y-77440000D02*
X117060000Y-77440000D01*
X112940000Y-77535000D02*
X112940000Y-77440000D01*
X112940000Y-82560000D02*
X112940000Y-82465000D01*
X117060000Y-77440000D02*
X117060000Y-77535000D01*
X117060000Y-82465000D02*
X117060000Y-82560000D01*
X117060000Y-82560000D02*
X112940000Y-82560000D01*
X112400000Y-77530000D02*
X112160000Y-77200000D01*
X112640000Y-77200000D01*
X112400000Y-77530000D01*
G36*
X112400000Y-77530000D02*
G01*
X112160000Y-77200000D01*
X112640000Y-77200000D01*
X112400000Y-77530000D01*
G37*
%TO.C,C13*%
X37738748Y-78265000D02*
X38261252Y-78265000D01*
X37738748Y-79735000D02*
X38261252Y-79735000D01*
%TO.C,R7*%
X21772936Y-84265000D02*
X22227064Y-84265000D01*
X21772936Y-85735000D02*
X22227064Y-85735000D01*
%TO.C,R2*%
X57272936Y-99090000D02*
X58727064Y-99090000D01*
X57272936Y-100910000D02*
X58727064Y-100910000D01*
%TO.C,C2*%
X84738748Y-51265000D02*
X85261252Y-51265000D01*
X84738748Y-52735000D02*
X85261252Y-52735000D01*
%TO.C,C11*%
X37738748Y-28265000D02*
X38261252Y-28265000D01*
X37738748Y-29735000D02*
X38261252Y-29735000D01*
%TO.C,C10*%
X59859420Y-61490000D02*
X60140580Y-61490000D01*
X59859420Y-62510000D02*
X60140580Y-62510000D01*
%TO.C,Y1*%
X62940000Y-58290000D02*
X62940000Y-61710000D01*
X62940000Y-61710000D02*
X67060000Y-61710000D01*
%TO.C,U7*%
X97940000Y-77440000D02*
X102060000Y-77440000D01*
X97940000Y-77535000D02*
X97940000Y-77440000D01*
X97940000Y-82560000D02*
X97940000Y-82465000D01*
X102060000Y-77440000D02*
X102060000Y-77535000D01*
X102060000Y-82465000D02*
X102060000Y-82560000D01*
X102060000Y-82560000D02*
X97940000Y-82560000D01*
X97400000Y-77530000D02*
X97160000Y-77200000D01*
X97640000Y-77200000D01*
X97400000Y-77530000D01*
G36*
X97400000Y-77530000D02*
G01*
X97160000Y-77200000D01*
X97640000Y-77200000D01*
X97400000Y-77530000D01*
G37*
%TO.C,D5*%
X141490000Y-88350000D02*
X141490000Y-91650000D01*
X141490000Y-88350000D02*
X147000000Y-88350000D01*
X141490000Y-91650000D02*
X147000000Y-91650000D01*
%TO.C,C4*%
X84738748Y-67265000D02*
X85261252Y-67265000D01*
X84738748Y-68735000D02*
X85261252Y-68735000D01*
%TO.C,U11*%
X52940000Y-87440000D02*
X57060000Y-87440000D01*
X52940000Y-87535000D02*
X52940000Y-87440000D01*
X52940000Y-92560000D02*
X52940000Y-92465000D01*
X57060000Y-87440000D02*
X57060000Y-87535000D01*
X57060000Y-92465000D02*
X57060000Y-92560000D01*
X57060000Y-92560000D02*
X52940000Y-92560000D01*
X52400000Y-87530000D02*
X52160000Y-87200000D01*
X52640000Y-87200000D01*
X52400000Y-87530000D01*
G36*
X52400000Y-87530000D02*
G01*
X52160000Y-87200000D01*
X52640000Y-87200000D01*
X52400000Y-87530000D01*
G37*
%TD*%
M02*
