M48
; DRILL file KiCad 10.0.1 date 2026-08-18T00:17:20
; FORMAT={-:-/ absolute / metric / decimal}
; #@! TF.CreationDate,2026-08-18T00:17:20+05:00
; #@! TF.GenerationSoftware,Kicad,Pcbnew,10.0.1
; #@! TF.FileFunction,Plated,1,2,PTH
FMAT,2
METRIC
; #@! TA.AperFunction,Plated,PTH,ComponentDrill
T1C1.020
%
G90
G05
T1
X14.0Y-27.0
X14.0Y-30.0
X14.0Y-47.0
X14.0Y-50.0
X17.0Y-27.0
X17.0Y-30.0
X17.0Y-47.0
X17.0Y-50.0
X55.0Y-20.0
X55.0Y-23.0
X58.0Y-20.0
X58.0Y-23.0
X61.0Y-20.0
X61.0Y-23.0
X64.0Y-20.0
X64.0Y-23.0
X67.0Y-20.0
X67.0Y-23.0
X70.0Y-20.0
X70.0Y-23.0
X139.0Y-55.0
X139.0Y-58.0
X139.0Y-61.0
X139.0Y-64.0
X139.0Y-67.0
X139.0Y-70.0
X139.0Y-73.0
X139.0Y-76.0
X139.0Y-79.0
X139.0Y-82.0
X142.0Y-55.0
X142.0Y-58.0
X142.0Y-61.0
X142.0Y-64.0
X142.0Y-67.0
X142.0Y-70.0
X142.0Y-73.0
X142.0Y-76.0
X142.0Y-79.0
X142.0Y-82.0
M30
