%TF.GenerationSoftware,KiCad,Pcbnew,10.0.1*%
%TF.CreationDate,2026-08-18T00:17:20+05:00*%
%TF.ProjectId,Slave_AFE_18s,536c6176-655f-4414-9645-5f3138732e6b,rev?*%
%TF.SameCoordinates,Original*%
%TF.FileFunction,Soldermask,Bot*%
%TF.FilePolarity,Negative*%
%FSLAX46Y46*%
G04 Gerber Fmt 4.6, Leading zero omitted, Abs format (unit mm)*
G04 Created by KiCad (PCBNEW 10.0.1) date 2026-08-18 00:17:20*
%MOMM*%
%LPD*%
G01*
G04 APERTURE LIST*
G04 Aperture macros list*
%AMRoundRect*
0 Rectangle with rounded corners*
0 $1 Rounding radius*
0 $2 $3 $4 $5 $6 $7 $8 $9 X,Y pos of 4 corners*
0 Add a 4 corners polygon primitive as box body*
4,1,4,$2,$3,$4,$5,$6,$7,$8,$9,$2,$3,0*
0 Add four circle primitives for the rounded corners*
1,1,$1+$1,$2,$3*
1,1,$1+$1,$4,$5*
1,1,$1+$1,$6,$7*
1,1,$1+$1,$8,$9*
0 Add four rect primitives between the rounded corners*
20,1,$1+$1,$2,$3,$4,$5,0*
20,1,$1+$1,$4,$5,$6,$7,0*
20,1,$1+$1,$6,$7,$8,$9,0*
20,1,$1+$1,$8,$9,$2,$3,0*%
G04 Aperture macros list end*
%ADD10C,3.000000*%
%ADD11RoundRect,0.250001X-0.499999X-0.499999X0.499999X-0.499999X0.499999X0.499999X-0.499999X0.499999X0*%
%ADD12C,1.500000*%
%ADD13C,3.200000*%
%ADD14RoundRect,0.250001X0.499999X-0.499999X0.499999X0.499999X-0.499999X0.499999X-0.499999X-0.499999X0*%
%ADD15RoundRect,0.250001X-0.499999X0.499999X-0.499999X-0.499999X0.499999X-0.499999X0.499999X0.499999X0*%
G04 APERTURE END LIST*
D10*
%TO.C,J2*%
X57160000Y-15680000D03*
X67860000Y-15680000D03*
D11*
X55000000Y-20000000D03*
D12*
X58000000Y-20000000D03*
X61000000Y-20000000D03*
X64000000Y-20000000D03*
X67000000Y-20000000D03*
X70000000Y-20000000D03*
X55000000Y-23000000D03*
X58000000Y-23000000D03*
X61000000Y-23000000D03*
X64000000Y-23000000D03*
X67000000Y-23000000D03*
X70000000Y-23000000D03*
%TD*%
D13*
%TO.C,H2*%
X144000000Y-16000000D03*
%TD*%
%TO.C,H4*%
X144000000Y-94000000D03*
%TD*%
D10*
%TO.C,J4*%
X9680000Y-48500000D03*
D14*
X14000000Y-50000000D03*
D12*
X14000000Y-47000000D03*
X17000000Y-50000000D03*
X17000000Y-47000000D03*
%TD*%
D10*
%TO.C,J3*%
X9680000Y-28500000D03*
D14*
X14000000Y-30000000D03*
D12*
X14000000Y-27000000D03*
X17000000Y-30000000D03*
X17000000Y-27000000D03*
%TD*%
D13*
%TO.C,H1*%
X16000000Y-16000000D03*
%TD*%
D10*
%TO.C,J1*%
X146320000Y-57160000D03*
X146320000Y-79860000D03*
D15*
X142000000Y-55000000D03*
D12*
X142000000Y-58000000D03*
X142000000Y-61000000D03*
X142000000Y-64000000D03*
X142000000Y-67000000D03*
X142000000Y-70000000D03*
X142000000Y-73000000D03*
X142000000Y-76000000D03*
X142000000Y-79000000D03*
X142000000Y-82000000D03*
X139000000Y-55000000D03*
X139000000Y-58000000D03*
X139000000Y-61000000D03*
X139000000Y-64000000D03*
X139000000Y-67000000D03*
X139000000Y-70000000D03*
X139000000Y-73000000D03*
X139000000Y-76000000D03*
X139000000Y-79000000D03*
X139000000Y-82000000D03*
%TD*%
D13*
%TO.C,H3*%
X16000000Y-94000000D03*
%TD*%
M02*
