%TF.GenerationSoftware,KiCad,Pcbnew,10.0.1*%
%TF.CreationDate,2026-08-18T00:08:34+05:00*%
%TF.ProjectId,Slave_AFE_18s,536c6176-655f-4414-9645-5f3138732e6b,v1.0*%
%TF.SameCoordinates,Original*%
%TF.FileFunction,Legend,Top*%
%TF.FilePolarity,Positive*%
%FSLAX46Y46*%
G04 Gerber Fmt 4.6, Leading zero omitted, Abs format (unit mm)*
G04 Created by KiCad (PCBNEW 10.0.1) date 2026-08-18 00:08:34*
%MOMM*%
%LPD*%
G01*
G04 APERTURE LIST*
%ADD10C,0.200000*%
%ADD11C,0.150000*%
%ADD12C,0.158750*%
G04 APERTURE END LIST*
D10*
X52678574Y-24183528D02*
X52964288Y-24183528D01*
X52964288Y-24183528D02*
X53107145Y-24254957D01*
X53107145Y-24254957D02*
X53250002Y-24397814D01*
X53250002Y-24397814D02*
X53321431Y-24683528D01*
X53321431Y-24683528D02*
X53321431Y-25183528D01*
X53321431Y-25183528D02*
X53250002Y-25469242D01*
X53250002Y-25469242D02*
X53107145Y-25612100D01*
X53107145Y-25612100D02*
X52964288Y-25683528D01*
X52964288Y-25683528D02*
X52678574Y-25683528D01*
X52678574Y-25683528D02*
X52535717Y-25612100D01*
X52535717Y-25612100D02*
X52392859Y-25469242D01*
X52392859Y-25469242D02*
X52321431Y-25183528D01*
X52321431Y-25183528D02*
X52321431Y-24683528D01*
X52321431Y-24683528D02*
X52392859Y-24397814D01*
X52392859Y-24397814D02*
X52535717Y-24254957D01*
X52535717Y-24254957D02*
X52678574Y-24183528D01*
X53964288Y-24683528D02*
X53964288Y-26183528D01*
X53964288Y-24754957D02*
X54107146Y-24683528D01*
X54107146Y-24683528D02*
X54392860Y-24683528D01*
X54392860Y-24683528D02*
X54535717Y-24754957D01*
X54535717Y-24754957D02*
X54607146Y-24826385D01*
X54607146Y-24826385D02*
X54678574Y-24969242D01*
X54678574Y-24969242D02*
X54678574Y-25397814D01*
X54678574Y-25397814D02*
X54607146Y-25540671D01*
X54607146Y-25540671D02*
X54535717Y-25612100D01*
X54535717Y-25612100D02*
X54392860Y-25683528D01*
X54392860Y-25683528D02*
X54107146Y-25683528D01*
X54107146Y-25683528D02*
X53964288Y-25612100D01*
X55892860Y-25612100D02*
X55750003Y-25683528D01*
X55750003Y-25683528D02*
X55464289Y-25683528D01*
X55464289Y-25683528D02*
X55321431Y-25612100D01*
X55321431Y-25612100D02*
X55250003Y-25469242D01*
X55250003Y-25469242D02*
X55250003Y-24897814D01*
X55250003Y-24897814D02*
X55321431Y-24754957D01*
X55321431Y-24754957D02*
X55464289Y-24683528D01*
X55464289Y-24683528D02*
X55750003Y-24683528D01*
X55750003Y-24683528D02*
X55892860Y-24754957D01*
X55892860Y-24754957D02*
X55964289Y-24897814D01*
X55964289Y-24897814D02*
X55964289Y-25040671D01*
X55964289Y-25040671D02*
X55250003Y-25183528D01*
X56607145Y-24683528D02*
X56607145Y-25683528D01*
X56607145Y-24826385D02*
X56678574Y-24754957D01*
X56678574Y-24754957D02*
X56821431Y-24683528D01*
X56821431Y-24683528D02*
X57035717Y-24683528D01*
X57035717Y-24683528D02*
X57178574Y-24754957D01*
X57178574Y-24754957D02*
X57250003Y-24897814D01*
X57250003Y-24897814D02*
X57250003Y-25683528D01*
X57964288Y-24897814D02*
X58464288Y-24897814D01*
X58678574Y-25683528D02*
X57964288Y-25683528D01*
X57964288Y-25683528D02*
X57964288Y-24183528D01*
X57964288Y-24183528D02*
X58678574Y-24183528D01*
X59107146Y-24183528D02*
X59607146Y-25683528D01*
X59607146Y-25683528D02*
X60107146Y-24183528D01*
X60607145Y-25112100D02*
X61750003Y-25112100D01*
X62964288Y-24897814D02*
X63178574Y-24969242D01*
X63178574Y-24969242D02*
X63250003Y-25040671D01*
X63250003Y-25040671D02*
X63321431Y-25183528D01*
X63321431Y-25183528D02*
X63321431Y-25397814D01*
X63321431Y-25397814D02*
X63250003Y-25540671D01*
X63250003Y-25540671D02*
X63178574Y-25612100D01*
X63178574Y-25612100D02*
X63035717Y-25683528D01*
X63035717Y-25683528D02*
X62464288Y-25683528D01*
X62464288Y-25683528D02*
X62464288Y-24183528D01*
X62464288Y-24183528D02*
X62964288Y-24183528D01*
X62964288Y-24183528D02*
X63107146Y-24254957D01*
X63107146Y-24254957D02*
X63178574Y-24326385D01*
X63178574Y-24326385D02*
X63250003Y-24469242D01*
X63250003Y-24469242D02*
X63250003Y-24612100D01*
X63250003Y-24612100D02*
X63178574Y-24754957D01*
X63178574Y-24754957D02*
X63107146Y-24826385D01*
X63107146Y-24826385D02*
X62964288Y-24897814D01*
X62964288Y-24897814D02*
X62464288Y-24897814D01*
X63964288Y-25683528D02*
X63964288Y-24183528D01*
X63964288Y-24183528D02*
X64464288Y-25254957D01*
X64464288Y-25254957D02*
X64964288Y-24183528D01*
X64964288Y-24183528D02*
X64964288Y-25683528D01*
X65607146Y-25612100D02*
X65821432Y-25683528D01*
X65821432Y-25683528D02*
X66178574Y-25683528D01*
X66178574Y-25683528D02*
X66321432Y-25612100D01*
X66321432Y-25612100D02*
X66392860Y-25540671D01*
X66392860Y-25540671D02*
X66464289Y-25397814D01*
X66464289Y-25397814D02*
X66464289Y-25254957D01*
X66464289Y-25254957D02*
X66392860Y-25112100D01*
X66392860Y-25112100D02*
X66321432Y-25040671D01*
X66321432Y-25040671D02*
X66178574Y-24969242D01*
X66178574Y-24969242D02*
X65892860Y-24897814D01*
X65892860Y-24897814D02*
X65750003Y-24826385D01*
X65750003Y-24826385D02*
X65678574Y-24754957D01*
X65678574Y-24754957D02*
X65607146Y-24612100D01*
X65607146Y-24612100D02*
X65607146Y-24469242D01*
X65607146Y-24469242D02*
X65678574Y-24326385D01*
X65678574Y-24326385D02*
X65750003Y-24254957D01*
X65750003Y-24254957D02*
X65892860Y-24183528D01*
X65892860Y-24183528D02*
X66250003Y-24183528D01*
X66250003Y-24183528D02*
X66464289Y-24254957D01*
X69035717Y-25683528D02*
X68178574Y-25683528D01*
X68607145Y-25683528D02*
X68607145Y-24183528D01*
X68607145Y-24183528D02*
X68464288Y-24397814D01*
X68464288Y-24397814D02*
X68321431Y-24540671D01*
X68321431Y-24540671D02*
X68178574Y-24612100D01*
X69892859Y-24826385D02*
X69750002Y-24754957D01*
X69750002Y-24754957D02*
X69678573Y-24683528D01*
X69678573Y-24683528D02*
X69607145Y-24540671D01*
X69607145Y-24540671D02*
X69607145Y-24469242D01*
X69607145Y-24469242D02*
X69678573Y-24326385D01*
X69678573Y-24326385D02*
X69750002Y-24254957D01*
X69750002Y-24254957D02*
X69892859Y-24183528D01*
X69892859Y-24183528D02*
X70178573Y-24183528D01*
X70178573Y-24183528D02*
X70321431Y-24254957D01*
X70321431Y-24254957D02*
X70392859Y-24326385D01*
X70392859Y-24326385D02*
X70464288Y-24469242D01*
X70464288Y-24469242D02*
X70464288Y-24540671D01*
X70464288Y-24540671D02*
X70392859Y-24683528D01*
X70392859Y-24683528D02*
X70321431Y-24754957D01*
X70321431Y-24754957D02*
X70178573Y-24826385D01*
X70178573Y-24826385D02*
X69892859Y-24826385D01*
X69892859Y-24826385D02*
X69750002Y-24897814D01*
X69750002Y-24897814D02*
X69678573Y-24969242D01*
X69678573Y-24969242D02*
X69607145Y-25112100D01*
X69607145Y-25112100D02*
X69607145Y-25397814D01*
X69607145Y-25397814D02*
X69678573Y-25540671D01*
X69678573Y-25540671D02*
X69750002Y-25612100D01*
X69750002Y-25612100D02*
X69892859Y-25683528D01*
X69892859Y-25683528D02*
X70178573Y-25683528D01*
X70178573Y-25683528D02*
X70321431Y-25612100D01*
X70321431Y-25612100D02*
X70392859Y-25540671D01*
X70392859Y-25540671D02*
X70464288Y-25397814D01*
X70464288Y-25397814D02*
X70464288Y-25112100D01*
X70464288Y-25112100D02*
X70392859Y-24969242D01*
X70392859Y-24969242D02*
X70321431Y-24897814D01*
X70321431Y-24897814D02*
X70178573Y-24826385D01*
X71035716Y-25612100D02*
X71178573Y-25683528D01*
X71178573Y-25683528D02*
X71464287Y-25683528D01*
X71464287Y-25683528D02*
X71607144Y-25612100D01*
X71607144Y-25612100D02*
X71678573Y-25469242D01*
X71678573Y-25469242D02*
X71678573Y-25397814D01*
X71678573Y-25397814D02*
X71607144Y-25254957D01*
X71607144Y-25254957D02*
X71464287Y-25183528D01*
X71464287Y-25183528D02*
X71250002Y-25183528D01*
X71250002Y-25183528D02*
X71107144Y-25112100D01*
X71107144Y-25112100D02*
X71035716Y-24969242D01*
X71035716Y-24969242D02*
X71035716Y-24897814D01*
X71035716Y-24897814D02*
X71107144Y-24754957D01*
X71107144Y-24754957D02*
X71250002Y-24683528D01*
X71250002Y-24683528D02*
X71464287Y-24683528D01*
X71464287Y-24683528D02*
X71607144Y-24754957D01*
X74178573Y-25683528D02*
X73464287Y-25683528D01*
X73464287Y-25683528D02*
X73464287Y-24183528D01*
X74464288Y-24183528D02*
X75321431Y-24183528D01*
X74892859Y-25683528D02*
X74892859Y-24183528D01*
X76678573Y-25540671D02*
X76607145Y-25612100D01*
X76607145Y-25612100D02*
X76392859Y-25683528D01*
X76392859Y-25683528D02*
X76250002Y-25683528D01*
X76250002Y-25683528D02*
X76035716Y-25612100D01*
X76035716Y-25612100D02*
X75892859Y-25469242D01*
X75892859Y-25469242D02*
X75821430Y-25326385D01*
X75821430Y-25326385D02*
X75750002Y-25040671D01*
X75750002Y-25040671D02*
X75750002Y-24826385D01*
X75750002Y-24826385D02*
X75821430Y-24540671D01*
X75821430Y-24540671D02*
X75892859Y-24397814D01*
X75892859Y-24397814D02*
X76035716Y-24254957D01*
X76035716Y-24254957D02*
X76250002Y-24183528D01*
X76250002Y-24183528D02*
X76392859Y-24183528D01*
X76392859Y-24183528D02*
X76607145Y-24254957D01*
X76607145Y-24254957D02*
X76678573Y-24326385D01*
X77964288Y-24183528D02*
X77678573Y-24183528D01*
X77678573Y-24183528D02*
X77535716Y-24254957D01*
X77535716Y-24254957D02*
X77464288Y-24326385D01*
X77464288Y-24326385D02*
X77321430Y-24540671D01*
X77321430Y-24540671D02*
X77250002Y-24826385D01*
X77250002Y-24826385D02*
X77250002Y-25397814D01*
X77250002Y-25397814D02*
X77321430Y-25540671D01*
X77321430Y-25540671D02*
X77392859Y-25612100D01*
X77392859Y-25612100D02*
X77535716Y-25683528D01*
X77535716Y-25683528D02*
X77821430Y-25683528D01*
X77821430Y-25683528D02*
X77964288Y-25612100D01*
X77964288Y-25612100D02*
X78035716Y-25540671D01*
X78035716Y-25540671D02*
X78107145Y-25397814D01*
X78107145Y-25397814D02*
X78107145Y-25040671D01*
X78107145Y-25040671D02*
X78035716Y-24897814D01*
X78035716Y-24897814D02*
X77964288Y-24826385D01*
X77964288Y-24826385D02*
X77821430Y-24754957D01*
X77821430Y-24754957D02*
X77535716Y-24754957D01*
X77535716Y-24754957D02*
X77392859Y-24826385D01*
X77392859Y-24826385D02*
X77321430Y-24897814D01*
X77321430Y-24897814D02*
X77250002Y-25040671D01*
X78964287Y-24826385D02*
X78821430Y-24754957D01*
X78821430Y-24754957D02*
X78750001Y-24683528D01*
X78750001Y-24683528D02*
X78678573Y-24540671D01*
X78678573Y-24540671D02*
X78678573Y-24469242D01*
X78678573Y-24469242D02*
X78750001Y-24326385D01*
X78750001Y-24326385D02*
X78821430Y-24254957D01*
X78821430Y-24254957D02*
X78964287Y-24183528D01*
X78964287Y-24183528D02*
X79250001Y-24183528D01*
X79250001Y-24183528D02*
X79392859Y-24254957D01*
X79392859Y-24254957D02*
X79464287Y-24326385D01*
X79464287Y-24326385D02*
X79535716Y-24469242D01*
X79535716Y-24469242D02*
X79535716Y-24540671D01*
X79535716Y-24540671D02*
X79464287Y-24683528D01*
X79464287Y-24683528D02*
X79392859Y-24754957D01*
X79392859Y-24754957D02*
X79250001Y-24826385D01*
X79250001Y-24826385D02*
X78964287Y-24826385D01*
X78964287Y-24826385D02*
X78821430Y-24897814D01*
X78821430Y-24897814D02*
X78750001Y-24969242D01*
X78750001Y-24969242D02*
X78678573Y-25112100D01*
X78678573Y-25112100D02*
X78678573Y-25397814D01*
X78678573Y-25397814D02*
X78750001Y-25540671D01*
X78750001Y-25540671D02*
X78821430Y-25612100D01*
X78821430Y-25612100D02*
X78964287Y-25683528D01*
X78964287Y-25683528D02*
X79250001Y-25683528D01*
X79250001Y-25683528D02*
X79392859Y-25612100D01*
X79392859Y-25612100D02*
X79464287Y-25540671D01*
X79464287Y-25540671D02*
X79535716Y-25397814D01*
X79535716Y-25397814D02*
X79535716Y-25112100D01*
X79535716Y-25112100D02*
X79464287Y-24969242D01*
X79464287Y-24969242D02*
X79392859Y-24897814D01*
X79392859Y-24897814D02*
X79250001Y-24826385D01*
X80964287Y-25683528D02*
X80107144Y-25683528D01*
X80535715Y-25683528D02*
X80535715Y-24183528D01*
X80535715Y-24183528D02*
X80392858Y-24397814D01*
X80392858Y-24397814D02*
X80250001Y-24540671D01*
X80250001Y-24540671D02*
X80107144Y-24612100D01*
X81464286Y-24183528D02*
X82392858Y-24183528D01*
X82392858Y-24183528D02*
X81892858Y-24754957D01*
X81892858Y-24754957D02*
X82107143Y-24754957D01*
X82107143Y-24754957D02*
X82250001Y-24826385D01*
X82250001Y-24826385D02*
X82321429Y-24897814D01*
X82321429Y-24897814D02*
X82392858Y-25040671D01*
X82392858Y-25040671D02*
X82392858Y-25397814D01*
X82392858Y-25397814D02*
X82321429Y-25540671D01*
X82321429Y-25540671D02*
X82250001Y-25612100D01*
X82250001Y-25612100D02*
X82107143Y-25683528D01*
X82107143Y-25683528D02*
X81678572Y-25683528D01*
X81678572Y-25683528D02*
X81535715Y-25612100D01*
X81535715Y-25612100D02*
X81464286Y-25540671D01*
X83035714Y-25112100D02*
X84178572Y-25112100D01*
X85678572Y-25683528D02*
X84821429Y-25683528D01*
X85250000Y-25683528D02*
X85250000Y-24183528D01*
X85250000Y-24183528D02*
X85107143Y-24397814D01*
X85107143Y-24397814D02*
X84964286Y-24540671D01*
X84964286Y-24540671D02*
X84821429Y-24612100D01*
X87392857Y-25612100D02*
X87607143Y-25683528D01*
X87607143Y-25683528D02*
X87964285Y-25683528D01*
X87964285Y-25683528D02*
X88107143Y-25612100D01*
X88107143Y-25612100D02*
X88178571Y-25540671D01*
X88178571Y-25540671D02*
X88250000Y-25397814D01*
X88250000Y-25397814D02*
X88250000Y-25254957D01*
X88250000Y-25254957D02*
X88178571Y-25112100D01*
X88178571Y-25112100D02*
X88107143Y-25040671D01*
X88107143Y-25040671D02*
X87964285Y-24969242D01*
X87964285Y-24969242D02*
X87678571Y-24897814D01*
X87678571Y-24897814D02*
X87535714Y-24826385D01*
X87535714Y-24826385D02*
X87464285Y-24754957D01*
X87464285Y-24754957D02*
X87392857Y-24612100D01*
X87392857Y-24612100D02*
X87392857Y-24469242D01*
X87392857Y-24469242D02*
X87464285Y-24326385D01*
X87464285Y-24326385D02*
X87535714Y-24254957D01*
X87535714Y-24254957D02*
X87678571Y-24183528D01*
X87678571Y-24183528D02*
X88035714Y-24183528D01*
X88035714Y-24183528D02*
X88250000Y-24254957D01*
X89107142Y-25683528D02*
X88964285Y-25612100D01*
X88964285Y-25612100D02*
X88892856Y-25469242D01*
X88892856Y-25469242D02*
X88892856Y-24183528D01*
X90321428Y-25683528D02*
X90321428Y-24897814D01*
X90321428Y-24897814D02*
X90249999Y-24754957D01*
X90249999Y-24754957D02*
X90107142Y-24683528D01*
X90107142Y-24683528D02*
X89821428Y-24683528D01*
X89821428Y-24683528D02*
X89678570Y-24754957D01*
X90321428Y-25612100D02*
X90178570Y-25683528D01*
X90178570Y-25683528D02*
X89821428Y-25683528D01*
X89821428Y-25683528D02*
X89678570Y-25612100D01*
X89678570Y-25612100D02*
X89607142Y-25469242D01*
X89607142Y-25469242D02*
X89607142Y-25326385D01*
X89607142Y-25326385D02*
X89678570Y-25183528D01*
X89678570Y-25183528D02*
X89821428Y-25112100D01*
X89821428Y-25112100D02*
X90178570Y-25112100D01*
X90178570Y-25112100D02*
X90321428Y-25040671D01*
X90892856Y-24683528D02*
X91249999Y-25683528D01*
X91249999Y-25683528D02*
X91607142Y-24683528D01*
X92749999Y-25612100D02*
X92607142Y-25683528D01*
X92607142Y-25683528D02*
X92321428Y-25683528D01*
X92321428Y-25683528D02*
X92178570Y-25612100D01*
X92178570Y-25612100D02*
X92107142Y-25469242D01*
X92107142Y-25469242D02*
X92107142Y-24897814D01*
X92107142Y-24897814D02*
X92178570Y-24754957D01*
X92178570Y-24754957D02*
X92321428Y-24683528D01*
X92321428Y-24683528D02*
X92607142Y-24683528D01*
X92607142Y-24683528D02*
X92749999Y-24754957D01*
X92749999Y-24754957D02*
X92821428Y-24897814D01*
X92821428Y-24897814D02*
X92821428Y-25040671D01*
X92821428Y-25040671D02*
X92107142Y-25183528D01*
X94607141Y-25683528D02*
X94607141Y-24183528D01*
X94607141Y-24183528D02*
X95107141Y-25254957D01*
X95107141Y-25254957D02*
X95607141Y-24183528D01*
X95607141Y-24183528D02*
X95607141Y-25683528D01*
X96535713Y-25683528D02*
X96392856Y-25612100D01*
X96392856Y-25612100D02*
X96321427Y-25540671D01*
X96321427Y-25540671D02*
X96249999Y-25397814D01*
X96249999Y-25397814D02*
X96249999Y-24969242D01*
X96249999Y-24969242D02*
X96321427Y-24826385D01*
X96321427Y-24826385D02*
X96392856Y-24754957D01*
X96392856Y-24754957D02*
X96535713Y-24683528D01*
X96535713Y-24683528D02*
X96749999Y-24683528D01*
X96749999Y-24683528D02*
X96892856Y-24754957D01*
X96892856Y-24754957D02*
X96964285Y-24826385D01*
X96964285Y-24826385D02*
X97035713Y-24969242D01*
X97035713Y-24969242D02*
X97035713Y-25397814D01*
X97035713Y-25397814D02*
X96964285Y-25540671D01*
X96964285Y-25540671D02*
X96892856Y-25612100D01*
X96892856Y-25612100D02*
X96749999Y-25683528D01*
X96749999Y-25683528D02*
X96535713Y-25683528D01*
X98321428Y-25683528D02*
X98321428Y-24183528D01*
X98321428Y-25612100D02*
X98178570Y-25683528D01*
X98178570Y-25683528D02*
X97892856Y-25683528D01*
X97892856Y-25683528D02*
X97749999Y-25612100D01*
X97749999Y-25612100D02*
X97678570Y-25540671D01*
X97678570Y-25540671D02*
X97607142Y-25397814D01*
X97607142Y-25397814D02*
X97607142Y-24969242D01*
X97607142Y-24969242D02*
X97678570Y-24826385D01*
X97678570Y-24826385D02*
X97749999Y-24754957D01*
X97749999Y-24754957D02*
X97892856Y-24683528D01*
X97892856Y-24683528D02*
X98178570Y-24683528D01*
X98178570Y-24683528D02*
X98321428Y-24754957D01*
X99678571Y-24683528D02*
X99678571Y-25683528D01*
X99035713Y-24683528D02*
X99035713Y-25469242D01*
X99035713Y-25469242D02*
X99107142Y-25612100D01*
X99107142Y-25612100D02*
X99249999Y-25683528D01*
X99249999Y-25683528D02*
X99464285Y-25683528D01*
X99464285Y-25683528D02*
X99607142Y-25612100D01*
X99607142Y-25612100D02*
X99678571Y-25540671D01*
X100607142Y-25683528D02*
X100464285Y-25612100D01*
X100464285Y-25612100D02*
X100392856Y-25469242D01*
X100392856Y-25469242D02*
X100392856Y-24183528D01*
X101749999Y-25612100D02*
X101607142Y-25683528D01*
X101607142Y-25683528D02*
X101321428Y-25683528D01*
X101321428Y-25683528D02*
X101178570Y-25612100D01*
X101178570Y-25612100D02*
X101107142Y-25469242D01*
X101107142Y-25469242D02*
X101107142Y-24897814D01*
X101107142Y-24897814D02*
X101178570Y-24754957D01*
X101178570Y-24754957D02*
X101321428Y-24683528D01*
X101321428Y-24683528D02*
X101607142Y-24683528D01*
X101607142Y-24683528D02*
X101749999Y-24754957D01*
X101749999Y-24754957D02*
X101821428Y-24897814D01*
X101821428Y-24897814D02*
X101821428Y-25040671D01*
X101821428Y-25040671D02*
X101107142Y-25183528D01*
X103464284Y-24683528D02*
X103821427Y-25683528D01*
X103821427Y-25683528D02*
X104178570Y-24683528D01*
X105535713Y-25683528D02*
X104678570Y-25683528D01*
X105107141Y-25683528D02*
X105107141Y-24183528D01*
X105107141Y-24183528D02*
X104964284Y-24397814D01*
X104964284Y-24397814D02*
X104821427Y-24540671D01*
X104821427Y-24540671D02*
X104678570Y-24612100D01*
X106178569Y-25540671D02*
X106249998Y-25612100D01*
X106249998Y-25612100D02*
X106178569Y-25683528D01*
X106178569Y-25683528D02*
X106107141Y-25612100D01*
X106107141Y-25612100D02*
X106178569Y-25540671D01*
X106178569Y-25540671D02*
X106178569Y-25683528D01*
X107178570Y-24183528D02*
X107321427Y-24183528D01*
X107321427Y-24183528D02*
X107464284Y-24254957D01*
X107464284Y-24254957D02*
X107535713Y-24326385D01*
X107535713Y-24326385D02*
X107607141Y-24469242D01*
X107607141Y-24469242D02*
X107678570Y-24754957D01*
X107678570Y-24754957D02*
X107678570Y-25112100D01*
X107678570Y-25112100D02*
X107607141Y-25397814D01*
X107607141Y-25397814D02*
X107535713Y-25540671D01*
X107535713Y-25540671D02*
X107464284Y-25612100D01*
X107464284Y-25612100D02*
X107321427Y-25683528D01*
X107321427Y-25683528D02*
X107178570Y-25683528D01*
X107178570Y-25683528D02*
X107035713Y-25612100D01*
X107035713Y-25612100D02*
X106964284Y-25540671D01*
X106964284Y-25540671D02*
X106892855Y-25397814D01*
X106892855Y-25397814D02*
X106821427Y-25112100D01*
X106821427Y-25112100D02*
X106821427Y-24754957D01*
X106821427Y-24754957D02*
X106892855Y-24469242D01*
X106892855Y-24469242D02*
X106964284Y-24326385D01*
X106964284Y-24326385D02*
X107035713Y-24254957D01*
X107035713Y-24254957D02*
X107178570Y-24183528D01*
D11*
X45547342Y-73514285D02*
X44347342Y-73514285D01*
X45490200Y-72999999D02*
X45547342Y-72828571D01*
X45547342Y-72828571D02*
X45547342Y-72542856D01*
X45547342Y-72542856D02*
X45490200Y-72428571D01*
X45490200Y-72428571D02*
X45433057Y-72371428D01*
X45433057Y-72371428D02*
X45318771Y-72314285D01*
X45318771Y-72314285D02*
X45204485Y-72314285D01*
X45204485Y-72314285D02*
X45090200Y-72371428D01*
X45090200Y-72371428D02*
X45033057Y-72428571D01*
X45033057Y-72428571D02*
X44975914Y-72542856D01*
X44975914Y-72542856D02*
X44918771Y-72771428D01*
X44918771Y-72771428D02*
X44861628Y-72885713D01*
X44861628Y-72885713D02*
X44804485Y-72942856D01*
X44804485Y-72942856D02*
X44690200Y-72999999D01*
X44690200Y-72999999D02*
X44575914Y-72999999D01*
X44575914Y-72999999D02*
X44461628Y-72942856D01*
X44461628Y-72942856D02*
X44404485Y-72885713D01*
X44404485Y-72885713D02*
X44347342Y-72771428D01*
X44347342Y-72771428D02*
X44347342Y-72485713D01*
X44347342Y-72485713D02*
X44404485Y-72314285D01*
X44347342Y-71571428D02*
X44347342Y-71342856D01*
X44347342Y-71342856D02*
X44404485Y-71228571D01*
X44404485Y-71228571D02*
X44518771Y-71114285D01*
X44518771Y-71114285D02*
X44747342Y-71057142D01*
X44747342Y-71057142D02*
X45147342Y-71057142D01*
X45147342Y-71057142D02*
X45375914Y-71114285D01*
X45375914Y-71114285D02*
X45490200Y-71228571D01*
X45490200Y-71228571D02*
X45547342Y-71342856D01*
X45547342Y-71342856D02*
X45547342Y-71571428D01*
X45547342Y-71571428D02*
X45490200Y-71685714D01*
X45490200Y-71685714D02*
X45375914Y-71799999D01*
X45375914Y-71799999D02*
X45147342Y-71857142D01*
X45147342Y-71857142D02*
X44747342Y-71857142D01*
X44747342Y-71857142D02*
X44518771Y-71799999D01*
X44518771Y-71799999D02*
X44404485Y-71685714D01*
X44404485Y-71685714D02*
X44347342Y-71571428D01*
X45547342Y-69971428D02*
X45547342Y-70542856D01*
X45547342Y-70542856D02*
X44347342Y-70542856D01*
X45204485Y-69628570D02*
X45204485Y-69057142D01*
X45547342Y-69742856D02*
X44347342Y-69342856D01*
X44347342Y-69342856D02*
X45547342Y-68942856D01*
X44347342Y-68714285D02*
X44347342Y-68028571D01*
X45547342Y-68371428D02*
X44347342Y-68371428D01*
X45547342Y-67628570D02*
X44347342Y-67628570D01*
X44347342Y-66828570D02*
X44347342Y-66599998D01*
X44347342Y-66599998D02*
X44404485Y-66485713D01*
X44404485Y-66485713D02*
X44518771Y-66371427D01*
X44518771Y-66371427D02*
X44747342Y-66314284D01*
X44747342Y-66314284D02*
X45147342Y-66314284D01*
X45147342Y-66314284D02*
X45375914Y-66371427D01*
X45375914Y-66371427D02*
X45490200Y-66485713D01*
X45490200Y-66485713D02*
X45547342Y-66599998D01*
X45547342Y-66599998D02*
X45547342Y-66828570D01*
X45547342Y-66828570D02*
X45490200Y-66942856D01*
X45490200Y-66942856D02*
X45375914Y-67057141D01*
X45375914Y-67057141D02*
X45147342Y-67114284D01*
X45147342Y-67114284D02*
X44747342Y-67114284D01*
X44747342Y-67114284D02*
X44518771Y-67057141D01*
X44518771Y-67057141D02*
X44404485Y-66942856D01*
X44404485Y-66942856D02*
X44347342Y-66828570D01*
X45547342Y-65799998D02*
X44347342Y-65799998D01*
X44347342Y-65799998D02*
X45547342Y-65114284D01*
X45547342Y-65114284D02*
X44347342Y-65114284D01*
X44918771Y-63228569D02*
X44975914Y-63057141D01*
X44975914Y-63057141D02*
X45033057Y-62999998D01*
X45033057Y-62999998D02*
X45147342Y-62942855D01*
X45147342Y-62942855D02*
X45318771Y-62942855D01*
X45318771Y-62942855D02*
X45433057Y-62999998D01*
X45433057Y-62999998D02*
X45490200Y-63057141D01*
X45490200Y-63057141D02*
X45547342Y-63171426D01*
X45547342Y-63171426D02*
X45547342Y-63628569D01*
X45547342Y-63628569D02*
X44347342Y-63628569D01*
X44347342Y-63628569D02*
X44347342Y-63228569D01*
X44347342Y-63228569D02*
X44404485Y-63114284D01*
X44404485Y-63114284D02*
X44461628Y-63057141D01*
X44461628Y-63057141D02*
X44575914Y-62999998D01*
X44575914Y-62999998D02*
X44690200Y-62999998D01*
X44690200Y-62999998D02*
X44804485Y-63057141D01*
X44804485Y-63057141D02*
X44861628Y-63114284D01*
X44861628Y-63114284D02*
X44918771Y-63228569D01*
X44918771Y-63228569D02*
X44918771Y-63628569D01*
X45204485Y-62485712D02*
X45204485Y-61914284D01*
X45547342Y-62599998D02*
X44347342Y-62199998D01*
X44347342Y-62199998D02*
X45547342Y-61799998D01*
X45547342Y-60714284D02*
X44975914Y-61114284D01*
X45547342Y-61399998D02*
X44347342Y-61399998D01*
X44347342Y-61399998D02*
X44347342Y-60942855D01*
X44347342Y-60942855D02*
X44404485Y-60828570D01*
X44404485Y-60828570D02*
X44461628Y-60771427D01*
X44461628Y-60771427D02*
X44575914Y-60714284D01*
X44575914Y-60714284D02*
X44747342Y-60714284D01*
X44747342Y-60714284D02*
X44861628Y-60771427D01*
X44861628Y-60771427D02*
X44918771Y-60828570D01*
X44918771Y-60828570D02*
X44975914Y-60942855D01*
X44975914Y-60942855D02*
X44975914Y-61399998D01*
X45547342Y-59514284D02*
X44975914Y-59914284D01*
X45547342Y-60199998D02*
X44347342Y-60199998D01*
X44347342Y-60199998D02*
X44347342Y-59742855D01*
X44347342Y-59742855D02*
X44404485Y-59628570D01*
X44404485Y-59628570D02*
X44461628Y-59571427D01*
X44461628Y-59571427D02*
X44575914Y-59514284D01*
X44575914Y-59514284D02*
X44747342Y-59514284D01*
X44747342Y-59514284D02*
X44861628Y-59571427D01*
X44861628Y-59571427D02*
X44918771Y-59628570D01*
X44918771Y-59628570D02*
X44975914Y-59742855D01*
X44975914Y-59742855D02*
X44975914Y-60199998D01*
X45547342Y-58999998D02*
X44347342Y-58999998D01*
X44918771Y-58428569D02*
X44918771Y-58028569D01*
X45547342Y-57857141D02*
X45547342Y-58428569D01*
X45547342Y-58428569D02*
X44347342Y-58428569D01*
X44347342Y-58428569D02*
X44347342Y-57857141D01*
X45547342Y-56657141D02*
X44975914Y-57057141D01*
X45547342Y-57342855D02*
X44347342Y-57342855D01*
X44347342Y-57342855D02*
X44347342Y-56885712D01*
X44347342Y-56885712D02*
X44404485Y-56771427D01*
X44404485Y-56771427D02*
X44461628Y-56714284D01*
X44461628Y-56714284D02*
X44575914Y-56657141D01*
X44575914Y-56657141D02*
X44747342Y-56657141D01*
X44747342Y-56657141D02*
X44861628Y-56714284D01*
X44861628Y-56714284D02*
X44918771Y-56771427D01*
X44918771Y-56771427D02*
X44975914Y-56885712D01*
X44975914Y-56885712D02*
X44975914Y-57342855D01*
X46004485Y-54885712D02*
X45947342Y-54942855D01*
X45947342Y-54942855D02*
X45775914Y-55057141D01*
X45775914Y-55057141D02*
X45661628Y-55114284D01*
X45661628Y-55114284D02*
X45490200Y-55171426D01*
X45490200Y-55171426D02*
X45204485Y-55228569D01*
X45204485Y-55228569D02*
X44975914Y-55228569D01*
X44975914Y-55228569D02*
X44690200Y-55171426D01*
X44690200Y-55171426D02*
X44518771Y-55114284D01*
X44518771Y-55114284D02*
X44404485Y-55057141D01*
X44404485Y-55057141D02*
X44233057Y-54942855D01*
X44233057Y-54942855D02*
X44175914Y-54885712D01*
X44747342Y-53914284D02*
X45547342Y-53914284D01*
X44290200Y-54199998D02*
X45147342Y-54485712D01*
X45147342Y-54485712D02*
X45147342Y-53742855D01*
X44347342Y-53399998D02*
X44347342Y-52657141D01*
X44347342Y-52657141D02*
X44804485Y-53057141D01*
X44804485Y-53057141D02*
X44804485Y-52885712D01*
X44804485Y-52885712D02*
X44861628Y-52771427D01*
X44861628Y-52771427D02*
X44918771Y-52714284D01*
X44918771Y-52714284D02*
X45033057Y-52657141D01*
X45033057Y-52657141D02*
X45318771Y-52657141D01*
X45318771Y-52657141D02*
X45433057Y-52714284D01*
X45433057Y-52714284D02*
X45490200Y-52771427D01*
X45490200Y-52771427D02*
X45547342Y-52885712D01*
X45547342Y-52885712D02*
X45547342Y-53228569D01*
X45547342Y-53228569D02*
X45490200Y-53342855D01*
X45490200Y-53342855D02*
X45433057Y-53399998D01*
X44347342Y-51914284D02*
X44347342Y-51799998D01*
X44347342Y-51799998D02*
X44404485Y-51685712D01*
X44404485Y-51685712D02*
X44461628Y-51628570D01*
X44461628Y-51628570D02*
X44575914Y-51571427D01*
X44575914Y-51571427D02*
X44804485Y-51514284D01*
X44804485Y-51514284D02*
X45090200Y-51514284D01*
X45090200Y-51514284D02*
X45318771Y-51571427D01*
X45318771Y-51571427D02*
X45433057Y-51628570D01*
X45433057Y-51628570D02*
X45490200Y-51685712D01*
X45490200Y-51685712D02*
X45547342Y-51799998D01*
X45547342Y-51799998D02*
X45547342Y-51914284D01*
X45547342Y-51914284D02*
X45490200Y-52028570D01*
X45490200Y-52028570D02*
X45433057Y-52085712D01*
X45433057Y-52085712D02*
X45318771Y-52142855D01*
X45318771Y-52142855D02*
X45090200Y-52199998D01*
X45090200Y-52199998D02*
X44804485Y-52199998D01*
X44804485Y-52199998D02*
X44575914Y-52142855D01*
X44575914Y-52142855D02*
X44461628Y-52085712D01*
X44461628Y-52085712D02*
X44404485Y-52028570D01*
X44404485Y-52028570D02*
X44347342Y-51914284D01*
X44347342Y-50771427D02*
X44347342Y-50657141D01*
X44347342Y-50657141D02*
X44404485Y-50542855D01*
X44404485Y-50542855D02*
X44461628Y-50485713D01*
X44461628Y-50485713D02*
X44575914Y-50428570D01*
X44575914Y-50428570D02*
X44804485Y-50371427D01*
X44804485Y-50371427D02*
X45090200Y-50371427D01*
X45090200Y-50371427D02*
X45318771Y-50428570D01*
X45318771Y-50428570D02*
X45433057Y-50485713D01*
X45433057Y-50485713D02*
X45490200Y-50542855D01*
X45490200Y-50542855D02*
X45547342Y-50657141D01*
X45547342Y-50657141D02*
X45547342Y-50771427D01*
X45547342Y-50771427D02*
X45490200Y-50885713D01*
X45490200Y-50885713D02*
X45433057Y-50942855D01*
X45433057Y-50942855D02*
X45318771Y-50999998D01*
X45318771Y-50999998D02*
X45090200Y-51057141D01*
X45090200Y-51057141D02*
X44804485Y-51057141D01*
X44804485Y-51057141D02*
X44575914Y-50999998D01*
X44575914Y-50999998D02*
X44461628Y-50942855D01*
X44461628Y-50942855D02*
X44404485Y-50885713D01*
X44404485Y-50885713D02*
X44347342Y-50771427D01*
X44347342Y-50028570D02*
X45547342Y-49628570D01*
X45547342Y-49628570D02*
X44347342Y-49228570D01*
X45547342Y-48314285D02*
X44347342Y-48314285D01*
X45490200Y-48314285D02*
X45547342Y-48428570D01*
X45547342Y-48428570D02*
X45547342Y-48657142D01*
X45547342Y-48657142D02*
X45490200Y-48771427D01*
X45490200Y-48771427D02*
X45433057Y-48828570D01*
X45433057Y-48828570D02*
X45318771Y-48885713D01*
X45318771Y-48885713D02*
X44975914Y-48885713D01*
X44975914Y-48885713D02*
X44861628Y-48828570D01*
X44861628Y-48828570D02*
X44804485Y-48771427D01*
X44804485Y-48771427D02*
X44747342Y-48657142D01*
X44747342Y-48657142D02*
X44747342Y-48428570D01*
X44747342Y-48428570D02*
X44804485Y-48314285D01*
X45490200Y-47228571D02*
X45547342Y-47342856D01*
X45547342Y-47342856D02*
X45547342Y-47571428D01*
X45547342Y-47571428D02*
X45490200Y-47685713D01*
X45490200Y-47685713D02*
X45433057Y-47742856D01*
X45433057Y-47742856D02*
X45318771Y-47799999D01*
X45318771Y-47799999D02*
X44975914Y-47799999D01*
X44975914Y-47799999D02*
X44861628Y-47742856D01*
X44861628Y-47742856D02*
X44804485Y-47685713D01*
X44804485Y-47685713D02*
X44747342Y-47571428D01*
X44747342Y-47571428D02*
X44747342Y-47342856D01*
X44747342Y-47342856D02*
X44804485Y-47228571D01*
X46004485Y-46828571D02*
X45947342Y-46771428D01*
X45947342Y-46771428D02*
X45775914Y-46657142D01*
X45775914Y-46657142D02*
X45661628Y-46600000D01*
X45661628Y-46600000D02*
X45490200Y-46542857D01*
X45490200Y-46542857D02*
X45204485Y-46485714D01*
X45204485Y-46485714D02*
X44975914Y-46485714D01*
X44975914Y-46485714D02*
X44690200Y-46542857D01*
X44690200Y-46542857D02*
X44518771Y-46600000D01*
X44518771Y-46600000D02*
X44404485Y-46657142D01*
X44404485Y-46657142D02*
X44233057Y-46771428D01*
X44233057Y-46771428D02*
X44175914Y-46828571D01*
D12*
X159032380Y-111309271D02*
X159032380Y-112337366D01*
X159032380Y-112337366D02*
X159092857Y-112458318D01*
X159092857Y-112458318D02*
X159153333Y-112518795D01*
X159153333Y-112518795D02*
X159274285Y-112579271D01*
X159274285Y-112579271D02*
X159516190Y-112579271D01*
X159516190Y-112579271D02*
X159637142Y-112518795D01*
X159637142Y-112518795D02*
X159697619Y-112458318D01*
X159697619Y-112458318D02*
X159758095Y-112337366D01*
X159758095Y-112337366D02*
X159758095Y-111309271D01*
X161028095Y-112579271D02*
X160302380Y-112579271D01*
X160665237Y-112579271D02*
X160665237Y-111309271D01*
X160665237Y-111309271D02*
X160544285Y-111490699D01*
X160544285Y-111490699D02*
X160423333Y-111611652D01*
X160423333Y-111611652D02*
X160302380Y-111672128D01*
X151714761Y-128579271D02*
X151109999Y-128579271D01*
X151109999Y-128579271D02*
X151109999Y-127309271D01*
X151956666Y-127309271D02*
X152682380Y-127309271D01*
X152319523Y-128579271D02*
X152319523Y-127309271D01*
X153831428Y-128458318D02*
X153770952Y-128518795D01*
X153770952Y-128518795D02*
X153589523Y-128579271D01*
X153589523Y-128579271D02*
X153468571Y-128579271D01*
X153468571Y-128579271D02*
X153287142Y-128518795D01*
X153287142Y-128518795D02*
X153166190Y-128397842D01*
X153166190Y-128397842D02*
X153105713Y-128276890D01*
X153105713Y-128276890D02*
X153045237Y-128034985D01*
X153045237Y-128034985D02*
X153045237Y-127853556D01*
X153045237Y-127853556D02*
X153105713Y-127611652D01*
X153105713Y-127611652D02*
X153166190Y-127490699D01*
X153166190Y-127490699D02*
X153287142Y-127369747D01*
X153287142Y-127369747D02*
X153468571Y-127309271D01*
X153468571Y-127309271D02*
X153589523Y-127309271D01*
X153589523Y-127309271D02*
X153770952Y-127369747D01*
X153770952Y-127369747D02*
X153831428Y-127430223D01*
X154919999Y-127309271D02*
X154678094Y-127309271D01*
X154678094Y-127309271D02*
X154557142Y-127369747D01*
X154557142Y-127369747D02*
X154496666Y-127430223D01*
X154496666Y-127430223D02*
X154375713Y-127611652D01*
X154375713Y-127611652D02*
X154315237Y-127853556D01*
X154315237Y-127853556D02*
X154315237Y-128337366D01*
X154315237Y-128337366D02*
X154375713Y-128458318D01*
X154375713Y-128458318D02*
X154436190Y-128518795D01*
X154436190Y-128518795D02*
X154557142Y-128579271D01*
X154557142Y-128579271D02*
X154799047Y-128579271D01*
X154799047Y-128579271D02*
X154919999Y-128518795D01*
X154919999Y-128518795D02*
X154980475Y-128458318D01*
X154980475Y-128458318D02*
X155040952Y-128337366D01*
X155040952Y-128337366D02*
X155040952Y-128034985D01*
X155040952Y-128034985D02*
X154980475Y-127914033D01*
X154980475Y-127914033D02*
X154919999Y-127853556D01*
X154919999Y-127853556D02*
X154799047Y-127793080D01*
X154799047Y-127793080D02*
X154557142Y-127793080D01*
X154557142Y-127793080D02*
X154436190Y-127853556D01*
X154436190Y-127853556D02*
X154375713Y-127914033D01*
X154375713Y-127914033D02*
X154315237Y-128034985D01*
X155766666Y-127853556D02*
X155645714Y-127793080D01*
X155645714Y-127793080D02*
X155585237Y-127732604D01*
X155585237Y-127732604D02*
X155524761Y-127611652D01*
X155524761Y-127611652D02*
X155524761Y-127551175D01*
X155524761Y-127551175D02*
X155585237Y-127430223D01*
X155585237Y-127430223D02*
X155645714Y-127369747D01*
X155645714Y-127369747D02*
X155766666Y-127309271D01*
X155766666Y-127309271D02*
X156008571Y-127309271D01*
X156008571Y-127309271D02*
X156129523Y-127369747D01*
X156129523Y-127369747D02*
X156189999Y-127430223D01*
X156189999Y-127430223D02*
X156250476Y-127551175D01*
X156250476Y-127551175D02*
X156250476Y-127611652D01*
X156250476Y-127611652D02*
X156189999Y-127732604D01*
X156189999Y-127732604D02*
X156129523Y-127793080D01*
X156129523Y-127793080D02*
X156008571Y-127853556D01*
X156008571Y-127853556D02*
X155766666Y-127853556D01*
X155766666Y-127853556D02*
X155645714Y-127914033D01*
X155645714Y-127914033D02*
X155585237Y-127974509D01*
X155585237Y-127974509D02*
X155524761Y-128095461D01*
X155524761Y-128095461D02*
X155524761Y-128337366D01*
X155524761Y-128337366D02*
X155585237Y-128458318D01*
X155585237Y-128458318D02*
X155645714Y-128518795D01*
X155645714Y-128518795D02*
X155766666Y-128579271D01*
X155766666Y-128579271D02*
X156008571Y-128579271D01*
X156008571Y-128579271D02*
X156129523Y-128518795D01*
X156129523Y-128518795D02*
X156189999Y-128458318D01*
X156189999Y-128458318D02*
X156250476Y-128337366D01*
X156250476Y-128337366D02*
X156250476Y-128095461D01*
X156250476Y-128095461D02*
X156189999Y-127974509D01*
X156189999Y-127974509D02*
X156129523Y-127914033D01*
X156129523Y-127914033D02*
X156008571Y-127853556D01*
X157460000Y-128579271D02*
X156734285Y-128579271D01*
X157097142Y-128579271D02*
X157097142Y-127309271D01*
X157097142Y-127309271D02*
X156976190Y-127490699D01*
X156976190Y-127490699D02*
X156855238Y-127611652D01*
X156855238Y-127611652D02*
X156734285Y-127672128D01*
X157883333Y-127309271D02*
X158669524Y-127309271D01*
X158669524Y-127309271D02*
X158246190Y-127793080D01*
X158246190Y-127793080D02*
X158427619Y-127793080D01*
X158427619Y-127793080D02*
X158548571Y-127853556D01*
X158548571Y-127853556D02*
X158609047Y-127914033D01*
X158609047Y-127914033D02*
X158669524Y-128034985D01*
X158669524Y-128034985D02*
X158669524Y-128337366D01*
X158669524Y-128337366D02*
X158609047Y-128458318D01*
X158609047Y-128458318D02*
X158548571Y-128518795D01*
X158548571Y-128518795D02*
X158427619Y-128579271D01*
X158427619Y-128579271D02*
X158064762Y-128579271D01*
X158064762Y-128579271D02*
X157943809Y-128518795D01*
X157943809Y-128518795D02*
X157883333Y-128458318D01*
X159213809Y-128579271D02*
X159213809Y-127309271D01*
X159213809Y-127914033D02*
X159939524Y-127914033D01*
X159939524Y-128579271D02*
X159939524Y-127309271D01*
X161209524Y-127369747D02*
X161088571Y-127309271D01*
X161088571Y-127309271D02*
X160907143Y-127309271D01*
X160907143Y-127309271D02*
X160725714Y-127369747D01*
X160725714Y-127369747D02*
X160604762Y-127490699D01*
X160604762Y-127490699D02*
X160544285Y-127611652D01*
X160544285Y-127611652D02*
X160483809Y-127853556D01*
X160483809Y-127853556D02*
X160483809Y-128034985D01*
X160483809Y-128034985D02*
X160544285Y-128276890D01*
X160544285Y-128276890D02*
X160604762Y-128397842D01*
X160604762Y-128397842D02*
X160725714Y-128518795D01*
X160725714Y-128518795D02*
X160907143Y-128579271D01*
X160907143Y-128579271D02*
X161028095Y-128579271D01*
X161028095Y-128579271D02*
X161209524Y-128518795D01*
X161209524Y-128518795D02*
X161270000Y-128458318D01*
X161270000Y-128458318D02*
X161270000Y-128034985D01*
X161270000Y-128034985D02*
X161028095Y-128034985D01*
X161814285Y-128095461D02*
X162781905Y-128095461D01*
X164051905Y-128579271D02*
X163326190Y-128579271D01*
X163689047Y-128579271D02*
X163689047Y-127309271D01*
X163689047Y-127309271D02*
X163568095Y-127490699D01*
X163568095Y-127490699D02*
X163447143Y-127611652D01*
X163447143Y-127611652D02*
X163326190Y-127672128D01*
X164535714Y-127732604D02*
X165442857Y-127732604D01*
X164898571Y-127188318D02*
X164535714Y-128821175D01*
X165321905Y-128276890D02*
X164414762Y-128276890D01*
X164959048Y-128821175D02*
X165321905Y-127188318D01*
X165866190Y-128579271D02*
X165866190Y-127309271D01*
X165866190Y-127309271D02*
X166350000Y-127309271D01*
X166350000Y-127309271D02*
X166470952Y-127369747D01*
X166470952Y-127369747D02*
X166531429Y-127430223D01*
X166531429Y-127430223D02*
X166591905Y-127551175D01*
X166591905Y-127551175D02*
X166591905Y-127732604D01*
X166591905Y-127732604D02*
X166531429Y-127853556D01*
X166531429Y-127853556D02*
X166470952Y-127914033D01*
X166470952Y-127914033D02*
X166350000Y-127974509D01*
X166350000Y-127974509D02*
X165866190Y-127974509D01*
X167559524Y-127914033D02*
X167740952Y-127974509D01*
X167740952Y-127974509D02*
X167801429Y-128034985D01*
X167801429Y-128034985D02*
X167861905Y-128155937D01*
X167861905Y-128155937D02*
X167861905Y-128337366D01*
X167861905Y-128337366D02*
X167801429Y-128458318D01*
X167801429Y-128458318D02*
X167740952Y-128518795D01*
X167740952Y-128518795D02*
X167620000Y-128579271D01*
X167620000Y-128579271D02*
X167136190Y-128579271D01*
X167136190Y-128579271D02*
X167136190Y-127309271D01*
X167136190Y-127309271D02*
X167559524Y-127309271D01*
X167559524Y-127309271D02*
X167680476Y-127369747D01*
X167680476Y-127369747D02*
X167740952Y-127430223D01*
X167740952Y-127430223D02*
X167801429Y-127551175D01*
X167801429Y-127551175D02*
X167801429Y-127672128D01*
X167801429Y-127672128D02*
X167740952Y-127793080D01*
X167740952Y-127793080D02*
X167680476Y-127853556D01*
X167680476Y-127853556D02*
X167559524Y-127914033D01*
X167559524Y-127914033D02*
X167136190Y-127914033D01*
X168829524Y-127914033D02*
X168406190Y-127914033D01*
X168406190Y-128579271D02*
X168406190Y-127309271D01*
X168406190Y-127309271D02*
X169010952Y-127309271D01*
X69032381Y-82309271D02*
X69758095Y-82309271D01*
X69395238Y-83579271D02*
X69395238Y-82309271D01*
X70846667Y-83579271D02*
X70120952Y-83579271D01*
X70483809Y-83579271D02*
X70483809Y-82309271D01*
X70483809Y-82309271D02*
X70362857Y-82490699D01*
X70362857Y-82490699D02*
X70241905Y-82611652D01*
X70241905Y-82611652D02*
X70120952Y-82672128D01*
X58902618Y-97579271D02*
X58902618Y-96309271D01*
X58902618Y-96914033D02*
X59628333Y-96914033D01*
X59628333Y-97579271D02*
X59628333Y-96309271D01*
X60233094Y-97579271D02*
X60233094Y-96309271D01*
X60233094Y-96309271D02*
X60656428Y-97216414D01*
X60656428Y-97216414D02*
X61079761Y-96309271D01*
X61079761Y-96309271D02*
X61079761Y-97579271D01*
X61624047Y-96430223D02*
X61684523Y-96369747D01*
X61684523Y-96369747D02*
X61805476Y-96309271D01*
X61805476Y-96309271D02*
X62107857Y-96309271D01*
X62107857Y-96309271D02*
X62228809Y-96369747D01*
X62228809Y-96369747D02*
X62289285Y-96430223D01*
X62289285Y-96430223D02*
X62349762Y-96551175D01*
X62349762Y-96551175D02*
X62349762Y-96672128D01*
X62349762Y-96672128D02*
X62289285Y-96853556D01*
X62289285Y-96853556D02*
X61563571Y-97579271D01*
X61563571Y-97579271D02*
X62349762Y-97579271D01*
X63559286Y-97579271D02*
X62833571Y-97579271D01*
X63196428Y-97579271D02*
X63196428Y-96309271D01*
X63196428Y-96309271D02*
X63075476Y-96490699D01*
X63075476Y-96490699D02*
X62954524Y-96611652D01*
X62954524Y-96611652D02*
X62833571Y-96672128D01*
X64345476Y-96309271D02*
X64466429Y-96309271D01*
X64466429Y-96309271D02*
X64587381Y-96369747D01*
X64587381Y-96369747D02*
X64647857Y-96430223D01*
X64647857Y-96430223D02*
X64708333Y-96551175D01*
X64708333Y-96551175D02*
X64768810Y-96793080D01*
X64768810Y-96793080D02*
X64768810Y-97095461D01*
X64768810Y-97095461D02*
X64708333Y-97337366D01*
X64708333Y-97337366D02*
X64647857Y-97458318D01*
X64647857Y-97458318D02*
X64587381Y-97518795D01*
X64587381Y-97518795D02*
X64466429Y-97579271D01*
X64466429Y-97579271D02*
X64345476Y-97579271D01*
X64345476Y-97579271D02*
X64224524Y-97518795D01*
X64224524Y-97518795D02*
X64164048Y-97458318D01*
X64164048Y-97458318D02*
X64103571Y-97337366D01*
X64103571Y-97337366D02*
X64043095Y-97095461D01*
X64043095Y-97095461D02*
X64043095Y-96793080D01*
X64043095Y-96793080D02*
X64103571Y-96551175D01*
X64103571Y-96551175D02*
X64164048Y-96430223D01*
X64164048Y-96430223D02*
X64224524Y-96369747D01*
X64224524Y-96369747D02*
X64345476Y-96309271D01*
X65978334Y-97579271D02*
X65252619Y-97579271D01*
X65615476Y-97579271D02*
X65615476Y-96309271D01*
X65615476Y-96309271D02*
X65494524Y-96490699D01*
X65494524Y-96490699D02*
X65373572Y-96611652D01*
X65373572Y-96611652D02*
X65252619Y-96672128D01*
X66522619Y-97579271D02*
X66522619Y-96309271D01*
X66522619Y-96309271D02*
X67248334Y-97579271D01*
X67248334Y-97579271D02*
X67248334Y-96309271D01*
X68457857Y-97579271D02*
X67853095Y-97579271D01*
X67853095Y-97579271D02*
X67853095Y-96309271D01*
X68578810Y-97700223D02*
X69546429Y-97700223D01*
X69848809Y-97579271D02*
X69848809Y-96732604D01*
X69848809Y-96309271D02*
X69788333Y-96369747D01*
X69788333Y-96369747D02*
X69848809Y-96430223D01*
X69848809Y-96430223D02*
X69909286Y-96369747D01*
X69909286Y-96369747D02*
X69848809Y-96309271D01*
X69848809Y-96309271D02*
X69848809Y-96430223D01*
X70393095Y-97518795D02*
X70514048Y-97579271D01*
X70514048Y-97579271D02*
X70755952Y-97579271D01*
X70755952Y-97579271D02*
X70876905Y-97518795D01*
X70876905Y-97518795D02*
X70937381Y-97397842D01*
X70937381Y-97397842D02*
X70937381Y-97337366D01*
X70937381Y-97337366D02*
X70876905Y-97216414D01*
X70876905Y-97216414D02*
X70755952Y-97155937D01*
X70755952Y-97155937D02*
X70574524Y-97155937D01*
X70574524Y-97155937D02*
X70453571Y-97095461D01*
X70453571Y-97095461D02*
X70393095Y-96974509D01*
X70393095Y-96974509D02*
X70393095Y-96914033D01*
X70393095Y-96914033D02*
X70453571Y-96793080D01*
X70453571Y-96793080D02*
X70574524Y-96732604D01*
X70574524Y-96732604D02*
X70755952Y-96732604D01*
X70755952Y-96732604D02*
X70876905Y-96793080D01*
X71663095Y-97579271D02*
X71542143Y-97518795D01*
X71542143Y-97518795D02*
X71481666Y-97458318D01*
X71481666Y-97458318D02*
X71421190Y-97337366D01*
X71421190Y-97337366D02*
X71421190Y-96974509D01*
X71421190Y-96974509D02*
X71481666Y-96853556D01*
X71481666Y-96853556D02*
X71542143Y-96793080D01*
X71542143Y-96793080D02*
X71663095Y-96732604D01*
X71663095Y-96732604D02*
X71844524Y-96732604D01*
X71844524Y-96732604D02*
X71965476Y-96793080D01*
X71965476Y-96793080D02*
X72025952Y-96853556D01*
X72025952Y-96853556D02*
X72086428Y-96974509D01*
X72086428Y-96974509D02*
X72086428Y-97337366D01*
X72086428Y-97337366D02*
X72025952Y-97458318D01*
X72025952Y-97458318D02*
X71965476Y-97518795D01*
X71965476Y-97518795D02*
X71844524Y-97579271D01*
X71844524Y-97579271D02*
X71663095Y-97579271D01*
X72570238Y-97518795D02*
X72751667Y-97579271D01*
X72751667Y-97579271D02*
X73054048Y-97579271D01*
X73054048Y-97579271D02*
X73175000Y-97518795D01*
X73175000Y-97518795D02*
X73235476Y-97458318D01*
X73235476Y-97458318D02*
X73295953Y-97337366D01*
X73295953Y-97337366D02*
X73295953Y-97216414D01*
X73295953Y-97216414D02*
X73235476Y-97095461D01*
X73235476Y-97095461D02*
X73175000Y-97034985D01*
X73175000Y-97034985D02*
X73054048Y-96974509D01*
X73054048Y-96974509D02*
X72812143Y-96914033D01*
X72812143Y-96914033D02*
X72691191Y-96853556D01*
X72691191Y-96853556D02*
X72630714Y-96793080D01*
X72630714Y-96793080D02*
X72570238Y-96672128D01*
X72570238Y-96672128D02*
X72570238Y-96551175D01*
X72570238Y-96551175D02*
X72630714Y-96430223D01*
X72630714Y-96430223D02*
X72691191Y-96369747D01*
X72691191Y-96369747D02*
X72812143Y-96309271D01*
X72812143Y-96309271D02*
X73114524Y-96309271D01*
X73114524Y-96309271D02*
X73295953Y-96369747D01*
X73840238Y-97579271D02*
X73840238Y-96309271D01*
X73840238Y-96309271D02*
X74324048Y-96309271D01*
X74324048Y-96309271D02*
X74445000Y-96369747D01*
X74445000Y-96369747D02*
X74505477Y-96430223D01*
X74505477Y-96430223D02*
X74565953Y-96551175D01*
X74565953Y-96551175D02*
X74565953Y-96732604D01*
X74565953Y-96732604D02*
X74505477Y-96853556D01*
X74505477Y-96853556D02*
X74445000Y-96914033D01*
X74445000Y-96914033D02*
X74324048Y-96974509D01*
X74324048Y-96974509D02*
X73840238Y-96974509D01*
X75110238Y-97579271D02*
X75110238Y-96309271D01*
X75412620Y-97700223D02*
X76380239Y-97700223D01*
X76682619Y-97579271D02*
X76682619Y-96309271D01*
X76682619Y-96309271D02*
X77166429Y-96309271D01*
X77166429Y-96309271D02*
X77287381Y-96369747D01*
X77287381Y-96369747D02*
X77347858Y-96430223D01*
X77347858Y-96430223D02*
X77408334Y-96551175D01*
X77408334Y-96551175D02*
X77408334Y-96732604D01*
X77408334Y-96732604D02*
X77347858Y-96853556D01*
X77347858Y-96853556D02*
X77287381Y-96914033D01*
X77287381Y-96914033D02*
X77166429Y-96974509D01*
X77166429Y-96974509D02*
X76682619Y-96974509D01*
X78134048Y-97579271D02*
X78013096Y-97518795D01*
X78013096Y-97518795D02*
X77952619Y-97458318D01*
X77952619Y-97458318D02*
X77892143Y-97337366D01*
X77892143Y-97337366D02*
X77892143Y-96974509D01*
X77892143Y-96974509D02*
X77952619Y-96853556D01*
X77952619Y-96853556D02*
X78013096Y-96793080D01*
X78013096Y-96793080D02*
X78134048Y-96732604D01*
X78134048Y-96732604D02*
X78315477Y-96732604D01*
X78315477Y-96732604D02*
X78436429Y-96793080D01*
X78436429Y-96793080D02*
X78496905Y-96853556D01*
X78496905Y-96853556D02*
X78557381Y-96974509D01*
X78557381Y-96974509D02*
X78557381Y-97337366D01*
X78557381Y-97337366D02*
X78496905Y-97458318D01*
X78496905Y-97458318D02*
X78436429Y-97518795D01*
X78436429Y-97518795D02*
X78315477Y-97579271D01*
X78315477Y-97579271D02*
X78134048Y-97579271D01*
X79101667Y-97579271D02*
X79101667Y-96732604D01*
X79101667Y-96974509D02*
X79162144Y-96853556D01*
X79162144Y-96853556D02*
X79222620Y-96793080D01*
X79222620Y-96793080D02*
X79343572Y-96732604D01*
X79343572Y-96732604D02*
X79464525Y-96732604D01*
X79706429Y-96732604D02*
X80190238Y-96732604D01*
X79887857Y-96309271D02*
X79887857Y-97397842D01*
X79887857Y-97397842D02*
X79948334Y-97518795D01*
X79948334Y-97518795D02*
X80069286Y-97579271D01*
X80069286Y-97579271D02*
X80190238Y-97579271D01*
X80553095Y-97216414D02*
X81157857Y-97216414D01*
X80432143Y-97579271D02*
X80855476Y-96309271D01*
X80855476Y-96309271D02*
X81278810Y-97579271D01*
X69032381Y-152309271D02*
X69758095Y-152309271D01*
X69395238Y-153579271D02*
X69395238Y-152309271D01*
X70120952Y-152430223D02*
X70181428Y-152369747D01*
X70181428Y-152369747D02*
X70302381Y-152309271D01*
X70302381Y-152309271D02*
X70604762Y-152309271D01*
X70604762Y-152309271D02*
X70725714Y-152369747D01*
X70725714Y-152369747D02*
X70786190Y-152430223D01*
X70786190Y-152430223D02*
X70846667Y-152551175D01*
X70846667Y-152551175D02*
X70846667Y-152672128D01*
X70846667Y-152672128D02*
X70786190Y-152853556D01*
X70786190Y-152853556D02*
X70060476Y-153579271D01*
X70060476Y-153579271D02*
X70846667Y-153579271D01*
X58811904Y-167579271D02*
X58811904Y-166309271D01*
X58811904Y-166914033D02*
X59537619Y-166914033D01*
X59537619Y-167579271D02*
X59537619Y-166309271D01*
X60142380Y-167579271D02*
X60142380Y-166309271D01*
X60142380Y-166309271D02*
X60565714Y-167216414D01*
X60565714Y-167216414D02*
X60989047Y-166309271D01*
X60989047Y-166309271D02*
X60989047Y-167579271D01*
X61533333Y-166430223D02*
X61593809Y-166369747D01*
X61593809Y-166369747D02*
X61714762Y-166309271D01*
X61714762Y-166309271D02*
X62017143Y-166309271D01*
X62017143Y-166309271D02*
X62138095Y-166369747D01*
X62138095Y-166369747D02*
X62198571Y-166430223D01*
X62198571Y-166430223D02*
X62259048Y-166551175D01*
X62259048Y-166551175D02*
X62259048Y-166672128D01*
X62259048Y-166672128D02*
X62198571Y-166853556D01*
X62198571Y-166853556D02*
X61472857Y-167579271D01*
X61472857Y-167579271D02*
X62259048Y-167579271D01*
X63468572Y-167579271D02*
X62742857Y-167579271D01*
X63105714Y-167579271D02*
X63105714Y-166309271D01*
X63105714Y-166309271D02*
X62984762Y-166490699D01*
X62984762Y-166490699D02*
X62863810Y-166611652D01*
X62863810Y-166611652D02*
X62742857Y-166672128D01*
X64254762Y-166309271D02*
X64375715Y-166309271D01*
X64375715Y-166309271D02*
X64496667Y-166369747D01*
X64496667Y-166369747D02*
X64557143Y-166430223D01*
X64557143Y-166430223D02*
X64617619Y-166551175D01*
X64617619Y-166551175D02*
X64678096Y-166793080D01*
X64678096Y-166793080D02*
X64678096Y-167095461D01*
X64678096Y-167095461D02*
X64617619Y-167337366D01*
X64617619Y-167337366D02*
X64557143Y-167458318D01*
X64557143Y-167458318D02*
X64496667Y-167518795D01*
X64496667Y-167518795D02*
X64375715Y-167579271D01*
X64375715Y-167579271D02*
X64254762Y-167579271D01*
X64254762Y-167579271D02*
X64133810Y-167518795D01*
X64133810Y-167518795D02*
X64073334Y-167458318D01*
X64073334Y-167458318D02*
X64012857Y-167337366D01*
X64012857Y-167337366D02*
X63952381Y-167095461D01*
X63952381Y-167095461D02*
X63952381Y-166793080D01*
X63952381Y-166793080D02*
X64012857Y-166551175D01*
X64012857Y-166551175D02*
X64073334Y-166430223D01*
X64073334Y-166430223D02*
X64133810Y-166369747D01*
X64133810Y-166369747D02*
X64254762Y-166309271D01*
X65887620Y-167579271D02*
X65161905Y-167579271D01*
X65524762Y-167579271D02*
X65524762Y-166309271D01*
X65524762Y-166309271D02*
X65403810Y-166490699D01*
X65403810Y-166490699D02*
X65282858Y-166611652D01*
X65282858Y-166611652D02*
X65161905Y-166672128D01*
X66431905Y-167579271D02*
X66431905Y-166309271D01*
X66431905Y-166309271D02*
X67157620Y-167579271D01*
X67157620Y-167579271D02*
X67157620Y-166309271D01*
X68367143Y-167579271D02*
X67762381Y-167579271D01*
X67762381Y-167579271D02*
X67762381Y-166309271D01*
X68488096Y-167700223D02*
X69455715Y-167700223D01*
X69758095Y-167579271D02*
X69758095Y-166732604D01*
X69758095Y-166309271D02*
X69697619Y-166369747D01*
X69697619Y-166369747D02*
X69758095Y-166430223D01*
X69758095Y-166430223D02*
X69818572Y-166369747D01*
X69818572Y-166369747D02*
X69758095Y-166309271D01*
X69758095Y-166309271D02*
X69758095Y-166430223D01*
X70302381Y-167518795D02*
X70423334Y-167579271D01*
X70423334Y-167579271D02*
X70665238Y-167579271D01*
X70665238Y-167579271D02*
X70786191Y-167518795D01*
X70786191Y-167518795D02*
X70846667Y-167397842D01*
X70846667Y-167397842D02*
X70846667Y-167337366D01*
X70846667Y-167337366D02*
X70786191Y-167216414D01*
X70786191Y-167216414D02*
X70665238Y-167155937D01*
X70665238Y-167155937D02*
X70483810Y-167155937D01*
X70483810Y-167155937D02*
X70362857Y-167095461D01*
X70362857Y-167095461D02*
X70302381Y-166974509D01*
X70302381Y-166974509D02*
X70302381Y-166914033D01*
X70302381Y-166914033D02*
X70362857Y-166793080D01*
X70362857Y-166793080D02*
X70483810Y-166732604D01*
X70483810Y-166732604D02*
X70665238Y-166732604D01*
X70665238Y-166732604D02*
X70786191Y-166793080D01*
X71572381Y-167579271D02*
X71451429Y-167518795D01*
X71451429Y-167518795D02*
X71390952Y-167458318D01*
X71390952Y-167458318D02*
X71330476Y-167337366D01*
X71330476Y-167337366D02*
X71330476Y-166974509D01*
X71330476Y-166974509D02*
X71390952Y-166853556D01*
X71390952Y-166853556D02*
X71451429Y-166793080D01*
X71451429Y-166793080D02*
X71572381Y-166732604D01*
X71572381Y-166732604D02*
X71753810Y-166732604D01*
X71753810Y-166732604D02*
X71874762Y-166793080D01*
X71874762Y-166793080D02*
X71935238Y-166853556D01*
X71935238Y-166853556D02*
X71995714Y-166974509D01*
X71995714Y-166974509D02*
X71995714Y-167337366D01*
X71995714Y-167337366D02*
X71935238Y-167458318D01*
X71935238Y-167458318D02*
X71874762Y-167518795D01*
X71874762Y-167518795D02*
X71753810Y-167579271D01*
X71753810Y-167579271D02*
X71572381Y-167579271D01*
X72479524Y-167518795D02*
X72660953Y-167579271D01*
X72660953Y-167579271D02*
X72963334Y-167579271D01*
X72963334Y-167579271D02*
X73084286Y-167518795D01*
X73084286Y-167518795D02*
X73144762Y-167458318D01*
X73144762Y-167458318D02*
X73205239Y-167337366D01*
X73205239Y-167337366D02*
X73205239Y-167216414D01*
X73205239Y-167216414D02*
X73144762Y-167095461D01*
X73144762Y-167095461D02*
X73084286Y-167034985D01*
X73084286Y-167034985D02*
X72963334Y-166974509D01*
X72963334Y-166974509D02*
X72721429Y-166914033D01*
X72721429Y-166914033D02*
X72600477Y-166853556D01*
X72600477Y-166853556D02*
X72540000Y-166793080D01*
X72540000Y-166793080D02*
X72479524Y-166672128D01*
X72479524Y-166672128D02*
X72479524Y-166551175D01*
X72479524Y-166551175D02*
X72540000Y-166430223D01*
X72540000Y-166430223D02*
X72600477Y-166369747D01*
X72600477Y-166369747D02*
X72721429Y-166309271D01*
X72721429Y-166309271D02*
X73023810Y-166309271D01*
X73023810Y-166309271D02*
X73205239Y-166369747D01*
X73749524Y-167579271D02*
X73749524Y-166309271D01*
X73749524Y-166309271D02*
X74233334Y-166309271D01*
X74233334Y-166309271D02*
X74354286Y-166369747D01*
X74354286Y-166369747D02*
X74414763Y-166430223D01*
X74414763Y-166430223D02*
X74475239Y-166551175D01*
X74475239Y-166551175D02*
X74475239Y-166732604D01*
X74475239Y-166732604D02*
X74414763Y-166853556D01*
X74414763Y-166853556D02*
X74354286Y-166914033D01*
X74354286Y-166914033D02*
X74233334Y-166974509D01*
X74233334Y-166974509D02*
X73749524Y-166974509D01*
X75019524Y-167579271D02*
X75019524Y-166309271D01*
X75321906Y-167700223D02*
X76289525Y-167700223D01*
X76591905Y-167579271D02*
X76591905Y-166309271D01*
X76591905Y-166309271D02*
X77075715Y-166309271D01*
X77075715Y-166309271D02*
X77196667Y-166369747D01*
X77196667Y-166369747D02*
X77257144Y-166430223D01*
X77257144Y-166430223D02*
X77317620Y-166551175D01*
X77317620Y-166551175D02*
X77317620Y-166732604D01*
X77317620Y-166732604D02*
X77257144Y-166853556D01*
X77257144Y-166853556D02*
X77196667Y-166914033D01*
X77196667Y-166914033D02*
X77075715Y-166974509D01*
X77075715Y-166974509D02*
X76591905Y-166974509D01*
X78043334Y-167579271D02*
X77922382Y-167518795D01*
X77922382Y-167518795D02*
X77861905Y-167458318D01*
X77861905Y-167458318D02*
X77801429Y-167337366D01*
X77801429Y-167337366D02*
X77801429Y-166974509D01*
X77801429Y-166974509D02*
X77861905Y-166853556D01*
X77861905Y-166853556D02*
X77922382Y-166793080D01*
X77922382Y-166793080D02*
X78043334Y-166732604D01*
X78043334Y-166732604D02*
X78224763Y-166732604D01*
X78224763Y-166732604D02*
X78345715Y-166793080D01*
X78345715Y-166793080D02*
X78406191Y-166853556D01*
X78406191Y-166853556D02*
X78466667Y-166974509D01*
X78466667Y-166974509D02*
X78466667Y-167337366D01*
X78466667Y-167337366D02*
X78406191Y-167458318D01*
X78406191Y-167458318D02*
X78345715Y-167518795D01*
X78345715Y-167518795D02*
X78224763Y-167579271D01*
X78224763Y-167579271D02*
X78043334Y-167579271D01*
X79010953Y-167579271D02*
X79010953Y-166732604D01*
X79010953Y-166974509D02*
X79071430Y-166853556D01*
X79071430Y-166853556D02*
X79131906Y-166793080D01*
X79131906Y-166793080D02*
X79252858Y-166732604D01*
X79252858Y-166732604D02*
X79373811Y-166732604D01*
X79615715Y-166732604D02*
X80099524Y-166732604D01*
X79797143Y-166309271D02*
X79797143Y-167397842D01*
X79797143Y-167397842D02*
X79857620Y-167518795D01*
X79857620Y-167518795D02*
X79978572Y-167579271D01*
X79978572Y-167579271D02*
X80099524Y-167579271D01*
X80946191Y-166914033D02*
X81127619Y-166974509D01*
X81127619Y-166974509D02*
X81188096Y-167034985D01*
X81188096Y-167034985D02*
X81248572Y-167155937D01*
X81248572Y-167155937D02*
X81248572Y-167337366D01*
X81248572Y-167337366D02*
X81188096Y-167458318D01*
X81188096Y-167458318D02*
X81127619Y-167518795D01*
X81127619Y-167518795D02*
X81006667Y-167579271D01*
X81006667Y-167579271D02*
X80522857Y-167579271D01*
X80522857Y-167579271D02*
X80522857Y-166309271D01*
X80522857Y-166309271D02*
X80946191Y-166309271D01*
X80946191Y-166309271D02*
X81067143Y-166369747D01*
X81067143Y-166369747D02*
X81127619Y-166430223D01*
X81127619Y-166430223D02*
X81188096Y-166551175D01*
X81188096Y-166551175D02*
X81188096Y-166672128D01*
X81188096Y-166672128D02*
X81127619Y-166793080D01*
X81127619Y-166793080D02*
X81067143Y-166853556D01*
X81067143Y-166853556D02*
X80946191Y-166914033D01*
X80946191Y-166914033D02*
X80522857Y-166914033D01*
X184309271Y54576667D02*
X185216414Y54576667D01*
X185216414Y54576667D02*
X185397842Y54516190D01*
X185397842Y54516190D02*
X185518795Y54395238D01*
X185518795Y54395238D02*
X185579271Y54213809D01*
X185579271Y54213809D02*
X185579271Y54092857D01*
X185579271Y55846667D02*
X185579271Y55120952D01*
X185579271Y55483809D02*
X184309271Y55483809D01*
X184309271Y55483809D02*
X184490699Y55362857D01*
X184490699Y55362857D02*
X184611652Y55241905D01*
X184611652Y55241905D02*
X184672128Y55120952D01*
X185579271Y65505238D02*
X185579271Y64779523D01*
X185579271Y65142380D02*
X184309271Y65142380D01*
X184309271Y65142380D02*
X184490699Y65021428D01*
X184490699Y65021428D02*
X184611652Y64900476D01*
X184611652Y64900476D02*
X184672128Y64779523D01*
X184853556Y66230952D02*
X184793080Y66110000D01*
X184793080Y66110000D02*
X184732604Y66049523D01*
X184732604Y66049523D02*
X184611652Y65989047D01*
X184611652Y65989047D02*
X184551175Y65989047D01*
X184551175Y65989047D02*
X184430223Y66049523D01*
X184430223Y66049523D02*
X184369747Y66110000D01*
X184369747Y66110000D02*
X184309271Y66230952D01*
X184309271Y66230952D02*
X184309271Y66472857D01*
X184309271Y66472857D02*
X184369747Y66593809D01*
X184369747Y66593809D02*
X184430223Y66654285D01*
X184430223Y66654285D02*
X184551175Y66714762D01*
X184551175Y66714762D02*
X184611652Y66714762D01*
X184611652Y66714762D02*
X184732604Y66654285D01*
X184732604Y66654285D02*
X184793080Y66593809D01*
X184793080Y66593809D02*
X184853556Y66472857D01*
X184853556Y66472857D02*
X184853556Y66230952D01*
X184853556Y66230952D02*
X184914033Y66110000D01*
X184914033Y66110000D02*
X184974509Y66049523D01*
X184974509Y66049523D02*
X185095461Y65989047D01*
X185095461Y65989047D02*
X185337366Y65989047D01*
X185337366Y65989047D02*
X185458318Y66049523D01*
X185458318Y66049523D02*
X185518795Y66110000D01*
X185518795Y66110000D02*
X185579271Y66230952D01*
X185579271Y66230952D02*
X185579271Y66472857D01*
X185579271Y66472857D02*
X185518795Y66593809D01*
X185518795Y66593809D02*
X185458318Y66654285D01*
X185458318Y66654285D02*
X185337366Y66714762D01*
X185337366Y66714762D02*
X185095461Y66714762D01*
X185095461Y66714762D02*
X184974509Y66654285D01*
X184974509Y66654285D02*
X184914033Y66593809D01*
X184914033Y66593809D02*
X184853556Y66472857D01*
X185095461Y67259047D02*
X185095461Y68226667D01*
X185458318Y69557143D02*
X185518795Y69496667D01*
X185518795Y69496667D02*
X185579271Y69315238D01*
X185579271Y69315238D02*
X185579271Y69194286D01*
X185579271Y69194286D02*
X185518795Y69012857D01*
X185518795Y69012857D02*
X185397842Y68891905D01*
X185397842Y68891905D02*
X185276890Y68831428D01*
X185276890Y68831428D02*
X185034985Y68770952D01*
X185034985Y68770952D02*
X184853556Y68770952D01*
X184853556Y68770952D02*
X184611652Y68831428D01*
X184611652Y68831428D02*
X184490699Y68891905D01*
X184490699Y68891905D02*
X184369747Y69012857D01*
X184369747Y69012857D02*
X184309271Y69194286D01*
X184309271Y69194286D02*
X184309271Y69315238D01*
X184309271Y69315238D02*
X184369747Y69496667D01*
X184369747Y69496667D02*
X184430223Y69557143D01*
X185518795Y70585238D02*
X185579271Y70464286D01*
X185579271Y70464286D02*
X185579271Y70222381D01*
X185579271Y70222381D02*
X185518795Y70101428D01*
X185518795Y70101428D02*
X185397842Y70040952D01*
X185397842Y70040952D02*
X184914033Y70040952D01*
X184914033Y70040952D02*
X184793080Y70101428D01*
X184793080Y70101428D02*
X184732604Y70222381D01*
X184732604Y70222381D02*
X184732604Y70464286D01*
X184732604Y70464286D02*
X184793080Y70585238D01*
X184793080Y70585238D02*
X184914033Y70645714D01*
X184914033Y70645714D02*
X185034985Y70645714D01*
X185034985Y70645714D02*
X185155937Y70040952D01*
X185579271Y71371428D02*
X185518795Y71250476D01*
X185518795Y71250476D02*
X185397842Y71189999D01*
X185397842Y71189999D02*
X184309271Y71189999D01*
X185579271Y72036666D02*
X185518795Y71915714D01*
X185518795Y71915714D02*
X185397842Y71855237D01*
X185397842Y71855237D02*
X184309271Y71855237D01*
X185700223Y72218095D02*
X185700223Y73185714D01*
X184309271Y73306666D02*
X185579271Y73729999D01*
X185579271Y73729999D02*
X184309271Y74153333D01*
X185579271Y74758094D02*
X185518795Y74637142D01*
X185518795Y74637142D02*
X185458318Y74576665D01*
X185458318Y74576665D02*
X185337366Y74516189D01*
X185337366Y74516189D02*
X184974509Y74516189D01*
X184974509Y74516189D02*
X184853556Y74576665D01*
X184853556Y74576665D02*
X184793080Y74637142D01*
X184793080Y74637142D02*
X184732604Y74758094D01*
X184732604Y74758094D02*
X184732604Y74939523D01*
X184732604Y74939523D02*
X184793080Y75060475D01*
X184793080Y75060475D02*
X184853556Y75120951D01*
X184853556Y75120951D02*
X184974509Y75181427D01*
X184974509Y75181427D02*
X185337366Y75181427D01*
X185337366Y75181427D02*
X185458318Y75120951D01*
X185458318Y75120951D02*
X185518795Y75060475D01*
X185518795Y75060475D02*
X185579271Y74939523D01*
X185579271Y74939523D02*
X185579271Y74758094D01*
X185579271Y75907142D02*
X185518795Y75786190D01*
X185518795Y75786190D02*
X185397842Y75725713D01*
X185397842Y75725713D02*
X184309271Y75725713D01*
X184732604Y76209523D02*
X184732604Y76693332D01*
X184309271Y76390951D02*
X185397842Y76390951D01*
X185397842Y76390951D02*
X185518795Y76451428D01*
X185518795Y76451428D02*
X185579271Y76572380D01*
X185579271Y76572380D02*
X185579271Y76693332D01*
X185579271Y77660951D02*
X184914033Y77660951D01*
X184914033Y77660951D02*
X184793080Y77600475D01*
X184793080Y77600475D02*
X184732604Y77479523D01*
X184732604Y77479523D02*
X184732604Y77237618D01*
X184732604Y77237618D02*
X184793080Y77116665D01*
X185518795Y77660951D02*
X185579271Y77539999D01*
X185579271Y77539999D02*
X185579271Y77237618D01*
X185579271Y77237618D02*
X185518795Y77116665D01*
X185518795Y77116665D02*
X185397842Y77056189D01*
X185397842Y77056189D02*
X185276890Y77056189D01*
X185276890Y77056189D02*
X185155937Y77116665D01*
X185155937Y77116665D02*
X185095461Y77237618D01*
X185095461Y77237618D02*
X185095461Y77539999D01*
X185095461Y77539999D02*
X185034985Y77660951D01*
X184732604Y78809999D02*
X185760699Y78809999D01*
X185760699Y78809999D02*
X185881652Y78749523D01*
X185881652Y78749523D02*
X185942128Y78689047D01*
X185942128Y78689047D02*
X186002604Y78568094D01*
X186002604Y78568094D02*
X186002604Y78386666D01*
X186002604Y78386666D02*
X185942128Y78265713D01*
X185518795Y78809999D02*
X185579271Y78689047D01*
X185579271Y78689047D02*
X185579271Y78447142D01*
X185579271Y78447142D02*
X185518795Y78326190D01*
X185518795Y78326190D02*
X185458318Y78265713D01*
X185458318Y78265713D02*
X185337366Y78205237D01*
X185337366Y78205237D02*
X184974509Y78205237D01*
X184974509Y78205237D02*
X184853556Y78265713D01*
X184853556Y78265713D02*
X184793080Y78326190D01*
X184793080Y78326190D02*
X184732604Y78447142D01*
X184732604Y78447142D02*
X184732604Y78689047D01*
X184732604Y78689047D02*
X184793080Y78809999D01*
X185518795Y79898571D02*
X185579271Y79777619D01*
X185579271Y79777619D02*
X185579271Y79535714D01*
X185579271Y79535714D02*
X185518795Y79414761D01*
X185518795Y79414761D02*
X185397842Y79354285D01*
X185397842Y79354285D02*
X184914033Y79354285D01*
X184914033Y79354285D02*
X184793080Y79414761D01*
X184793080Y79414761D02*
X184732604Y79535714D01*
X184732604Y79535714D02*
X184732604Y79777619D01*
X184732604Y79777619D02*
X184793080Y79898571D01*
X184793080Y79898571D02*
X184914033Y79959047D01*
X184914033Y79959047D02*
X185034985Y79959047D01*
X185034985Y79959047D02*
X185155937Y79354285D01*
X185700223Y80200952D02*
X185700223Y81168571D01*
X184309271Y81289523D02*
X184309271Y82015237D01*
X185579271Y81652380D02*
X184309271Y81652380D01*
X185579271Y82982856D02*
X184914033Y82982856D01*
X184914033Y82982856D02*
X184793080Y82922380D01*
X184793080Y82922380D02*
X184732604Y82801428D01*
X184732604Y82801428D02*
X184732604Y82559523D01*
X184732604Y82559523D02*
X184793080Y82438570D01*
X185518795Y82982856D02*
X185579271Y82861904D01*
X185579271Y82861904D02*
X185579271Y82559523D01*
X185579271Y82559523D02*
X185518795Y82438570D01*
X185518795Y82438570D02*
X185397842Y82378094D01*
X185397842Y82378094D02*
X185276890Y82378094D01*
X185276890Y82378094D02*
X185155937Y82438570D01*
X185155937Y82438570D02*
X185095461Y82559523D01*
X185095461Y82559523D02*
X185095461Y82861904D01*
X185095461Y82861904D02*
X185034985Y82982856D01*
X184732604Y83587618D02*
X186002604Y83587618D01*
X184793080Y83587618D02*
X184732604Y83708571D01*
X184732604Y83708571D02*
X184732604Y83950476D01*
X184732604Y83950476D02*
X184793080Y84071428D01*
X184793080Y84071428D02*
X184853556Y84131904D01*
X184853556Y84131904D02*
X184974509Y84192380D01*
X184974509Y84192380D02*
X185337366Y84192380D01*
X185337366Y84192380D02*
X185458318Y84131904D01*
X185458318Y84131904D02*
X185518795Y84071428D01*
X185518795Y84071428D02*
X185579271Y83950476D01*
X185579271Y83950476D02*
X185579271Y83708571D01*
X185579271Y83708571D02*
X185518795Y83587618D01*
X185518795Y84676190D02*
X185579271Y84797143D01*
X185579271Y84797143D02*
X185579271Y85039047D01*
X185579271Y85039047D02*
X185518795Y85160000D01*
X185518795Y85160000D02*
X185397842Y85220476D01*
X185397842Y85220476D02*
X185337366Y85220476D01*
X185337366Y85220476D02*
X185216414Y85160000D01*
X185216414Y85160000D02*
X185155937Y85039047D01*
X185155937Y85039047D02*
X185155937Y84857619D01*
X185155937Y84857619D02*
X185095461Y84736666D01*
X185095461Y84736666D02*
X184974509Y84676190D01*
X184974509Y84676190D02*
X184914033Y84676190D01*
X184914033Y84676190D02*
X184793080Y84736666D01*
X184793080Y84736666D02*
X184732604Y84857619D01*
X184732604Y84857619D02*
X184732604Y85039047D01*
X184732604Y85039047D02*
X184793080Y85160000D01*
M02*
