%TF.GenerationSoftware,KiCad,Pcbnew,10.0.1*%
%TF.CreationDate,2026-08-18T00:17:20+05:00*%
%TF.ProjectId,Slave_AFE_18s,536c6176-655f-4414-9645-5f3138732e6b,rev?*%
%TF.SameCoordinates,Original*%
%TF.FileFunction,Paste,Top*%
%TF.FilePolarity,Positive*%
%FSLAX46Y46*%
G04 Gerber Fmt 4.6, Leading zero omitted, Abs format (unit mm)*
G04 Created by KiCad (PCBNEW 10.0.1) date 2026-08-18 00:17:20*
%MOMM*%
%LPD*%
G01*
G04 APERTURE LIST*
G04 Aperture macros list*
%AMRoundRect*
0 Rectangle with rounded corners*
0 $1 Rounding radius*
0 $2 $3 $4 $5 $6 $7 $8 $9 X,Y pos of 4 corners*
0 Add a 4 corners polygon primitive as box body*
4,1,4,$2,$3,$4,$5,$6,$7,$8,$9,$2,$3,0*
0 Add four circle primitives for the rounded corners*
1,1,$1+$1,$2,$3*
1,1,$1+$1,$4,$5*
1,1,$1+$1,$6,$7*
1,1,$1+$1,$8,$9*
0 Add four rect primitives between the rounded corners*
20,1,$1+$1,$2,$3,$4,$5,0*
20,1,$1+$1,$4,$5,$6,$7,0*
20,1,$1+$1,$6,$7,$8,$9,0*
20,1,$1+$1,$8,$9,$2,$3,0*%
G04 Aperture macros list end*
%ADD10RoundRect,0.250000X-1.000000X-0.650000X1.000000X-0.650000X1.000000X0.650000X-1.000000X0.650000X0*%
%ADD11RoundRect,0.250000X-0.262500X-0.450000X0.262500X-0.450000X0.262500X0.450000X-0.262500X0.450000X0*%
%ADD12RoundRect,0.250000X-0.250000X-0.475000X0.250000X-0.475000X0.250000X0.475000X-0.250000X0.475000X0*%
%ADD13RoundRect,0.250000X1.425000X-0.362500X1.425000X0.362500X-1.425000X0.362500X-1.425000X-0.362500X0*%
%ADD14RoundRect,0.150000X-0.587500X-0.150000X0.587500X-0.150000X0.587500X0.150000X-0.587500X0.150000X0*%
%ADD15RoundRect,0.150000X-0.825000X-0.150000X0.825000X-0.150000X0.825000X0.150000X-0.825000X0.150000X0*%
%ADD16RoundRect,0.075000X-0.700000X-0.075000X0.700000X-0.075000X0.700000X0.075000X-0.700000X0.075000X0*%
%ADD17RoundRect,0.075000X-0.075000X-0.700000X0.075000X-0.700000X0.075000X0.700000X-0.075000X0.700000X0*%
G04 APERTURE END LIST*
D10*
%TO.C,D_tvs5*%
X123000000Y-36000000D03*
X127000000Y-36000000D03*
%TD*%
D11*
%TO.C,R_filt16*%
X104087500Y-80000000D03*
X105912500Y-80000000D03*
%TD*%
D12*
%TO.C,C_filt10*%
X114050000Y-56000000D03*
X115950000Y-56000000D03*
%TD*%
D13*
%TO.C,R_bld10*%
X81199999Y-87962500D03*
X81199999Y-82037500D03*
%TD*%
D14*
%TO.C,Q7*%
X59862500Y-71050000D03*
X59862500Y-72950000D03*
X61737500Y-72000000D03*
%TD*%
%TO.C,Q10*%
X80262499Y-71050000D03*
X80262499Y-72950000D03*
X82137499Y-72000000D03*
%TD*%
%TO.C,Q14*%
X107462499Y-71050000D03*
X107462499Y-72950000D03*
X109337499Y-72000000D03*
%TD*%
D10*
%TO.C,D_tvs3*%
X123000000Y-28000000D03*
X127000000Y-28000000D03*
%TD*%
D11*
%TO.C,R_filt1*%
X104087500Y-20000000D03*
X105912500Y-20000000D03*
%TD*%
D13*
%TO.C,R_bld2*%
X26800000Y-87962500D03*
X26800000Y-82037500D03*
%TD*%
D12*
%TO.C,C_filt16*%
X114050000Y-80000000D03*
X115950000Y-80000000D03*
%TD*%
D14*
%TO.C,Q17*%
X127862500Y-71050000D03*
X127862500Y-72950000D03*
X129737500Y-72000000D03*
%TD*%
D11*
%TO.C,R_filt2*%
X104087500Y-24000000D03*
X105912500Y-24000000D03*
%TD*%
%TO.C,R_filt3*%
X104087500Y-28000000D03*
X105912500Y-28000000D03*
%TD*%
D13*
%TO.C,R_bld4*%
X40400000Y-87962500D03*
X40400000Y-82037500D03*
%TD*%
D14*
%TO.C,Q13*%
X100662500Y-71050000D03*
X100662500Y-72950000D03*
X102537500Y-72000000D03*
%TD*%
D10*
%TO.C,D_tvs16*%
X123000000Y-80000000D03*
X127000000Y-80000000D03*
%TD*%
D15*
%TO.C,T2*%
X23525000Y-45555000D03*
X23525000Y-46825000D03*
X23525000Y-48095000D03*
X23525000Y-49365000D03*
X23525000Y-50635000D03*
X23525000Y-51905000D03*
X23525000Y-53175000D03*
X23525000Y-54445000D03*
X28475000Y-54445000D03*
X28475000Y-53175000D03*
X28475000Y-51905000D03*
X28475000Y-50635000D03*
X28475000Y-49365000D03*
X28475000Y-48095000D03*
X28475000Y-46825000D03*
X28475000Y-45555000D03*
%TD*%
D12*
%TO.C,C_filt5*%
X114050000Y-36000000D03*
X115950000Y-36000000D03*
%TD*%
D14*
%TO.C,Q6*%
X53062500Y-71050000D03*
X53062500Y-72950000D03*
X54937500Y-72000000D03*
%TD*%
D12*
%TO.C,C_filt7*%
X114050000Y-44000000D03*
X115950000Y-44000000D03*
%TD*%
D16*
%TO.C,U1*%
X69325000Y-41250000D03*
X69325000Y-41750000D03*
X69325000Y-42250000D03*
X69325000Y-42750000D03*
X69325000Y-43250000D03*
X69325000Y-43750000D03*
X69325000Y-44250000D03*
X69325000Y-44750000D03*
X69325000Y-45250000D03*
X69325000Y-45750000D03*
X69325000Y-46250000D03*
X69325000Y-46750000D03*
X69325000Y-47250000D03*
X69325000Y-47750000D03*
X69325000Y-48250000D03*
X69325000Y-48750000D03*
D17*
X71250000Y-50675000D03*
X71750000Y-50675000D03*
X72250000Y-50675000D03*
X72750000Y-50675000D03*
X73250000Y-50675000D03*
X73750000Y-50675000D03*
X74250000Y-50675000D03*
X74750000Y-50675000D03*
X75250000Y-50675000D03*
X75750000Y-50675000D03*
X76250000Y-50675000D03*
X76750000Y-50675000D03*
X77250000Y-50675000D03*
X77750000Y-50675000D03*
X78250000Y-50675000D03*
X78750000Y-50675000D03*
D16*
X80675000Y-48750000D03*
X80675000Y-48250000D03*
X80675000Y-47750000D03*
X80675000Y-47250000D03*
X80675000Y-46750000D03*
X80675000Y-46250000D03*
X80675000Y-45750000D03*
X80675000Y-45250000D03*
X80675000Y-44750000D03*
X80675000Y-44250000D03*
X80675000Y-43750000D03*
X80675000Y-43250000D03*
X80675000Y-42750000D03*
X80675000Y-42250000D03*
X80675000Y-41750000D03*
X80675000Y-41250000D03*
D17*
X78750000Y-39325000D03*
X78250000Y-39325000D03*
X77750000Y-39325000D03*
X77250000Y-39325000D03*
X76750000Y-39325000D03*
X76250000Y-39325000D03*
X75750000Y-39325000D03*
X75250000Y-39325000D03*
X74750000Y-39325000D03*
X74250000Y-39325000D03*
X73750000Y-39325000D03*
X73250000Y-39325000D03*
X72750000Y-39325000D03*
X72250000Y-39325000D03*
X71750000Y-39325000D03*
X71250000Y-39325000D03*
%TD*%
D12*
%TO.C,C_filt4*%
X114050000Y-32000000D03*
X115950000Y-32000000D03*
%TD*%
D13*
%TO.C,R_bld9*%
X74400000Y-87962500D03*
X74400000Y-82037500D03*
%TD*%
D14*
%TO.C,Q5*%
X46262500Y-71050000D03*
X46262500Y-72950000D03*
X48137500Y-72000000D03*
%TD*%
D11*
%TO.C,R_filt5*%
X104087500Y-36000000D03*
X105912500Y-36000000D03*
%TD*%
D10*
%TO.C,D_tvs14*%
X123000000Y-72000000D03*
X127000000Y-72000000D03*
%TD*%
D11*
%TO.C,R_filt10*%
X104087500Y-56000000D03*
X105912500Y-56000000D03*
%TD*%
D14*
%TO.C,Q4*%
X39462500Y-71050000D03*
X39462500Y-72950000D03*
X41337500Y-72000000D03*
%TD*%
D11*
%TO.C,R_filt4*%
X104087500Y-32000000D03*
X105912500Y-32000000D03*
%TD*%
D10*
%TO.C,D_tvs8*%
X123000000Y-48000000D03*
X127000000Y-48000000D03*
%TD*%
D11*
%TO.C,R_filt6*%
X104087500Y-40000000D03*
X105912500Y-40000000D03*
%TD*%
D13*
%TO.C,R_bld12*%
X94800000Y-87962500D03*
X94800000Y-82037500D03*
%TD*%
D11*
%TO.C,R_filt14*%
X104087500Y-72000000D03*
X105912500Y-72000000D03*
%TD*%
D10*
%TO.C,D_tvs1*%
X123000000Y-20000000D03*
X127000000Y-20000000D03*
%TD*%
D12*
%TO.C,C_filt8*%
X114050000Y-48000000D03*
X115950000Y-48000000D03*
%TD*%
D10*
%TO.C,D_tvs7*%
X123000000Y-44000000D03*
X127000000Y-44000000D03*
%TD*%
D14*
%TO.C,Q2*%
X25862500Y-71050000D03*
X25862500Y-72950000D03*
X27737500Y-72000000D03*
%TD*%
D12*
%TO.C,C_filt13*%
X114050000Y-68000000D03*
X115950000Y-68000000D03*
%TD*%
D13*
%TO.C,R_bld17*%
X128800000Y-87962500D03*
X128800000Y-82037500D03*
%TD*%
%TO.C,R_bld16*%
X122000000Y-87962500D03*
X122000000Y-82037500D03*
%TD*%
D11*
%TO.C,R_filt18*%
X104087500Y-88000000D03*
X105912500Y-88000000D03*
%TD*%
D12*
%TO.C,C_filt1*%
X114050000Y-20000000D03*
X115950000Y-20000000D03*
%TD*%
%TO.C,C_filt15*%
X114050000Y-76000000D03*
X115950000Y-76000000D03*
%TD*%
D14*
%TO.C,Q1*%
X19062500Y-71050000D03*
X19062500Y-72950000D03*
X20937500Y-72000000D03*
%TD*%
D12*
%TO.C,C_filt6*%
X114050000Y-40000000D03*
X115950000Y-40000000D03*
%TD*%
D10*
%TO.C,D_tvs2*%
X123000000Y-24000000D03*
X127000000Y-24000000D03*
%TD*%
D14*
%TO.C,Q11*%
X87062500Y-71050000D03*
X87062500Y-72950000D03*
X88937500Y-72000000D03*
%TD*%
D12*
%TO.C,C_filt14*%
X114050000Y-72000000D03*
X115950000Y-72000000D03*
%TD*%
D10*
%TO.C,D_tvs18*%
X123000000Y-88000000D03*
X127000000Y-88000000D03*
%TD*%
D13*
%TO.C,R_bld15*%
X115200000Y-87962500D03*
X115200000Y-82037500D03*
%TD*%
D12*
%TO.C,C_filt2*%
X114050000Y-24000000D03*
X115950000Y-24000000D03*
%TD*%
D13*
%TO.C,R_bld7*%
X60800000Y-87962500D03*
X60800000Y-82037500D03*
%TD*%
%TO.C,R_bld14*%
X108399999Y-87962500D03*
X108399999Y-82037500D03*
%TD*%
%TO.C,R_bld18*%
X135600000Y-87962500D03*
X135600000Y-82037500D03*
%TD*%
D11*
%TO.C,R_filt9*%
X104087500Y-52000000D03*
X105912500Y-52000000D03*
%TD*%
D13*
%TO.C,R_bld3*%
X33600000Y-87962500D03*
X33600000Y-82037500D03*
%TD*%
D11*
%TO.C,R_filt12*%
X104087500Y-64000000D03*
X105912500Y-64000000D03*
%TD*%
D13*
%TO.C,R_bld6*%
X54000000Y-87962500D03*
X54000000Y-82037500D03*
%TD*%
D10*
%TO.C,D_tvs10*%
X123000000Y-56000000D03*
X127000000Y-56000000D03*
%TD*%
D12*
%TO.C,C_filt12*%
X114050000Y-64000000D03*
X115950000Y-64000000D03*
%TD*%
D15*
%TO.C,T1*%
X23525000Y-25555000D03*
X23525000Y-26825000D03*
X23525000Y-28095000D03*
X23525000Y-29365000D03*
X23525000Y-30635000D03*
X23525000Y-31905000D03*
X23525000Y-33175000D03*
X23525000Y-34445000D03*
X28475000Y-34445000D03*
X28475000Y-33175000D03*
X28475000Y-31905000D03*
X28475000Y-30635000D03*
X28475000Y-29365000D03*
X28475000Y-28095000D03*
X28475000Y-26825000D03*
X28475000Y-25555000D03*
%TD*%
D12*
%TO.C,C_filt3*%
X114050000Y-28000000D03*
X115950000Y-28000000D03*
%TD*%
D14*
%TO.C,Q9*%
X73462500Y-71050000D03*
X73462500Y-72950000D03*
X75337500Y-72000000D03*
%TD*%
D12*
%TO.C,C_filt9*%
X114050000Y-52000000D03*
X115950000Y-52000000D03*
%TD*%
%TO.C,C_filt17*%
X114050000Y-84000000D03*
X115950000Y-84000000D03*
%TD*%
D14*
%TO.C,Q16*%
X121062500Y-71050000D03*
X121062500Y-72950000D03*
X122937500Y-72000000D03*
%TD*%
D11*
%TO.C,R_filt8*%
X104087500Y-48000000D03*
X105912500Y-48000000D03*
%TD*%
%TO.C,R_filt11*%
X104087500Y-60000000D03*
X105912500Y-60000000D03*
%TD*%
D10*
%TO.C,D_tvs4*%
X123000000Y-32000000D03*
X127000000Y-32000000D03*
%TD*%
D11*
%TO.C,R_filt17*%
X104087500Y-84000000D03*
X105912500Y-84000000D03*
%TD*%
D12*
%TO.C,C_filt18*%
X114050000Y-88000000D03*
X115950000Y-88000000D03*
%TD*%
D10*
%TO.C,D_tvs13*%
X123000000Y-68000000D03*
X127000000Y-68000000D03*
%TD*%
D12*
%TO.C,C_filt11*%
X114050000Y-60000000D03*
X115950000Y-60000000D03*
%TD*%
D11*
%TO.C,R_filt13*%
X104087500Y-68000000D03*
X105912500Y-68000000D03*
%TD*%
D13*
%TO.C,R_bld5*%
X47200000Y-87962500D03*
X47200000Y-82037500D03*
%TD*%
D10*
%TO.C,D_tvs9*%
X123000000Y-52000000D03*
X127000000Y-52000000D03*
%TD*%
D13*
%TO.C,R_bld8*%
X67600000Y-87962500D03*
X67600000Y-82037500D03*
%TD*%
%TO.C,R_bld13*%
X101600000Y-87962500D03*
X101600000Y-82037500D03*
%TD*%
D14*
%TO.C,Q8*%
X66662500Y-71050000D03*
X66662500Y-72950000D03*
X68537500Y-72000000D03*
%TD*%
D10*
%TO.C,D_tvs6*%
X123000000Y-40000000D03*
X127000000Y-40000000D03*
%TD*%
D14*
%TO.C,Q18*%
X134662500Y-71050000D03*
X134662500Y-72950000D03*
X136537500Y-72000000D03*
%TD*%
D13*
%TO.C,R_bld1*%
X20000000Y-87962500D03*
X20000000Y-82037500D03*
%TD*%
D10*
%TO.C,D_tvs15*%
X123000000Y-76000000D03*
X127000000Y-76000000D03*
%TD*%
%TO.C,D_tvs11*%
X123000000Y-60000000D03*
X127000000Y-60000000D03*
%TD*%
D14*
%TO.C,Q12*%
X93862500Y-71050000D03*
X93862500Y-72950000D03*
X95737500Y-72000000D03*
%TD*%
D11*
%TO.C,R_filt15*%
X104087500Y-76000000D03*
X105912500Y-76000000D03*
%TD*%
D13*
%TO.C,R_bld11*%
X88000000Y-87962500D03*
X88000000Y-82037500D03*
%TD*%
D14*
%TO.C,Q15*%
X114262500Y-71050000D03*
X114262500Y-72950000D03*
X116137500Y-72000000D03*
%TD*%
D10*
%TO.C,D_tvs17*%
X123000000Y-84000000D03*
X127000000Y-84000000D03*
%TD*%
D11*
%TO.C,R_filt7*%
X104087500Y-44000000D03*
X105912500Y-44000000D03*
%TD*%
D14*
%TO.C,Q3*%
X32662500Y-71050000D03*
X32662500Y-72950000D03*
X34537500Y-72000000D03*
%TD*%
D10*
%TO.C,D_tvs12*%
X123000000Y-64000000D03*
X127000000Y-64000000D03*
%TD*%
M02*
