%TF.GenerationSoftware,KiCad,Pcbnew,10.0.1*%
%TF.CreationDate,2026-08-18T00:17:20+05:00*%
%TF.ProjectId,Slave_AFE_18s,536c6176-655f-4414-9645-5f3138732e6b,rev?*%
%TF.SameCoordinates,Original*%
%TF.FileFunction,Copper,L2,Bot*%
%TF.FilePolarity,Positive*%
%FSLAX46Y46*%
G04 Gerber Fmt 4.6, Leading zero omitted, Abs format (unit mm)*
G04 Created by KiCad (PCBNEW 10.0.1) date 2026-08-18 00:17:20*
%MOMM*%
%LPD*%
G01*
G04 APERTURE LIST*
G04 Aperture macros list*
%AMRoundRect*
0 Rectangle with rounded corners*
0 $1 Rounding radius*
0 $2 $3 $4 $5 $6 $7 $8 $9 X,Y pos of 4 corners*
0 Add a 4 corners polygon primitive as box body*
4,1,4,$2,$3,$4,$5,$6,$7,$8,$9,$2,$3,0*
0 Add four circle primitives for the rounded corners*
1,1,$1+$1,$2,$3*
1,1,$1+$1,$4,$5*
1,1,$1+$1,$6,$7*
1,1,$1+$1,$8,$9*
0 Add four rect primitives between the rounded corners*
20,1,$1+$1,$2,$3,$4,$5,0*
20,1,$1+$1,$4,$5,$6,$7,0*
20,1,$1+$1,$6,$7,$8,$9,0*
20,1,$1+$1,$8,$9,$2,$3,0*%
G04 Aperture macros list end*
%TA.AperFunction,ComponentPad*%
%ADD10RoundRect,0.250001X-0.499999X-0.499999X0.499999X-0.499999X0.499999X0.499999X-0.499999X0.499999X0*%
%TD*%
%TA.AperFunction,ComponentPad*%
%ADD11C,1.500000*%
%TD*%
%TA.AperFunction,ComponentPad*%
%ADD12RoundRect,0.250001X0.499999X-0.499999X0.499999X0.499999X-0.499999X0.499999X-0.499999X-0.499999X0*%
%TD*%
%TA.AperFunction,ComponentPad*%
%ADD13RoundRect,0.250001X-0.499999X0.499999X-0.499999X-0.499999X0.499999X-0.499999X0.499999X0.499999X0*%
%TD*%
G04 APERTURE END LIST*
D10*
%TO.P,J2,1*%
%TO.N,N/C*%
X55000000Y-20000000D03*
D11*
%TO.P,J2,2*%
X58000000Y-20000000D03*
%TO.P,J2,3*%
X61000000Y-20000000D03*
%TO.P,J2,4*%
X64000000Y-20000000D03*
%TO.P,J2,5*%
X67000000Y-20000000D03*
%TO.P,J2,6*%
X70000000Y-20000000D03*
%TO.P,J2,7*%
X55000000Y-23000000D03*
%TO.P,J2,8*%
X58000000Y-23000000D03*
%TO.P,J2,9*%
X61000000Y-23000000D03*
%TO.P,J2,10*%
X64000000Y-23000000D03*
%TO.P,J2,11*%
X67000000Y-23000000D03*
%TO.P,J2,12*%
X70000000Y-23000000D03*
%TD*%
D12*
%TO.P,J4,1*%
%TO.N,N/C*%
X14000000Y-50000000D03*
D11*
%TO.P,J4,2*%
X14000000Y-47000000D03*
%TO.P,J4,3*%
X17000000Y-50000000D03*
%TO.P,J4,4*%
X17000000Y-47000000D03*
%TD*%
D12*
%TO.P,J3,1*%
%TO.N,N/C*%
X14000000Y-30000000D03*
D11*
%TO.P,J3,2*%
X14000000Y-27000000D03*
%TO.P,J3,3*%
X17000000Y-30000000D03*
%TO.P,J3,4*%
X17000000Y-27000000D03*
%TD*%
D13*
%TO.P,J1,1*%
%TO.N,N/C*%
X142000000Y-55000000D03*
D11*
%TO.P,J1,2*%
X142000000Y-58000000D03*
%TO.P,J1,3*%
X142000000Y-61000000D03*
%TO.P,J1,4*%
X142000000Y-64000000D03*
%TO.P,J1,5*%
X142000000Y-67000000D03*
%TO.P,J1,6*%
X142000000Y-70000000D03*
%TO.P,J1,7*%
X142000000Y-73000000D03*
%TO.P,J1,8*%
X142000000Y-76000000D03*
%TO.P,J1,9*%
X142000000Y-79000000D03*
%TO.P,J1,10*%
X142000000Y-82000000D03*
%TO.P,J1,11*%
X139000000Y-55000000D03*
%TO.P,J1,12*%
X139000000Y-58000000D03*
%TO.P,J1,13*%
X139000000Y-61000000D03*
%TO.P,J1,14*%
X139000000Y-64000000D03*
%TO.P,J1,15*%
X139000000Y-67000000D03*
%TO.P,J1,16*%
X139000000Y-70000000D03*
%TO.P,J1,17*%
X139000000Y-73000000D03*
%TO.P,J1,18*%
X139000000Y-76000000D03*
%TO.P,J1,19*%
X139000000Y-79000000D03*
%TO.P,J1,20*%
X139000000Y-82000000D03*
%TD*%
M02*
